<?xml version="1.0" encoding="UTF-8" standalone="yes"?>
<svg xmlns="http://www.w3.org/2000/svg" xmlns:xlink="http://www.w3.org/1999/xlink" width="327.653pt" height="332.709pt" version="1.1" viewBox="-394.716 893.097 327.653 332.709">
  <!--
	Exported with Concepts: Smarter Sketching
	Version: 3759 on iOS 17.7
	https://concepts.app/
	-->
  <title>2F54CFCD-9CE8-4229-9EE5-BB9B64428525</title>
  <desc>Drawing exported from Concepts: Smarter Sketching</desc>
  <defs></defs>
  <g id="基底" opacity="1.000">
    <path id="STROKE_33e1f735-48a8-4db2-86a4-06a2e810768b" opacity="1.000" fill="none" stroke="#f66640" stroke-width="2.177" stroke-opacity="1.000" stroke-linecap="round" stroke-linejoin="round" d="M -325.659 905.391 Q -325.548 906.368 -327.534 907.863 Q -329.520 909.358 -333.151 916.220 Q -336.783 923.082 -341.034 929.507 Q -345.285 935.932 -348.255 940.769 Q -351.224 945.606 -352.803 948.419 Q -354.382 951.232 -355.273 952.779 Q -356.164 954.326 -357.100 956.171 Q -358.035 958.016 -360.205 962.594 Q -362.375 967.173 -367.683 977.099 Q -372.991 987.025 -376.188 992.965 Q -379.385 998.906 -381.011 1002.962 Q -382.637 1007.019 -386.105 1016.922 "></path>
    <path id="STROKE_4acc58a1-8669-4655-8e76-b88be8e30b22" opacity="1.000" fill="none" stroke="#f66640" stroke-width="2.115" stroke-opacity="1.000" stroke-linecap="round" stroke-linejoin="round" d="M -389.419 1020.781 Q -390.631 1021.439 -387.729 1026.989 Q -384.828 1032.539 -382.221 1039.382 Q -379.614 1046.225 -378.252 1049.627 Q -376.890 1053.030 -375.244 1058.154 Q -373.598 1063.278 -371.871 1069.074 Q -370.144 1074.870 -368.659 1078.646 Q -367.173 1082.422 -363.395 1091.567 Q -359.617 1100.711 -348.107 1129.453 "></path>
    <path id="STROKE_695b7e94-a543-42e5-a5a8-3f382595f7eb" opacity="1.000" fill="none" stroke="#f66640" stroke-width="2.459" stroke-opacity="1.000" stroke-linecap="round" stroke-linejoin="round" d="M -344.731 1131.109 Q -344.762 1131.109 -345.377 1131.109 Q -345.321 1132.002 -345.283 1131.781 Q -345.259 1131.656 -344.350 1133.432 Q -343.441 1135.208 -342.506 1136.794 Q -341.571 1138.380 -340.427 1139.770 Q -339.283 1141.160 -338.520 1141.903 Q -337.757 1142.646 -335.479 1144.976 Q -333.202 1147.305 -330.519 1150.455 Q -327.835 1153.605 -325.199 1155.826 Q -322.563 1158.047 -320.684 1158.607 Q -318.805 1159.166 -316.697 1160.174 Q -314.589 1161.181 -311.170 1163.323 Q -307.750 1165.466 -303.708 1166.771 Q -299.665 1168.076 -297.256 1168.351 Q -294.848 1168.626 -289.532 1171.933 Q -284.216 1175.240 -279.071 1177.932 Q -273.926 1180.624 -269.130 1182.920 Q -264.334 1185.216 -258.826 1188.483 Q -253.318 1191.751 -247.465 1194.214 Q -241.613 1196.677 -234.817 1198.868 Q -228.022 1201.060 -223.656 1202.570 Q -219.290 1204.080 -214.473 1207.082 Q -209.657 1210.084 -205.228 1213.182 Q -200.799 1216.280 -178.983 1220.422 "></path>
    <path id="STROKE_0ac9fced-9a06-425b-9b75-d9ff7f1b3db8" opacity="1.000" fill="none" stroke="#f66640" stroke-width="2.657" stroke-opacity="1.000" stroke-linecap="round" stroke-linejoin="round" d="M -179.775 1220.688 Q -178.314 1219.722 -178.701 1219.959 Q -179.088 1220.196 -178.709 1220.085 Q -178.329 1219.974 -177.634 1219.506 Q -176.938 1219.039 -173.502 1217.813 Q -170.066 1216.588 -166.648 1216.078 Q -163.231 1215.569 -159.774 1214.683 Q -156.317 1213.798 -152.599 1211.160 Q -148.881 1208.523 -146.690 1206.578 Q -144.499 1204.633 -140.597 1201.587 Q -136.694 1198.541 -132.504 1193.431 Q -128.315 1188.321 -124.189 1182.640 Q -120.064 1176.958 -117.797 1173.617 Q -115.531 1170.277 -113.458 1166.275 Q -111.385 1162.273 -109.698 1159.265 Q -108.010 1156.257 -103.811 1149.277 Q -99.611 1142.298 -96.226 1136.578 Q -92.842 1130.859 -84.437 1110.078 "></path>
    <path id="STROKE_f9620766-a583-4697-a412-b56a4148799d" opacity="1.000" fill="none" stroke="#f66640" stroke-width="2.661" stroke-opacity="1.000" stroke-linecap="round" stroke-linejoin="round" d="M -324.137 901.609 Q -324.973 900.015 -324.825 900.383 Q -324.911 899.989 -326.180 898.219 Q -325.606 899.694 -325.648 899.422 Q -325.272 900.900 -319.082 906.436 Q -312.892 911.971 -307.577 915.868 Q -302.261 919.766 -296.920 922.671 Q -291.578 925.576 -289.174 927.267 Q -286.769 928.957 -283.157 932.107 Q -279.546 935.256 -273.308 938.341 Q -267.070 941.425 -259.106 944.938 "></path>
    <path id="STROKE_47ec4508-d942-4ef7-bbc2-150a4362ff1b" opacity="1.000" fill="none" stroke="#f66640" stroke-width="2.720" stroke-opacity="1.000" stroke-linecap="round" stroke-linejoin="round" d="M -254.270 949.250 Q -254.301 949.250 -254.478 949.250 Q -254.046 949.202 -247.302 948.145 Q -240.559 947.089 -236.250 946.626 Q -231.941 946.163 -226.459 943.874 Q -220.978 941.586 -210.499 939.094 "></path>
    <path id="STROKE_c80562d8-dcb0-43b7-962b-a4bd7198524a" opacity="1.000" fill="none" stroke="#f66640" stroke-width="2.720" stroke-opacity="1.000" stroke-linecap="round" stroke-linejoin="round" d="M -195.679 937.438 Q -195.816 937.438 -196.325 937.438 Q -195.882 935.489 -155.805 938.359 "></path>
    <path id="STROKE_6307dc54-4bf4-4d6f-b449-952be400dca6" opacity="1.000" fill="none" stroke="#f66640" stroke-width="2.720" stroke-opacity="1.000" stroke-linecap="round" stroke-linejoin="round" d="M -212.416 944.406 Q -212.202 944.743 -206.792 942.485 Q -201.382 940.228 -196.275 939.028 Q -191.167 937.828 -186.135 937.830 Q -181.102 937.832 -174.852 937.905 Q -168.602 937.978 -165.343 937.876 Q -162.084 937.774 -158.239 937.574 Q -154.394 937.375 -151.566 937.409 Q -148.738 937.443 -143.051 938.590 Q -137.364 939.737 -134.163 940.280 Q -130.962 940.822 -127.866 942.375 Q -124.770 943.927 -121.659 947.026 Q -118.549 950.126 -116.198 952.040 Q -113.848 953.954 -111.116 955.111 Q -108.383 956.268 -103.790 961.776 Q -99.197 967.283 -92.503 979.906 "></path>
    <path id="STROKE_4c327d9e-caca-4596-8de5-ec0a2bcacda6" opacity="1.000" fill="none" stroke="#f66640" stroke-width="2.720" stroke-opacity="1.000" stroke-linecap="round" stroke-linejoin="round" d="M -92.107 979.375 Q -92.107 979.344 -92.316 978.312 Q -92.316 979.270 -92.316 979.242 Q -92.977 978.788 -90.801 985.474 Q -88.625 992.160 -87.072 995.962 Q -85.520 999.765 -83.873 1002.623 Q -82.225 1005.482 -79.925 1008.585 Q -77.624 1011.688 -76.511 1013.590 Q -75.397 1015.491 -74.788 1018.583 Q -74.179 1021.674 -73.823 1023.567 Q -73.467 1025.459 -72.181 1027.672 "></path>
    <path id="STROKE_9cf5d610-4ca9-4398-a5ed-73bd6197b1e0" opacity="1.000" fill="none" stroke="#f66640" stroke-width="2.647" stroke-opacity="1.000" stroke-linecap="round" stroke-linejoin="round" d="M -73.828 1027.344 Q -73.831 1028.300 -73.869 1028.172 Q -73.940 1029.249 -73.911 1029.102 Q -73.911 1030.939 -73.911 1030.531 Q -74.072 1030.381 -73.271 1033.939 Q -72.471 1037.498 -72.334 1044.243 Q -72.197 1050.988 -72.265 1054.702 Q -72.334 1058.417 -72.680 1060.467 Q -73.026 1062.517 -73.426 1064.614 Q -73.826 1066.711 -74.227 1068.499 Q -74.628 1070.287 -75.928 1076.622 Q -77.229 1082.957 -78.068 1086.831 Q -78.907 1090.705 -79.146 1094.403 Q -79.386 1098.100 -79.139 1103.196 Q -78.892 1108.291 -80.914 1124.422 "></path>
    <path id="STROKE_7ad1f34b-ce0a-469c-92e3-884da089a50c" opacity="1.000" fill="none" stroke="#000000" stroke-width="2.717" stroke-opacity="1.000" stroke-linecap="round" stroke-linejoin="round" d="M -260.169 962.188 Q -261.244 962.721 -261.127 962.648 Q -261.980 963.057 -262.906 963.920 Q -263.832 964.784 -264.562 965.759 Q -265.292 966.733 -265.802 967.382 Q -266.312 968.031 -266.879 968.776 Q -267.445 969.523 -268.301 970.845 Q -269.156 972.167 -269.737 973.135 Q -270.318 974.102 -270.678 974.748 Q -271.038 975.394 -272.185 977.345 Q -273.331 979.296 -274.924 982.461 Q -276.516 985.626 -277.573 987.678 Q -278.631 989.730 -280.188 993.565 Q -281.745 997.400 -282.861 1000.136 Q -283.978 1002.871 -286.770 1009.982 Q -289.562 1017.092 -291.118 1020.608 Q -292.675 1024.124 -293.981 1030.768 Q -295.287 1037.412 -295.685 1041.718 Q -296.083 1046.025 -296.327 1052.611 Q -296.572 1059.198 -296.558 1066.396 Q -296.544 1073.594 -296.550 1077.622 Q -296.555 1081.650 -296.567 1084.092 Q -296.578 1086.534 -296.517 1089.527 Q -296.455 1092.520 -296.063 1094.762 Q -295.671 1097.005 -294.002 1100.951 Q -292.333 1104.898 -291.438 1108.963 Q -290.544 1113.029 -287.779 1120.819 Q -285.015 1128.609 -283.464 1132.504 Q -281.914 1136.399 -280.288 1139.172 Q -278.663 1141.944 -276.828 1143.462 Q -274.993 1144.980 -271.695 1145.984 "></path>
    <path id="STROKE_97474886-ac77-4b0c-9c33-d278973f37a7" opacity="1.000" fill="none" stroke="#000000" stroke-width="2.720" stroke-opacity="1.000" stroke-linecap="round" stroke-linejoin="round" d="M -273.404 1141.203 Q -274.721 1141.571 -274.363 1141.500 Q -275.552 1142.243 -275.166 1142.000 Q -275.320 1142.139 -275.321 1142.783 Q -275.323 1143.427 -275.300 1143.244 Q -275.278 1143.060 -275.259 1143.094 Q -275.240 1143.128 -275.049 1143.377 Q -274.859 1143.626 -271.284 1145.483 Q -267.709 1147.341 -258.611 1148.209 Q -249.513 1149.078 -244.665 1148.868 Q -239.816 1148.657 -236.094 1149.484 Q -232.371 1150.311 -228.447 1150.766 Q -224.523 1151.220 -218.337 1149.618 Q -212.151 1148.015 -207.167 1147.002 Q -202.184 1145.989 -199.929 1145.777 Q -197.673 1145.564 -195.440 1144.219 Q -193.207 1142.873 -192.324 1141.984 Q -191.441 1141.094 -187.811 1138.266 Q -184.181 1135.437 -181.954 1134.377 Q -179.728 1133.318 -177.564 1131.836 Q -175.399 1130.354 -171.999 1125.269 Q -168.599 1120.185 -165.082 1116.028 Q -161.565 1111.872 -159.231 1108.535 Q -156.896 1105.199 -155.734 1103.163 Q -154.572 1101.127 -151.725 1095.784 Q -148.877 1090.441 -145.821 1083.672 "></path>
  </g>
  <g id="湖" opacity="1.000">
    <path id="STROKE_0c86dc60-acbf-41c8-b4a7-9c9f53a66e50" opacity="1.000" fill="none" stroke="#009ef1" stroke-width="2.583" stroke-opacity="1.000" stroke-linecap="round" stroke-linejoin="round" d="M -313.195 1095.688 Q -313.589 1095.795 -314.402 1096.435 Q -315.215 1097.076 -315.849 1099.259 Q -316.483 1101.442 -316.807 1103.315 Q -317.131 1105.188 -317.333 1107.935 Q -317.536 1110.681 -317.650 1113.180 Q -317.764 1115.678 -317.356 1118.738 Q -316.947 1121.797 -316.661 1123.194 Q -316.375 1124.590 -316.220 1124.798 Q -316.065 1125.006 -315.862 1125.101 Q -315.659 1125.197 -315.296 1125.332 Q -314.933 1125.468 -315.101 1125.428 Q -315.270 1125.388 -314.570 1125.397 Q -313.871 1125.405 -313.781 1125.487 Q -313.690 1125.568 -312.415 1125.296 Q -311.140 1125.023 -309.768 1123.554 Q -308.395 1122.085 -307.097 1120.039 Q -305.799 1117.993 -305.386 1112.324 Q -304.974 1106.655 -305.272 1101.202 Q -305.571 1095.749 -306.252 1092.423 Q -306.933 1089.096 -307.546 1087.444 Q -308.160 1085.791 -308.345 1085.402 Q -308.530 1085.012 -309.337 1084.472 Q -310.145 1083.932 -310.571 1083.980 Q -310.997 1084.028 -311.407 1084.444 Q -311.817 1084.859 -312.943 1087.014 Q -314.070 1089.168 -315.110 1095.484 Q -316.150 1101.801 -316.296 1110.581 Q -316.442 1119.362 -315.519 1127.297 Q -315.260 1127.656 -313.996 1126.536 Q -312.733 1125.415 -310.848 1121.736 Q -308.963 1118.057 -307.852 1114.514 Q -306.741 1110.971 -306.470 1108.083 Q -306.199 1105.194 -306.020 1102.903 Q -305.840 1100.612 -306.936 1097.767 Q -308.033 1094.922 -309.254 1094.352 Q -310.476 1093.782 -311.381 1093.934 Q -312.286 1094.086 -312.938 1095.779 Q -313.589 1097.472 -313.731 1098.299 Q -313.872 1099.125 -314.073 1100.160 Q -314.273 1101.194 -314.302 1105.224 Q -314.330 1109.255 -314.361 1111.870 Q -314.392 1114.486 -314.016 1116.515 Q -313.641 1118.545 -313.269 1119.457 Q -312.898 1120.368 -312.345 1120.931 Q -311.792 1121.495 -311.241 1121.489 Q -310.690 1121.483 -310.560 1121.592 Q -310.430 1121.700 -309.866 1120.343 Q -309.302 1118.986 -308.832 1117.532 Q -308.363 1116.078 -307.472 1111.155 Q -306.582 1106.232 -306.447 1103.156 Q -306.311 1100.081 -306.405 1098.287 Q -306.498 1096.493 -307.099 1096.162 Q -307.700 1095.832 -309.075 1096.493 Q -310.450 1097.154 -311.091 1100.745 Q -311.731 1104.335 -311.928 1109.060 Q -312.125 1113.785 -312.174 1116.446 Q -312.223 1119.106 -309.828 1121.234 Q -308.983 1121.335 -307.914 1117.794 Q -306.844 1114.253 -306.361 1110.167 Q -305.878 1106.081 -305.825 1103.685 Q -305.772 1101.289 -305.897 1099.640 Q -306.022 1097.991 -306.758 1097.197 Q -307.494 1096.402 -308.362 1096.424 Q -309.230 1096.445 -309.307 1096.437 Q -309.385 1096.429 -310.397 1098.442 Q -311.410 1100.455 -311.839 1105.141 Q -312.268 1109.826 -312.312 1114.055 Q -312.357 1118.284 -311.048 1121.727 Q -309.834 1122.272 -308.395 1116.535 Q -306.957 1110.798 -306.440 1106.722 Q -305.923 1102.646 -305.745 1100.893 Q -305.567 1099.141 -305.813 1098.192 Q -306.059 1097.244 -306.702 1096.937 Q -307.346 1096.629 -307.866 1096.829 Q -308.386 1097.028 -308.512 1096.893 Q -308.639 1096.757 -310.557 1099.275 Q -312.476 1101.793 -313.798 1106.710 Q -315.119 1111.627 -315.679 1116.444 Q -316.239 1121.260 -314.820 1126.344 Q -314.287 1126.728 -312.293 1120.552 Q -310.298 1114.375 -309.193 1109.312 Q -308.088 1104.249 -307.721 1101.115 Q -307.355 1097.982 -308.671 1095.688 Q -312.943 1094.164 -311.152 1122.891 "></path>
    <path id="STROKE_bad21dad-1ba7-43fb-a2fb-60308ac7f3a7" opacity="1.000" fill="none" stroke="#009ef1" stroke-width="2.620" stroke-opacity="1.000" stroke-linecap="round" stroke-linejoin="round" d="M -304.461 1092.766 Q -304.653 1092.517 -305.823 1092.771 Q -306.994 1093.024 -307.488 1093.029 Q -307.982 1093.034 -309.428 1094.337 Q -310.875 1095.641 -312.088 1099.511 Q -313.301 1103.382 -314.347 1106.737 Q -315.393 1110.092 -315.890 1113.253 Q -316.386 1116.415 -316.408 1117.983 Q -316.430 1119.551 -316.234 1120.559 Q -316.039 1121.567 -315.420 1121.610 Q -314.801 1121.652 -313.998 1121.453 Q -313.196 1121.255 -311.155 1118.405 Q -309.114 1115.554 -307.694 1112.306 Q -306.274 1109.058 -305.884 1105.791 Q -305.494 1102.524 -305.501 1100.542 Q -305.508 1098.561 -306.040 1097.239 Q -306.573 1095.917 -307.357 1095.286 Q -308.141 1094.656 -308.963 1094.703 Q -309.785 1094.750 -310.460 1095.114 Q -311.134 1095.478 -311.805 1096.347 Q -312.476 1097.215 -313.568 1101.115 Q -314.659 1105.015 -314.810 1109.668 Q -314.961 1114.321 -314.900 1117.495 Q -314.838 1120.668 -313.205 1122.891 Q -313.018 1123.753 -311.610 1120.330 Q -310.202 1116.908 -309.015 1112.468 Q -307.829 1108.028 -307.059 1105.254 Q -306.289 1102.479 -305.650 1098.524 Q -305.011 1094.569 -304.859 1092.220 Q -304.707 1089.871 -304.806 1088.778 Q -304.905 1087.685 -305.501 1087.678 Q -306.097 1087.671 -306.803 1087.746 Q -307.508 1087.821 -309.204 1090.210 Q -310.900 1092.600 -312.900 1097.642 Q -314.900 1102.684 -314.852 1117.383 Q -313.391 1118.466 -311.805 1114.989 Q -310.218 1111.511 -308.684 1107.561 Q -307.149 1103.612 -306.367 1100.281 Q -305.584 1096.949 -305.353 1094.658 Q -305.122 1092.367 -305.405 1091.005 Q -305.688 1089.644 -306.019 1089.679 Q -306.350 1089.714 -306.880 1089.728 Q -307.411 1089.741 -307.450 1089.836 Q -307.490 1089.931 -308.291 1090.908 Q -309.092 1091.885 -310.622 1094.812 Q -312.152 1097.739 -313.995 1102.518 Q -315.837 1107.296 -315.654 1117.547 Q -314.591 1117.701 -314.664 1117.578 Q -313.400 1116.485 -311.308 1111.789 Q -309.216 1107.094 -308.117 1103.716 Q -307.018 1100.338 -306.885 1097.863 Q -306.752 1095.388 -307.019 1094.190 Q -307.287 1092.992 -308.399 1092.508 Q -309.512 1092.024 -310.330 1092.398 Q -311.149 1092.772 -313.059 1096.574 Q -314.970 1100.376 -315.752 1105.631 Q -316.534 1110.886 -316.617 1114.567 Q -316.700 1118.249 -315.685 1121.094 Q -314.762 1121.980 -312.151 1113.921 Q -309.540 1105.861 -308.549 1101.081 Q -307.557 1096.301 -307.385 1094.233 Q -307.213 1092.165 -307.210 1091.195 Q -307.207 1090.226 -307.225 1089.896 Q -307.244 1089.565 -307.764 1089.285 Q -308.284 1089.004 -308.734 1088.985 Q -309.185 1088.966 -309.042 1089.053 Q -308.898 1089.141 -309.366 1089.105 Q -309.834 1089.070 -311.592 1092.082 Q -313.350 1095.094 -314.347 1100.232 Q -315.343 1105.370 -315.480 1108.075 Q -315.616 1110.780 -315.199 1113.077 Q -314.782 1115.375 -313.962 1115.312 Q -313.142 1115.249 -312.487 1114.434 Q -311.832 1113.619 -309.849 1108.219 Q -307.867 1102.820 -306.505 1096.883 Q -305.142 1090.946 -305.660 1083.805 Q -307.774 1082.981 -309.866 1088.656 Q -311.958 1094.330 -312.720 1097.799 Q -313.482 1101.268 -313.962 1103.457 Q -314.443 1105.647 -313.538 1114.203 Q -312.971 1115.130 -310.941 1110.356 Q -308.911 1105.583 -308.025 1102.749 Q -307.139 1099.916 -306.993 1098.474 Q -306.846 1097.032 -306.767 1096.062 Q -306.687 1095.091 -306.820 1094.625 Q -306.953 1094.159 -306.979 1094.111 Q -307.004 1094.063 -308.395 1094.186 Q -309.787 1094.310 -312.417 1098.510 Q -315.047 1102.712 -317.271 1107.829 Q -319.495 1112.947 -320.031 1119.242 Q -319.096 1119.222 -319.093 1119.109 "></path>
    <path id="STROKE_bbb60ab8-e73e-4d29-ac58-87d046dc0bf5" opacity="1.000" fill="none" stroke="#009ef1" stroke-width="2.720" stroke-opacity="1.000" stroke-linecap="round" stroke-linejoin="round" d="M -310.818 1091.312 Q -311.072 1091.316 -310.810 1090.552 Q -310.547 1089.788 -311.125 1089.168 Q -311.703 1088.549 -312.294 1088.360 Q -312.885 1088.171 -313.474 1088.043 Q -314.064 1087.916 -314.936 1088.502 Q -315.808 1089.087 -316.751 1090.844 Q -317.693 1092.600 -317.447 1101.781 "></path>
  </g>
  <g id="房子" opacity="1.000">
    <path id="STROKE_8b1c7c12-182f-4055-b547-dd65fe4b02da" opacity="1.000" fill="none" stroke="#000000" stroke-width="5.440" stroke-opacity="1.000" stroke-linecap="round" stroke-linejoin="round" d="M -286.911 1046.516 Q -286.911 1046.484 -286.911 1046.391 Q -287.119 1046.589 -286.907 1046.300 Q -286.696 1046.011 -288.143 1047.090 Q -289.590 1048.170 -290.431 1049.050 Q -291.273 1049.929 -291.623 1050.265 Q -291.973 1050.600 -292.458 1051.059 Q -292.942 1051.518 -302.814 1064.562 Q -301.506 1064.358 -301.981 1064.438 L -301.939 1064.438 Q -301.939 1065.139 -301.939 1065.000 Q -301.959 1064.734 -301.908 1066.094 Q -300.418 1066.200 -300.886 1066.156 Q -299.719 1066.156 -299.886 1066.156 Q -299.763 1066.007 -294.622 1066.092 Q -289.480 1066.177 -286.796 1065.952 Q -284.111 1065.726 -282.410 1065.098 Q -280.708 1064.470 -279.922 1063.836 Q -279.137 1063.202 -278.977 1062.862 Q -278.817 1062.523 -278.651 1061.819 Q -278.485 1061.115 -278.472 1060.724 Q -278.459 1060.334 -278.465 1060.196 Q -278.471 1060.059 -278.589 1059.809 Q -278.706 1059.559 -278.851 1059.278 Q -278.995 1058.998 -279.005 1059.049 Q -279.015 1059.101 -278.984 1059.110 Q -278.952 1059.120 -278.946 1059.066 Q -278.939 1059.012 -279.313 1058.880 Q -279.688 1058.748 -280.878 1056.624 Q -282.067 1054.500 -282.461 1053.410 Q -282.854 1052.320 -283.232 1051.612 Q -283.611 1050.903 -283.716 1050.608 Q -283.821 1050.314 -286.390 1046.250 Q -286.192 1046.352 -285.994 1046.453 "></path>
    <path id="STROKE_7f5ddca4-9aaa-4cc3-bc9c-694ea8d60c33" opacity="1.000" fill="none" stroke="#000000" stroke-width="5.440" stroke-opacity="1.000" stroke-linecap="round" stroke-linejoin="round" d="M -293.873 1067.219 Q -293.568 1067.206 -293.677 1067.201 Q -293.786 1067.196 -293.753 1067.187 Q -293.721 1067.177 -293.718 1067.166 Q -293.716 1067.155 -293.921 1067.178 Q -294.127 1067.201 -295.363 1067.648 Q -295.258 1066.900 -295.475 1069.813 Q -295.691 1072.727 -295.669 1074.629 Q -295.646 1076.530 -295.335 1077.746 Q -295.025 1078.962 -294.879 1079.358 Q -294.734 1079.755 -294.717 1079.958 Q -294.700 1080.161 -294.730 1080.004 Q -294.760 1079.846 -293.735 1080.406 Q -292.709 1080.967 -292.747 1080.688 Q -291.670 1080.688 -291.913 1080.688 Q -290.561 1080.669 -290.986 1080.656 Q -292.697 1080.260 -278.209 1078.500 Q -277.486 1078.151 -278.701 1075.108 Q -279.915 1072.066 -280.842 1070.349 Q -281.769 1068.631 -279.428 1064.172 "></path>
    <path id="STROKE_da8959fb-6df9-4083-8947-e809cc54e85b" opacity="1.000" fill="none" stroke="#000000" stroke-width="5.440" stroke-opacity="1.000" stroke-linecap="round" stroke-linejoin="round" d="M -140.777 1076.375 Q -140.482 1076.417 -141.436 1076.366 Q -142.391 1076.315 -143.466 1076.408 Q -144.540 1076.502 -145.167 1077.537 Q -145.794 1078.573 -146.093 1078.950 Q -146.391 1079.327 -147.431 1080.780 Q -148.472 1082.233 -149.371 1083.360 Q -150.270 1084.487 -151.016 1085.423 Q -151.762 1086.360 -154.501 1088.573 Q -157.241 1090.786 -160.057 1093.297 Q -160.270 1093.270 -158.994 1093.359 "></path>
    <path id="STROKE_f4faa630-2f70-4739-8ea8-0cde57181fc8" opacity="1.000" fill="none" stroke="#000000" stroke-width="5.440" stroke-opacity="1.000" stroke-linecap="round" stroke-linejoin="round" d="M -138.005 1077.172 Q -138.702 1077.819 -138.820 1077.869 Q -138.938 1077.920 -139.459 1078.248 Q -139.979 1078.575 -140.152 1078.815 Q -140.325 1079.055 -140.265 1078.883 Q -140.205 1078.710 -140.226 1078.761 Q -140.246 1078.813 -140.223 1078.791 Q -140.200 1078.770 -140.176 1078.792 Q -140.152 1078.814 -140.426 1078.986 Q -140.701 1079.158 -140.418 1080.391 Q -140.135 1081.624 -139.426 1082.978 Q -138.716 1084.332 -137.190 1086.649 Q -135.663 1088.967 -134.287 1090.434 Q -132.911 1091.902 -130.647 1093.500 "></path>
    <path id="STROKE_f98eb547-e8c1-460c-aaa3-0b931d0479cb" opacity="1.000" fill="none" stroke="#000000" stroke-width="5.440" stroke-opacity="1.000" stroke-linecap="round" stroke-linejoin="round" d="M -160.516 1097.609 Q -159.697 1096.542 -159.682 1096.711 Q -158.351 1096.120 -156.818 1094.715 Q -155.285 1093.309 -151.252 1092.432 Q -147.219 1091.554 -142.158 1091.918 Q -137.096 1092.283 -134.356 1092.378 Q -131.615 1092.474 -130.144 1092.230 Q -128.672 1091.985 -127.208 1090.844 "></path>
    <path id="STROKE_156c0c49-0de9-487d-8f16-c509cc8f9f7e" opacity="1.000" fill="none" stroke="#000000" stroke-width="5.440" stroke-opacity="1.000" stroke-linecap="round" stroke-linejoin="round" d="M -152.887 1096.156 Q -152.549 1096.071 -154.492 1096.719 Q -155.028 1097.247 -153.617 1113.328 Q -153.584 1112.954 -153.556 1112.939 Q -153.528 1112.924 -153.621 1112.875 Q -153.714 1112.825 -153.309 1112.396 Q -152.904 1111.966 -152.539 1111.930 Q -152.175 1111.894 -149.815 1111.476 Q -147.455 1111.059 -145.494 1111.025 Q -143.533 1110.991 -141.665 1111.160 Q -139.797 1111.329 -134.149 1108.562 "></path>
    <path id="STROKE_6742a190-98fe-4ca6-b719-2bed1d097380" opacity="1.000" fill="none" stroke="#000000" stroke-width="5.440" stroke-opacity="1.000" stroke-linecap="round" stroke-linejoin="round" d="M -135.212 1095.281 Q -136.680 1095.281 -136.348 1095.281 Q -136.753 1095.157 -138.370 1095.492 Q -139.888 1096.750 -135.483 1110.953 "></path>
  </g>
</svg>