<?xml version="1.0" encoding="UTF-8" standalone="yes"?>
<svg xmlns="http://www.w3.org/2000/svg" xmlns:xlink="http://www.w3.org/1999/xlink" width="548.373pt" height="419.132pt" version="1.1" viewBox="20.693 793.592 548.373 419.132">
  <!--
	Exported with Concepts: Smarter Sketching
	Version: 3759 on iOS 17.7
	https://concepts.app/
	-->
  <title>E50F8D4F-E9B4-46BF-A7C9-636A1C7FBB9D</title>
  <desc>Drawing exported from Concepts: Smarter Sketching</desc>
  <defs></defs>
  <g id="基底" opacity="1.000">
    <path id="STROKE_b91dd07f-799b-4526-8669-131f0bbf8246" opacity="1.000" fill="none" stroke="#f66640" stroke-width="2.720" stroke-opacity="1.000" stroke-linecap="round" stroke-linejoin="round" d="M 41.916 1203.703 Q 41.807 1203.722 47.083 1201.557 Q 52.358 1199.392 58.952 1196.497 Q 65.546 1193.601 69.109 1192.213 Q 72.672 1190.824 78.906 1189.428 Q 85.141 1188.033 100.113 1183.415 Q 115.085 1178.796 122.599 1176.206 Q 130.113 1173.615 133.993 1172.303 Q 137.873 1170.992 140.060 1170.176 Q 142.246 1169.361 145.111 1167.608 Q 147.976 1165.856 152.719 1163.729 Q 157.462 1161.601 162.034 1160.103 Q 166.605 1158.605 175.161 1155.057 Q 183.717 1151.509 189.294 1149.555 Q 194.871 1147.602 199.902 1146.015 Q 204.933 1144.429 207.177 1143.256 Q 209.422 1142.082 213.891 1140.445 Q 218.360 1138.808 225.905 1136.765 Q 233.450 1134.722 236.904 1133.568 Q 240.357 1132.413 243.096 1131.577 Q 245.834 1130.741 247.268 1130.332 Q 248.702 1129.923 253.943 1129.163 Q 259.185 1128.402 262.848 1128.150 Q 266.512 1127.898 269.686 1128.347 Q 272.861 1128.797 275.430 1128.674 Q 277.998 1128.551 283.890 1128.618 Q 289.781 1128.685 293.001 1128.887 Q 296.221 1129.090 297.114 1128.906 Q 298.007 1128.721 300.768 1128.565 Q 303.530 1128.410 306.349 1128.694 Q 309.169 1128.979 311.058 1129.693 Q 312.948 1130.407 315.655 1131.251 Q 318.361 1132.094 323.511 1132.950 Q 328.660 1133.805 334.876 1135.137 Q 341.092 1136.469 345.772 1136.909 Q 350.451 1137.349 354.004 1138.210 Q 357.558 1139.073 360.570 1140.376 Q 363.583 1141.679 365.275 1142.444 Q 366.967 1143.209 371.279 1143.807 Q 375.590 1144.404 379.357 1144.753 Q 383.123 1145.102 385.325 1145.419 Q 387.527 1145.735 388.372 1146.010 Q 389.216 1146.285 392.936 1148.406 Q 396.656 1150.527 401.594 1151.897 Q 406.533 1153.266 409.068 1153.689 Q 411.604 1154.111 413.313 1154.436 Q 415.021 1154.760 417.929 1156.245 Q 420.837 1157.730 424.901 1158.599 Q 428.964 1159.467 433.718 1160.639 Q 438.472 1161.812 443.079 1163.618 Q 447.685 1165.424 454.482 1166.812 Q 461.279 1168.199 465.459 1168.998 Q 469.640 1169.797 477.111 1172.206 Q 484.582 1174.615 492.932 1177.230 Q 501.283 1179.845 505.200 1180.643 Q 509.117 1181.440 511.676 1182.505 Q 514.236 1183.570 516.679 1184.675 Q 519.122 1185.779 522.639 1186.464 Q 526.155 1187.148 528.380 1187.746 Q 530.606 1188.344 532.031 1188.788 Q 533.457 1189.232 534.677 1189.472 Q 535.897 1189.713 536.522 1189.741 Q 537.146 1189.769 537.595 1189.767 Q 538.044 1189.765 537.896 1189.752 Q 537.749 1189.739 538.301 1189.856 Q 538.852 1189.973 540.251 1189.669 Q 541.650 1189.365 542.890 1188.250 "></path>
    <path id="STROKE_962c5530-3d7f-4f3b-837b-8abb329db67e" opacity="1.000" fill="none" stroke="#f66640" stroke-width="2.715" stroke-opacity="1.000" stroke-linecap="round" stroke-linejoin="round" d="M 561.878 1097.469 Q 561.093 1098.242 561.222 1098.008 Q 561.636 1097.974 560.576 1098.042 Q 559.517 1098.110 558.677 1104.065 Q 557.837 1110.021 556.932 1114.482 Q 556.028 1118.943 554.691 1122.164 Q 553.355 1125.386 552.672 1126.697 Q 551.990 1128.009 551.110 1130.703 Q 550.230 1133.398 549.161 1138.889 Q 548.093 1144.380 547.123 1147.749 Q 546.153 1151.118 544.937 1154.881 Q 543.720 1158.645 542.590 1160.913 Q 541.460 1163.182 539.854 1166.321 Q 538.249 1169.459 537.608 1171.055 Q 536.966 1172.651 535.461 1175.882 Q 533.956 1179.113 530.634 1184.859 "></path>
    <path id="STROKE_5a672602-4a51-4cf7-aeb4-8ccbd0f675d5" opacity="1.000" fill="none" stroke="#f66640" stroke-width="2.720" stroke-opacity="1.000" stroke-linecap="round" stroke-linejoin="round" d="M 548.455 929.141 Q 548.380 929.284 546.392 928.672 Q 547.145 929.056 546.996 929.109 Q 547.268 930.086 547.257 930.070 Q 546.836 931.204 548.270 938.535 Q 549.704 945.865 550.924 949.792 Q 552.144 953.720 552.291 955.541 Q 552.437 957.362 552.361 963.757 Q 552.285 970.152 552.583 974.647 Q 552.882 979.141 553.422 989.660 Q 553.963 1000.179 554.618 1010.918 Q 555.273 1021.657 555.488 1026.969 Q 555.704 1032.281 555.674 1034.920 Q 555.643 1037.559 555.346 1040.460 Q 555.048 1043.361 554.978 1045.818 Q 554.908 1048.276 554.747 1050.909 Q 554.585 1053.542 555.309 1057.039 Q 556.032 1060.535 556.636 1065.831 Q 557.240 1071.128 557.073 1073.690 Q 556.906 1076.253 557.397 1081.180 Q 557.887 1086.108 558.211 1089.068 Q 558.535 1092.028 560.440 1100.391 Q 560.273 1100.461 560.107 1100.531 "></path>
    <path id="STROKE_020a6f22-d8c6-45e5-bfc0-2d3c0db19e10" opacity="1.000" fill="none" stroke="#f66640" stroke-width="2.720" stroke-opacity="1.000" stroke-linecap="round" stroke-linejoin="round" d="M 259.543 869.828 Q 259.543 869.797 259.512 869.422 L 259.481 869.422 Q 259.924 870.888 259.856 870.430 Q 259.908 870.703 262.541 873.764 Q 265.174 876.825 267.251 879.875 Q 269.328 882.924 270.465 884.399 Q 271.602 885.874 272.352 887.583 Q 273.102 889.292 273.366 891.552 Q 273.629 893.813 274.952 895.373 Q 276.274 896.933 277.146 899.923 Q 278.017 902.913 278.135 904.884 Q 278.252 906.854 278.644 908.186 Q 279.035 909.518 279.545 911.486 Q 280.055 913.455 280.475 915.218 Q 280.896 916.981 281.037 917.825 Q 281.178 918.669 281.270 919.082 Q 281.363 919.496 281.384 919.618 Q 281.405 919.740 281.422 919.987 Q 281.439 920.235 281.654 921.419 Q 281.869 922.604 281.921 922.991 Q 281.973 923.378 282.226 924.751 Q 282.479 926.125 282.677 926.950 Q 282.875 927.776 282.944 927.977 Q 283.012 928.178 283.163 928.617 Q 283.314 929.055 283.309 929.327 Q 283.304 929.599 283.707 930.436 Q 284.109 931.272 284.941 933.484 Q 285.774 935.695 285.769 937.054 Q 285.765 938.414 285.764 939.504 Q 285.764 940.594 285.764 941.102 Q 285.765 941.610 285.762 941.792 Q 285.760 941.974 285.805 941.828 Q 285.849 941.681 285.346 952.597 Q 284.843 963.513 284.222 973.612 Q 283.600 983.711 283.201 988.510 Q 282.801 993.310 282.846 995.892 Q 282.891 998.475 282.949 1000.832 Q 283.007 1003.189 283.352 1012.815 Q 283.698 1022.442 283.148 1032.632 Q 282.598 1042.821 282.424 1048.505 Q 282.250 1054.190 282.449 1058.250 Q 282.648 1062.311 282.866 1063.843 Q 283.084 1065.375 282.903 1071.179 Q 282.722 1076.982 282.389 1084.181 Q 282.056 1091.379 282.108 1099.052 Q 282.160 1106.724 281.824 1110.452 Q 281.488 1114.179 281.399 1120.805 Q 281.311 1127.432 281.742 1134.172 "></path>
    <path id="STROKE_6c9d61ce-d28e-401b-9aa1-58aa0801c4f0" opacity="1.000" fill="none" stroke="#f66640" stroke-width="2.643" stroke-opacity="1.000" stroke-linecap="round" stroke-linejoin="round" d="M 277.698 821.656 Q 277.333 820.958 276.760 819.938 Q 275.356 819.962 275.812 819.969 Q 274.860 820.552 274.947 820.555 Q 274.031 820.797 270.401 828.689 Q 266.771 836.580 264.711 840.614 Q 262.652 844.648 260.086 849.759 Q 257.519 854.869 255.804 858.545 Q 254.089 862.220 252.332 864.510 Q 250.574 866.799 249.855 867.949 Q 249.135 869.100 248.955 869.650 Q 248.775 870.201 248.811 870.097 Q 248.848 869.992 248.835 870.018 Q 248.821 870.043 248.830 871.750 Q 248.760 871.955 250.143 871.484 "></path>
    <path id="STROKE_6c55458f-e21b-4e2c-b787-34d37b2d3911" opacity="1.000" fill="none" stroke="#f66640" stroke-width="2.720" stroke-opacity="1.000" stroke-linecap="round" stroke-linejoin="round" d="M 284.243 813.156 Q 284.232 813.229 285.663 811.143 Q 287.094 809.058 287.930 807.873 Q 288.766 806.689 289.008 806.336 Q 289.251 805.984 289.230 806.004 Q 289.210 806.025 289.439 805.478 Q 289.668 804.931 289.620 805.000 Q 289.442 804.801 291.726 802.875 Q 290.440 803.858 287.140 806.966 Q 283.840 810.074 282.244 812.200 Q 280.648 814.326 278.989 816.342 Q 277.331 818.358 275.749 820.392 Q 274.166 822.426 273.114 825.024 Q 272.062 827.623 271.216 832.672 "></path>
    <path id="STROKE_7f62bdbc-0483-4603-a67a-5a856d18c18e" opacity="1.000" fill="none" stroke="#f66640" stroke-width="2.720" stroke-opacity="1.000" stroke-linecap="round" stroke-linejoin="round" d="M 297.437 804.266 Q 297.418 803.707 297.452 804.231 Q 297.486 804.756 297.291 801.609 Q 298.422 802.084 298.093 802.047 Q 298.173 802.599 301.019 806.069 Q 303.865 809.539 306.348 811.517 Q 308.831 813.496 310.293 814.516 Q 311.755 815.535 315.785 817.959 Q 319.815 820.383 322.055 821.908 Q 324.295 823.433 325.549 824.219 Q 326.804 825.005 327.996 825.458 Q 329.188 825.910 329.754 826.172 Q 330.319 826.433 330.759 826.651 Q 331.200 826.869 331.265 826.959 Q 331.329 827.050 331.575 826.950 Q 331.821 826.851 333.639 829.164 Q 335.456 831.477 336.558 833.423 Q 337.660 835.369 341.080 836.534 Q 344.499 837.699 346.992 837.753 Q 349.486 837.807 350.439 837.993 Q 351.391 838.178 351.818 838.675 Q 352.244 839.172 352.613 839.641 Q 352.981 840.109 353.007 840.091 Q 353.032 840.073 353.016 840.083 Q 353.000 840.093 354.048 840.625 "></path>
    <path id="STROKE_474950e4-d9be-40c0-9150-abe3b24c61e5" opacity="1.000" fill="none" stroke="#f66640" stroke-width="2.720" stroke-opacity="1.000" stroke-linecap="round" stroke-linejoin="round" d="M 344.168 839.500 Q 344.168 839.531 344.210 839.969 Q 344.432 840.012 344.874 840.654 Q 345.316 841.296 345.177 841.134 Q 345.039 840.971 345.123 841.195 Q 345.207 841.418 345.288 842.011 Q 345.369 842.604 345.508 843.488 Q 345.646 844.372 345.710 844.894 Q 345.775 845.416 345.911 846.027 Q 346.047 846.639 346.003 846.488 Q 345.959 846.337 346.000 846.446 Q 346.041 846.555 346.402 847.757 Q 346.764 848.958 347.121 850.483 Q 347.477 852.008 347.677 852.965 Q 347.876 853.921 348.139 854.854 Q 348.401 855.788 348.598 856.518 Q 348.795 857.248 349.029 858.185 Q 349.263 859.122 350.116 861.293 Q 350.970 863.463 351.937 869.309 Q 352.905 875.154 353.186 878.826 Q 353.467 882.499 353.562 885.589 Q 353.657 888.680 353.674 889.779 Q 353.690 890.878 354.084 892.460 Q 354.478 894.042 354.926 895.118 Q 355.374 896.194 355.822 896.921 Q 356.270 897.649 356.504 897.854 Q 356.738 898.059 357.002 898.211 Q 357.265 898.363 357.946 898.750 "></path>
    <path id="STROKE_f0c5dcbf-0a4b-4e87-a80d-1f3e4043b2cc" opacity="1.000" fill="none" stroke="#f66640" stroke-width="2.720" stroke-opacity="1.000" stroke-linecap="round" stroke-linejoin="round" d="M 354.902 881.500 Q 353.616 882.024 350.338 879.516 Q 350.338 880.207 350.338 880.109 Q 350.136 879.895 350.543 880.475 Q 350.949 881.055 351.051 881.068 Q 351.154 881.082 352.713 882.390 Q 354.272 883.699 354.935 884.367 Q 355.597 885.035 357.398 886.276 Q 359.198 887.517 363.133 889.659 Q 367.068 891.802 369.505 892.772 Q 371.941 893.742 377.034 894.591 Q 382.126 895.441 385.117 895.977 Q 388.108 896.513 389.326 897.159 Q 390.544 897.804 394.715 898.641 Q 398.886 899.479 401.956 899.262 Q 405.025 899.044 409.153 899.307 Q 413.281 899.571 419.380 900.891 Q 425.479 902.211 429.330 902.368 Q 433.182 902.526 436.205 903.133 Q 439.229 903.740 441.690 905.183 Q 444.151 906.626 448.341 908.166 Q 452.530 909.705 457.736 910.186 Q 462.941 910.666 468.107 911.626 Q 473.273 912.587 476.617 913.077 Q 479.960 913.566 481.862 913.459 Q 483.763 913.352 488.641 914.110 Q 493.519 914.867 498.047 917.066 Q 502.576 919.264 504.912 920.592 Q 507.249 921.920 509.489 922.324 Q 511.729 922.729 514.937 923.711 Q 518.145 924.693 519.628 925.399 Q 521.110 926.104 523.993 927.912 Q 526.875 929.721 529.008 930.699 Q 531.141 931.677 532.685 932.158 Q 534.229 932.638 536.037 933.515 Q 537.845 934.393 539.402 934.998 Q 540.959 935.604 543.833 936.298 Q 546.707 936.993 551.561 940.562 "></path>
    <path id="STROKE_913fb388-5e70-4ae0-8c28-5ca5ba44f6e8" opacity="1.000" fill="none" stroke="#f66640" stroke-width="2.720" stroke-opacity="1.000" stroke-linecap="round" stroke-linejoin="round" d="M 193.469 875.672 Q 194.403 874.509 193.983 874.805 Q 193.562 875.101 194.887 874.613 Q 196.211 874.125 197.222 873.960 Q 198.232 873.796 199.074 873.621 Q 199.915 873.446 202.863 873.207 Q 205.811 872.967 208.259 873.154 Q 210.707 873.342 212.096 873.692 Q 213.485 874.042 217.000 874.291 Q 220.516 874.541 225.463 873.539 Q 230.409 872.538 232.765 871.564 Q 235.121 870.590 240.348 870.739 Q 245.574 870.887 248.562 871.125 Q 251.549 871.363 254.744 870.564 Q 257.940 869.766 260.606 869.828 "></path>
    <path id="STROKE_4f306095-ffdd-4b06-b3d4-0be8889bd962" opacity="1.000" fill="none" stroke="#f66640" stroke-width="2.720" stroke-opacity="1.000" stroke-linecap="round" stroke-linejoin="round" d="M 181.755 803.812 Q 180.982 803.812 180.925 803.812 Q 180.869 803.812 180.953 803.812 Q 180.847 803.784 180.057 803.734 Q 179.943 803.084 179.614 807.784 Q 179.285 812.483 180.615 818.714 Q 181.944 824.944 182.861 828.858 Q 183.779 832.773 184.524 834.712 Q 185.270 836.651 185.951 840.864 Q 186.633 845.077 187.304 851.320 Q 187.974 857.563 188.321 861.545 Q 188.668 865.526 188.812 867.484 Q 188.957 869.442 188.968 870.328 Q 188.979 871.214 188.900 870.868 Q 188.821 870.522 188.942 873.913 Q 189.063 877.304 190.822 883.297 "></path>
    <path id="STROKE_baad69a7-3716-451a-b81e-ca5cdcd06de1" opacity="1.000" fill="none" stroke="#f66640" stroke-width="2.720" stroke-opacity="1.000" stroke-linecap="round" stroke-linejoin="round" d="M 133.815 805.406 Q 133.730 805.217 131.231 802.750 Q 131.231 802.781 131.356 803.203 Q 132.093 803.475 131.992 803.406 Q 131.719 803.143 137.110 804.193 Q 142.501 805.243 146.888 805.452 Q 151.275 805.660 156.330 804.301 Q 161.386 802.942 164.414 802.263 Q 167.443 801.584 168.958 801.530 Q 170.472 801.476 171.026 801.611 Q 171.581 801.746 171.952 801.943 Q 172.323 802.139 171.786 801.906 Q 171.249 801.673 176.711 803.875 "></path>
    <path id="STROKE_56ac80f2-6245-4442-b1ac-adc2e37cd723" opacity="1.000" fill="none" stroke="#f66640" stroke-width="2.599" stroke-opacity="1.000" stroke-linecap="round" stroke-linejoin="round" d="M 30.181 905.984 Q 29.759 906.063 29.041 913.507 Q 28.324 920.952 27.952 927.788 Q 27.580 934.625 28.417 941.936 Q 29.254 949.247 29.710 954.710 Q 30.165 960.172 30.078 965.903 Q 29.990 971.635 30.029 975.661 Q 30.068 979.688 30.626 993.449 Q 31.183 1007.210 31.176 1015.229 Q 31.169 1023.249 31.716 1030.690 Q 32.263 1038.132 33.248 1043.967 Q 34.234 1049.802 34.871 1054.796 Q 35.509 1059.791 35.800 1068.006 Q 36.092 1076.222 36.969 1089.278 Q 37.846 1102.334 38.107 1109.323 Q 38.367 1116.312 39.616 1122.767 Q 40.865 1129.221 41.041 1142.873 Q 41.218 1156.525 41.006 1163.541 Q 40.794 1170.558 41.846 1178.957 Q 42.898 1187.357 43.416 1192.562 Q 43.934 1197.766 44.022 1200.220 Q 44.110 1202.673 44.262 1203.839 Q 44.415 1205.005 44.751 1205.500 "></path>
    <path id="STROKE_eca9d0b7-6071-495d-8fa1-6ab3677981c9" opacity="1.000" fill="none" stroke="#f66640" stroke-width="1.978" stroke-opacity="1.000" stroke-linecap="round" stroke-linejoin="round" d="M 36.747 855.828 Q 35.741 855.991 35.945 855.953 Q 35.052 856.337 35.215 856.359 Q 34.712 857.215 34.757 857.219 Q 33.971 860.539 32.658 868.980 Q 31.345 877.420 30.898 882.879 Q 30.450 888.337 30.570 896.523 Q 30.690 904.709 32.099 913.219 "></path>
    <path id="STROKE_829fed07-85f8-4375-92e9-7a013a9ca01e" opacity="1.000" fill="none" stroke="#f66640" stroke-width="2.043" stroke-opacity="1.000" stroke-linecap="round" stroke-linejoin="round" d="M 35.226 830.078 Q 35.246 830.066 33.631 830.109 Q 33.893 829.533 31.953 841.832 Q 30.014 854.130 28.660 872.875 "></path>
    <path id="STROKE_c6fe144d-ea42-4533-a131-1bc8609ea5ba" opacity="1.000" fill="none" stroke="#f66640" stroke-width="2.705" stroke-opacity="1.000" stroke-linecap="round" stroke-linejoin="round" d="M 35.809 835.391 Q 35.778 835.391 35.142 835.391 Q 34.888 835.658 36.845 837.334 Q 38.801 839.011 40.888 840.121 Q 42.975 841.230 46.728 843.350 Q 50.482 845.469 53.325 847.458 Q 56.169 849.448 60.165 850.267 Q 64.161 851.086 68.321 850.470 Q 72.480 849.855 74.632 849.406 Q 76.783 848.957 78.840 848.891 Q 80.896 848.824 82.580 849.448 Q 84.264 850.072 95.609 856.484 "></path>
    <path id="STROKE_c3d84f53-94cf-460f-8867-b32d4c4c6092" opacity="1.000" fill="none" stroke="#f66640" stroke-width="2.255" stroke-opacity="1.000" stroke-linecap="round" stroke-linejoin="round" d="M 125.061 801.094 Q 125.205 801.249 124.928 800.792 Q 124.651 800.336 122.190 804.260 Q 119.729 808.185 117.802 811.348 Q 115.875 814.511 114.245 817.260 Q 112.615 820.010 108.976 826.478 Q 105.337 832.947 103.295 836.458 Q 101.253 839.970 99.195 843.016 Q 97.138 846.063 93.421 852.906 "></path>
    <path id="STROKE_68cc249f-aa9b-42a7-b1f9-0b3aa5b7010a" opacity="1.000" fill="none" stroke="#000000" stroke-width="2.078" stroke-opacity="1.000" stroke-linecap="round" stroke-linejoin="round" d="M 241.222 1081.156 Q 240.565 1081.772 240.742 1081.820 Q 239.850 1083.587 242.234 1090.455 Q 244.618 1097.323 246.627 1101.795 Q 248.636 1106.267 249.977 1109.677 Q 251.318 1113.086 254.863 1119.980 Q 258.409 1126.873 264.191 1137.953 "></path>
    <path id="STROKE_456cc978-c073-4c4e-be4c-52ee88d7afc5" opacity="1.000" fill="none" stroke="#000000" stroke-width="2.720" stroke-opacity="1.000" stroke-linecap="round" stroke-linejoin="round" d="M 167.644 1114.203 Q 167.192 1114.965 166.456 1115.359 L 166.456 1115.391 Q 166.208 1115.851 170.174 1114.853 Q 174.141 1113.856 178.940 1111.921 Q 183.740 1109.986 186.612 1109.157 Q 189.485 1108.329 192.585 1105.010 Q 195.685 1101.692 198.630 1098.747 Q 201.576 1095.802 203.088 1094.736 Q 204.600 1093.671 205.904 1092.411 Q 207.208 1091.151 208.188 1090.421 Q 209.167 1089.691 211.504 1087.879 Q 213.841 1086.066 215.446 1084.722 Q 217.052 1083.378 220.363 1081.999 Q 223.674 1080.619 225.832 1080.329 Q 227.991 1080.038 231.032 1079.092 Q 234.073 1078.146 235.343 1077.549 Q 236.612 1076.953 237.364 1076.720 Q 238.115 1076.488 238.537 1076.426 Q 238.959 1076.365 238.978 1076.417 Q 238.998 1076.468 238.926 1076.412 Q 238.855 1076.356 239.566 1077.311 Q 240.278 1078.267 240.159 1078.102 Q 240.646 1078.766 240.768 1078.929 Q 240.889 1079.092 240.830 1079.048 Q 240.771 1079.004 240.974 1079.090 Q 241.177 1079.176 245.453 1086.000 "></path>
    <path id="STROKE_17fc3eb0-0cdd-4b13-9d2c-ccc9b45f2252" opacity="1.000" fill="none" stroke="#000000" stroke-width="2.720" stroke-opacity="1.000" stroke-linecap="round" stroke-linejoin="round" d="M 209.352 1090.906 Q 209.423 1090.914 208.133 1090.875 Q 208.215 1089.615 208.237 1090.047 Q 208.902 1089.379 208.935 1089.414 Q 209.009 1089.581 210.880 1088.010 Q 212.750 1086.440 217.119 1084.261 Q 221.488 1082.082 224.637 1081.206 Q 227.785 1080.330 229.538 1079.835 Q 231.290 1079.339 233.891 1079.161 Q 236.492 1078.982 237.885 1078.965 Q 239.277 1078.947 239.745 1078.916 Q 240.213 1078.885 240.466 1079.052 Q 240.719 1079.219 240.922 1079.575 Q 241.124 1079.930 241.162 1079.997 Q 241.199 1080.063 241.173 1080.011 Q 241.147 1079.958 241.323 1080.339 Q 241.499 1080.719 241.735 1081.214 Q 241.971 1081.708 242.091 1082.119 Q 242.211 1082.530 242.443 1083.262 Q 242.675 1083.994 242.655 1083.962 Q 242.635 1083.930 242.709 1084.215 Q 242.783 1084.501 242.841 1084.765 Q 242.899 1085.029 242.962 1085.810 Q 243.024 1086.590 243.250 1088.269 Q 243.476 1089.948 245.464 1095.259 Q 247.453 1100.571 248.382 1103.710 Q 249.312 1106.849 251.751 1110.410 Q 254.191 1113.972 258.293 1118.250 "></path>
    <path id="STROKE_624be839-c320-4371-b1c4-c61ea351a1df" opacity="1.000" fill="none" stroke="#000000" stroke-width="2.720" stroke-opacity="1.000" stroke-linecap="round" stroke-linejoin="round" d="M 245.391 1093.422 Q 244.085 1094.109 244.599 1093.891 Q 244.646 1093.183 244.505 1094.555 Q 244.364 1095.927 245.766 1098.815 Q 247.167 1101.702 249.680 1105.803 Q 252.192 1109.904 254.578 1113.473 Q 256.964 1117.043 258.320 1118.738 Q 259.676 1120.434 259.853 1121.338 Q 260.030 1122.242 262.050 1127.377 Q 264.070 1132.512 264.859 1135.218 Q 265.647 1137.923 266.151 1139.380 Q 266.654 1140.837 268.423 1141.266 "></path>
    <path id="STROKE_e4b39f54-0c17-4d46-befe-4a691f15635a" opacity="1.000" fill="none" stroke="#000000" stroke-width="2.720" stroke-opacity="1.000" stroke-linecap="round" stroke-linejoin="round" d="M 238.366 1081.156 Q 238.108 1081.267 237.798 1081.072 Q 237.489 1080.877 236.295 1080.507 Q 235.101 1080.137 234.869 1080.077 Q 234.638 1080.018 234.792 1080.062 Q 233.986 1079.942 223.526 1075.641 "></path>
    <path id="STROKE_c9840988-8c92-4025-a768-2422ead23e06" opacity="1.000" fill="none" stroke="#000000" stroke-width="2.720" stroke-opacity="1.000" stroke-linecap="round" stroke-linejoin="round" d="M 421.643 904.125 Q 420.852 904.190 421.091 904.203 Q 421.002 903.821 420.537 904.903 Q 420.071 905.986 420.098 908.979 Q 420.125 911.972 420.289 913.428 Q 420.453 914.884 421.073 918.816 Q 421.693 922.748 422.514 925.695 Q 423.336 928.643 426.558 934.340 Q 429.780 940.036 431.606 943.468 Q 433.432 946.899 434.153 948.238 Q 434.874 949.577 435.142 950.261 Q 435.411 950.946 436.093 951.568 Q 436.776 952.190 437.383 952.576 Q 437.990 952.963 438.408 953.023 Q 438.826 953.083 439.239 953.352 Q 439.652 953.622 440.111 954.031 "></path>
    <path id="STROKE_9dadd5cd-cfff-4c2e-95b6-88a8c1cf6f20" opacity="1.000" fill="none" stroke="#000000" stroke-width="2.720" stroke-opacity="1.000" stroke-linecap="round" stroke-linejoin="round" d="M 429.460 947.391 Q 429.647 947.424 429.976 947.804 Q 430.305 948.184 430.281 948.146 Q 430.256 948.108 430.145 948.026 Q 430.033 947.944 431.157 949.123 Q 432.280 950.302 434.251 952.406 Q 436.221 954.510 438.271 956.478 Q 440.320 958.446 442.956 960.057 Q 445.592 961.667 447.071 962.562 Q 448.550 963.458 449.365 964.779 Q 450.180 966.101 450.349 967.465 Q 450.518 968.828 450.909 970.546 Q 451.299 972.264 448.388 975.036 Q 445.477 977.807 443.302 979.824 Q 441.127 981.841 439.642 983.122 Q 438.156 984.404 435.985 987.566 Q 433.814 990.728 432.218 992.884 Q 430.622 995.040 426.291 1010.297 "></path>
    <path id="STROKE_aa264fd2-1ca4-4618-ad80-9543f96cee9c" opacity="1.000" fill="none" stroke="#000000" stroke-width="2.720" stroke-opacity="1.000" stroke-linecap="round" stroke-linejoin="round" d="M 426.020 1004.922 Q 425.752 1005.369 426.061 1005.033 Q 426.371 1004.696 424.893 1005.540 Q 423.415 1006.384 421.994 1008.358 Q 420.573 1010.333 419.903 1011.233 Q 419.234 1012.133 418.258 1013.623 Q 417.283 1015.114 416.529 1016.221 Q 415.775 1017.329 414.585 1019.166 Q 413.396 1021.002 412.490 1023.697 Q 411.583 1026.392 410.786 1029.243 Q 409.990 1032.094 409.136 1033.412 Q 408.283 1034.729 407.598 1038.468 Q 406.913 1042.207 407.949 1047.109 "></path>
    <path id="STROKE_9638286a-90a6-459d-a6ae-7fe609765713" opacity="1.000" fill="none" stroke="#000000" stroke-width="2.720" stroke-opacity="1.000" stroke-linecap="round" stroke-linejoin="round" d="M 407.074 1040.547 Q 407.362 1040.399 405.281 1040.906 Q 405.307 1040.874 405.161 1040.824 Q 405.015 1040.773 405.255 1041.088 Q 405.494 1041.403 405.770 1041.662 Q 406.045 1041.921 405.929 1041.819 Q 405.813 1041.718 406.264 1041.850 Q 406.715 1041.983 409.993 1043.903 Q 413.270 1045.823 416.609 1047.243 Q 419.949 1048.663 421.387 1049.022 Q 422.826 1049.381 424.546 1050.473 Q 426.266 1051.564 427.979 1054.608 Q 429.692 1057.651 430.369 1060.201 Q 431.046 1062.751 431.214 1064.459 Q 431.381 1066.168 432.361 1068.730 Q 433.341 1071.292 433.411 1073.725 Q 433.481 1076.158 433.498 1077.312 Q 433.514 1078.466 433.201 1078.802 Q 432.887 1079.138 432.426 1079.438 Q 431.965 1079.738 431.872 1079.806 Q 431.780 1079.874 431.676 1079.938 Q 431.571 1080.001 431.742 1079.812 Q 431.912 1079.624 429.810 1081.407 Q 427.709 1083.191 423.102 1085.859 "></path>
    <path id="STROKE_e4e402bb-cdda-4d5b-aa32-6f7a226ce2e5" opacity="1.000" fill="none" stroke="#000000" stroke-width="2.720" stroke-opacity="1.000" stroke-linecap="round" stroke-linejoin="round" d="M 425.562 1051.297 Q 425.134 1051.297 423.373 1051.297 Q 423.597 1051.383 425.772 1053.434 Q 427.947 1055.484 429.171 1057.619 Q 430.396 1059.755 430.937 1061.386 Q 431.478 1063.017 431.601 1064.258 Q 431.725 1065.499 431.982 1067.667 Q 432.239 1069.834 430.991 1073.125 Q 429.743 1076.416 429.134 1078.153 Q 428.525 1079.890 428.115 1080.418 Q 427.704 1080.946 427.417 1081.271 Q 427.130 1081.595 426.707 1081.995 Q 426.283 1082.395 425.917 1082.732 Q 425.552 1083.069 425.329 1083.440 Q 425.107 1083.811 420.914 1092.766 "></path>
    <path id="STROKE_3e491466-387b-47f1-9ab1-72a4653e49af" opacity="1.000" fill="none" stroke="#000000" stroke-width="2.720" stroke-opacity="1.000" stroke-linecap="round" stroke-linejoin="round" d="M 411.117 1042.344 Q 411.024 1042.859 410.513 1043.102 Q 410.510 1044.004 410.586 1043.797 Q 411.098 1044.223 410.842 1044.056 Q 410.586 1043.889 411.509 1044.582 Q 412.432 1045.275 413.732 1046.107 Q 415.033 1046.939 418.521 1049.893 Q 422.010 1052.846 424.829 1057.083 Q 427.649 1061.318 429.224 1063.704 Q 430.799 1066.089 431.227 1069.618 Q 431.654 1073.146 431.010 1077.771 Q 430.365 1082.395 425.687 1089.312 "></path>
    <path id="STROKE_6fedada0-8f9a-4a2b-86c3-e240be06a1f6" opacity="1.000" fill="none" stroke="#000000" stroke-width="2.720" stroke-opacity="1.000" stroke-linecap="round" stroke-linejoin="round" d="M 436.671 986.797 Q 435.506 986.841 435.879 986.867 Q 435.404 986.821 432.887 989.878 Q 430.371 992.935 429.059 994.477 Q 427.747 996.019 425.795 999.632 Q 423.843 1003.244 422.251 1007.205 Q 420.658 1011.165 419.188 1014.090 Q 417.718 1017.016 416.811 1019.337 Q 415.905 1021.657 415.011 1023.916 Q 414.117 1026.174 413.200 1029.658 Q 412.283 1033.142 412.041 1037.549 Q 411.798 1041.955 411.513 1048.781 "></path>
    <path id="STROKE_0536de3f-c0aa-491f-8455-eb153924cfa3" opacity="1.000" fill="none" stroke="#000000" stroke-width="2.720" stroke-opacity="1.000" stroke-linecap="round" stroke-linejoin="round" d="M 421.977 1091.766 Q 421.325 1091.603 421.219 1091.546 Q 421.114 1091.489 421.153 1091.500 Q 421.161 1091.525 420.583 1091.361 Q 420.006 1091.198 419.451 1091.574 Q 418.895 1091.950 418.462 1092.566 Q 418.029 1093.182 417.992 1093.227 Q 417.955 1093.272 417.844 1093.480 Q 417.732 1093.688 417.337 1094.140 Q 416.941 1094.591 415.532 1096.572 Q 414.122 1098.552 413.134 1100.044 Q 412.146 1101.536 411.681 1102.568 Q 411.216 1103.600 411.076 1103.842 Q 410.936 1104.084 410.553 1105.393 Q 410.170 1106.702 410.131 1106.796 Q 410.092 1106.890 410.119 1106.807 Q 410.146 1106.725 410.156 1106.670 Q 410.167 1106.615 409.838 1107.980 Q 409.509 1109.346 409.352 1110.126 Q 409.194 1110.906 409.260 1111.017 Q 409.325 1111.129 409.208 1110.978 Q 409.091 1110.827 408.622 1115.752 Q 408.154 1120.678 408.942 1127.072 Q 409.729 1133.467 410.545 1137.032 Q 411.360 1140.597 411.714 1142.622 Q 412.068 1144.647 413.053 1148.543 Q 414.037 1152.438 418.809 1158.922 "></path>
    <path id="STROKE_f1a6bb53-31c8-4a82-98ea-e6a0e4d69333" opacity="1.000" fill="none" stroke="#000000" stroke-width="2.720" stroke-opacity="1.000" stroke-linecap="round" stroke-linejoin="round" d="M 417.204 1039.281 Q 417.442 1039.411 417.253 1038.094 Q 417.065 1036.777 416.224 1035.047 "></path>
    <path id="STROKE_128ff3a3-cba6-41aa-bdc1-b0f42f9ecf43" opacity="1.000" fill="none" stroke="#000000" stroke-width="2.720" stroke-opacity="1.000" stroke-linecap="round" stroke-linejoin="round" d="M 413.890 1030.531 L 413.890 1030.500 Q 412.575 1029.895 412.931 1030.062 Q 411.938 1029.699 411.982 1029.734 Q 411.246 1029.478 409.262 1029.336 Q 408.833 1029.338 409.113 1033.415 Q 409.393 1037.492 410.532 1040.414 Q 411.671 1043.336 412.971 1045.220 Q 414.272 1047.104 415.829 1047.725 Q 417.387 1048.345 418.210 1048.241 Q 419.033 1048.138 419.514 1047.660 Q 419.995 1047.182 420.455 1046.516 "></path>
    <path id="STROKE_1853a04d-1444-4943-8667-c916cb1897e5" opacity="1.000" fill="none" stroke="#000000" stroke-width="2.720" stroke-opacity="1.000" stroke-linecap="round" stroke-linejoin="round" d="M 411.242 1038.156 Q 411.274 1039.633 411.284 1039.148 Q 411.159 1039.609 416.349 1046.516 "></path>
    <path id="STROKE_ac004b7c-8f28-49a8-a82f-b7d579826256" opacity="1.000" fill="none" stroke="#000000" stroke-width="2.720" stroke-opacity="1.000" stroke-linecap="round" stroke-linejoin="round" d="M 413.306 1040.484 Q 413.471 1040.234 413.790 1040.051 Q 414.108 1039.867 414.127 1039.885 Q 414.146 1039.904 413.963 1039.950 Q 413.781 1039.997 416.953 1038.410 Q 420.125 1036.823 421.320 1036.278 Q 422.516 1035.734 424.252 1035.330 Q 425.989 1034.927 430.179 1035.092 Q 434.369 1035.257 436.833 1035.481 Q 439.298 1035.705 440.412 1035.666 Q 441.526 1035.627 442.470 1035.630 Q 443.415 1035.634 445.027 1035.732 Q 446.638 1035.830 451.623 1035.891 Q 456.607 1035.951 459.266 1036.054 Q 461.925 1036.158 463.235 1036.260 Q 464.546 1036.361 464.843 1036.359 Q 465.141 1036.357 465.652 1036.364 Q 466.163 1036.371 465.960 1036.384 Q 465.757 1036.397 467.197 1036.338 Q 468.637 1036.278 469.871 1036.626 Q 471.105 1036.973 471.836 1037.550 Q 472.566 1038.127 473.582 1038.322 Q 474.598 1038.517 475.816 1038.688 "></path>
    <path id="STROKE_4cef78b9-e6db-4cf2-87b5-94286529d498" opacity="1.000" fill="none" stroke="#000000" stroke-width="2.720" stroke-opacity="1.000" stroke-linecap="round" stroke-linejoin="round" d="M 472.960 1039.094 Q 473.032 1040.591 473.054 1040.047 Q 474.181 1040.303 474.183 1040.293 Q 474.184 1040.282 474.183 1040.281 Q 474.182 1040.280 474.380 1040.311 Q 474.579 1040.343 475.450 1040.452 Q 476.322 1040.562 477.131 1040.822 Q 477.939 1041.082 478.168 1040.981 Q 478.397 1040.880 481.836 1042.413 Q 485.275 1043.946 490.906 1048.375 "></path>
    <path id="STROKE_13cbb458-d9bb-4b64-ac73-31f8902deb1d" opacity="1.000" fill="none" stroke="#000000" stroke-width="2.720" stroke-opacity="1.000" stroke-linecap="round" stroke-linejoin="round" d="M 498.264 1066.359 Q 497.163 1066.720 496.892 1066.792 Q 496.621 1066.865 496.961 1066.750 Q 496.899 1066.750 496.742 1066.750 Q 496.742 1066.719 496.836 1066.359 Q 497.597 1066.258 498.264 1066.359 Q 497.163 1066.720 496.892 1066.792 Q 496.621 1066.865 496.961 1066.750 Q 496.899 1066.750 496.742 1066.750 Q 496.742 1066.719 496.789 1066.539 Q 496.836 1066.359 496.930 1066.156 "></path>
    <path id="STROKE_3b363e35-06df-4eb0-b42c-6891a6f0ee77" opacity="1.000" fill="none" stroke="#000000" stroke-width="2.720" stroke-opacity="1.000" stroke-linecap="round" stroke-linejoin="round" d="M 497.660 1066.953 Q 497.660 1066.984 497.628 1067.094 Q 497.566 1067.094 497.201 1067.188 L 497.201 1067.219 Q 498.249 1067.401 497.962 1067.359 Q 497.720 1067.292 498.456 1067.470 Q 499.192 1067.649 500.669 1068.149 Q 502.147 1068.650 503.584 1069.381 Q 505.021 1070.111 505.674 1070.536 Q 506.327 1070.961 507.597 1071.884 Q 508.866 1072.807 510.333 1073.733 Q 511.799 1074.659 513.563 1077.591 Q 515.326 1080.523 516.093 1083.033 Q 516.860 1085.543 517.541 1087.331 Q 518.222 1089.118 519.413 1091.994 Q 520.604 1094.871 521.233 1096.443 Q 521.862 1098.015 522.824 1100.951 Q 523.785 1103.888 524.557 1106.928 Q 525.329 1109.969 525.295 1112.548 Q 525.262 1115.126 525.274 1116.356 Q 525.286 1117.587 525.281 1118.057 Q 525.275 1118.527 525.277 1118.961 Q 525.278 1119.394 525.277 1119.128 Q 525.277 1118.862 525.275 1119.370 Q 525.272 1119.878 525.264 1120.474 Q 525.256 1121.070 525.202 1121.591 Q 525.148 1122.111 525.216 1124.159 Q 525.285 1126.207 525.009 1129.345 Q 524.733 1132.484 521.296 1137.750 "></path>
  </g>
  <g id="房子" opacity="1.000">
    <path id="STROKE_0be36224-038b-43a9-bd85-97b3c505a394" opacity="1.000" fill="none" stroke="#000000" stroke-width="5.440" stroke-opacity="1.000" stroke-linecap="round" stroke-linejoin="round" d="M 212.416 1096.344 L 212.416 1096.383 Q 211.633 1095.624 207.939 1101.623 Q 204.245 1107.622 202.136 1110.683 Q 200.027 1113.745 198.664 1115.554 Q 197.301 1117.364 195.054 1120.438 Q 194.687 1120.312 196.212 1118.888 Q 197.737 1117.464 198.731 1117.022 Q 199.724 1116.580 200.438 1116.416 Q 201.152 1116.251 201.616 1116.155 Q 202.079 1116.058 201.764 1116.101 Q 201.448 1116.144 204.663 1115.742 Q 207.878 1115.340 212.522 1114.047 Q 217.167 1112.755 219.573 1111.974 Q 221.979 1111.194 222.925 1110.511 Q 223.870 1109.827 224.200 1109.449 Q 224.529 1109.072 224.441 1109.079 Q 224.353 1109.087 224.409 1109.013 Q 224.465 1108.940 224.562 1109.115 Q 224.660 1109.290 222.393 1107.060 Q 220.125 1104.830 218.672 1102.733 Q 217.218 1100.636 214.984 1098.369 Q 212.749 1096.103 210.415 1094.484 "></path>
    <path id="STROKE_c0fbcee9-7c77-463b-bd82-64272ed807d9" opacity="1.000" fill="none" stroke="#000000" stroke-width="5.440" stroke-opacity="1.000" stroke-linecap="round" stroke-linejoin="round" d="M 205.663 1118.969 Q 204.435 1118.969 204.694 1118.969 Q 203.533 1118.969 203.933 1118.969 Q 203.839 1118.969 203.724 1118.969 Q 202.712 1118.686 206.278 1134.000 Q 207.375 1134.052 207.039 1134.031 Q 208.262 1133.880 207.977 1133.805 Q 208.724 1133.161 208.571 1133.242 Q 208.815 1132.993 208.673 1133.138 Q 208.532 1133.283 209.336 1132.550 Q 210.140 1131.816 210.874 1131.405 Q 211.607 1130.994 212.540 1130.736 Q 213.472 1130.479 213.996 1130.350 Q 214.519 1130.221 215.078 1130.070 Q 215.637 1129.919 216.407 1129.869 Q 217.177 1129.819 219.382 1129.132 Q 221.586 1128.445 222.609 1127.883 Q 223.632 1127.321 224.440 1126.874 Q 225.247 1126.426 225.923 1125.047 Q 224.688 1124.227 225.058 1124.484 Q 224.544 1124.082 221.917 1121.845 Q 219.289 1119.609 219.962 1107.891 "></path>
    <path id="STROKE_bdeb6bbc-5b8f-4ebc-9103-de999ebe6cb1" opacity="1.000" fill="none" stroke="#000000" stroke-width="5.440" stroke-opacity="1.000" stroke-linecap="round" stroke-linejoin="round" d="M 393.296 1029.734 Q 393.296 1028.341 393.296 1028.742 Q 393.296 1027.412 393.296 1027.875 Q 393.345 1027.759 393.376 1027.687 Q 393.406 1027.615 393.411 1027.715 Q 393.417 1027.814 393.023 1027.551 Q 392.628 1027.288 390.663 1029.670 Q 388.698 1032.052 387.609 1033.462 Q 386.520 1034.873 384.481 1037.523 Q 382.443 1040.173 370.389 1049.578 Q 371.499 1049.372 371.119 1049.438 Q 372.189 1049.146 371.848 1049.234 Q 371.177 1049.104 375.718 1048.723 Q 380.260 1048.342 386.076 1048.408 Q 391.893 1048.474 395.022 1048.322 Q 398.152 1048.170 400.808 1047.607 Q 403.463 1047.043 406.740 1045.750 Q 406.740 1045.688 406.740 1045.594 Q 405.319 1045.594 405.688 1045.594 Q 405.469 1045.566 403.364 1045.719 "></path>
    <path id="STROKE_69f3f56d-4681-499e-9fab-91012324b428" opacity="1.000" fill="none" stroke="#000000" stroke-width="5.440" stroke-opacity="1.000" stroke-linecap="round" stroke-linejoin="round" d="M 394.109 1029.141 Q 393.942 1028.994 391.858 1027.672 Q 391.139 1028.868 392.324 1031.920 Q 393.510 1034.971 397.721 1039.456 Q 401.932 1043.941 406.490 1048.312 "></path>
    <path id="STROKE_a8ab4083-8c49-4285-b931-37cc79f45161" opacity="1.000" fill="none" stroke="#000000" stroke-width="5.440" stroke-opacity="1.000" stroke-linecap="round" stroke-linejoin="round" d="M 377.684 1054.344 Q 376.855 1053.424 377.080 1053.688 Q 376.986 1053.555 376.809 1053.094 Q 376.834 1053.625 376.775 1058.271 Q 376.716 1062.916 376.715 1068.156 Q 376.947 1068.352 377.265 1068.132 Q 377.583 1067.912 378.482 1066.825 Q 379.381 1065.738 380.000 1065.228 Q 380.619 1064.719 381.291 1064.502 Q 381.964 1064.285 382.009 1064.284 Q 382.055 1064.283 382.999 1064.177 Q 383.943 1064.071 384.096 1064.099 Q 384.249 1064.127 384.827 1064.074 Q 385.405 1064.021 384.977 1064.032 Q 384.549 1064.043 387.297 1064.158 Q 390.045 1064.273 392.853 1063.816 Q 395.662 1063.360 396.695 1062.912 Q 397.729 1062.463 398.355 1062.225 Q 398.981 1061.986 398.909 1061.991 Q 398.836 1061.996 399.357 1061.846 Q 399.878 1061.696 401.196 1060.188 Q 401.500 1060.206 400.205 1059.604 Q 398.910 1059.002 396.694 1047.781 "></path>
  </g>
</svg>