<?xml version="1.0" encoding="UTF-8" standalone="yes"?>
<svg xmlns="http://www.w3.org/2000/svg" xmlns:xlink="http://www.w3.org/1999/xlink" width="527.923pt" height="263.726pt" version="1.1" viewBox="-480.637 345.841 527.923 263.726">
  <!--
	Exported with Concepts: Smarter Sketching
	Version: 3759 on iOS 17.7
	https://concepts.app/
	-->
  <title>C33B070B-790C-4073-BC5B-822ABCE3DA20</title>
  <desc>Drawing exported from Concepts: Smarter Sketching</desc>
  <defs></defs>
  <g id="钢笔" opacity="1.000">
    <path id="STROKE_0c741798-edad-4ea5-9fd9-b3bcfc3624cc" opacity="1.000" fill="none" stroke="#f66640" stroke-width="2.568" stroke-opacity="1.000" stroke-linecap="round" stroke-linejoin="round" d="M -372.666 367.829 Q -372.709 367.713 -372.541 368.954 Q -371.868 368.954 -373.667 368.954 Q -373.235 369.358 -372.686 369.559 Q -372.137 369.759 -371.476 369.894 Q -370.816 370.029 -371.194 370.153 Q -371.573 370.276 -366.982 370.418 Q -362.391 370.560 -353.378 370.520 Q -344.366 370.480 -337.079 370.941 Q -329.791 371.403 -325.840 371.378 Q -321.888 371.354 -319.803 371.376 Q -317.719 371.398 -308.673 370.573 Q -299.627 369.748 -292.518 369.461 Q -285.408 369.174 -280.343 368.543 Q -275.277 367.911 -271.236 367.076 Q -267.196 366.240 -262.922 365.499 Q -258.649 364.757 -253.553 364.467 Q -248.458 364.177 -240.407 362.861 Q -232.356 361.545 -226.355 360.859 Q -220.353 360.172 -215.071 360.185 Q -209.789 360.197 -205.848 360.096 Q -201.906 359.994 -194.898 359.590 Q -187.890 359.186 -181.942 359.120 Q -175.994 359.055 -158.239 358.895 Q -140.485 358.734 -131.346 358.664 Q -122.206 358.593 -118.144 358.571 Q -114.081 358.549 -111.594 358.157 Q -109.107 357.765 -104.766 357.417 Q -100.424 357.069 -85.170 356.387 Q -69.916 355.705 -60.998 355.369 Q -52.079 355.034 -47.060 355.072 Q -42.042 355.110 -39.554 355.104 Q -37.067 355.097 -34.783 355.106 Q -32.498 355.116 -31.550 355.058 Q -30.602 355.000 -27.621 355.377 Q -24.641 355.755 -21.431 356.028 Q -18.221 356.302 -15.364 356.323 Q -12.507 356.344 -10.822 355.969 Q -9.136 355.594 -4.323 354.741 Q 0.490 353.888 4.018 353.645 Q 7.545 353.402 9.589 353.156 Q 11.632 352.910 13.704 352.875 Q 15.776 352.840 17.243 353.271 Q 18.709 353.702 19.417 353.796 Q 20.125 353.890 21.232 353.949 Q 22.339 354.008 23.354 354.168 Q 24.369 354.329 24.813 354.449 Q 25.257 354.570 25.577 354.581 Q 25.897 354.593 26.333 354.617 Q 26.770 354.641 26.624 354.658 Q 26.478 354.675 26.791 354.580 Q 27.105 354.486 28.596 354.763 Q 30.088 355.040 30.861 355.338 Q 31.635 355.635 31.548 355.643 Q 31.461 355.651 31.480 355.633 Q 31.499 355.616 31.698 355.759 Q 31.897 355.903 32.534 356.346 Q 33.171 356.789 33.300 356.866 Q 33.429 356.944 33.464 356.981 Q 33.499 357.018 33.466 356.979 Q 33.433 356.940 34.069 357.565 Q 34.706 358.190 34.446 357.832 Q 34.187 357.474 34.841 358.408 Q 35.494 359.342 35.879 360.013 Q 36.264 360.685 36.339 361.643 Q 36.415 362.601 36.412 363.645 Q 36.408 364.689 36.408 365.846 Q 36.408 367.002 36.408 367.969 Q 36.409 368.936 36.456 369.115 Q 36.503 369.295 36.340 369.192 Q 36.177 369.088 36.568 373.208 Q 36.958 377.329 38.230 381.973 Q 39.501 386.617 40.039 392.386 Q 40.577 398.155 39.813 403.541 Q 39.050 408.926 38.394 413.431 Q 37.738 417.936 37.514 420.891 Q 37.290 423.845 37.086 430.189 Q 36.883 436.533 36.084 443.168 Q 35.285 449.802 34.810 453.330 Q 34.334 456.857 34.563 460.743 Q 34.792 464.629 34.438 472.968 Q 34.084 481.307 33.693 485.791 Q 33.302 490.275 33.510 497.804 Q 33.717 505.334 33.067 514.705 Q 32.416 524.076 31.789 530.859 Q 31.162 537.642 30.596 543.326 Q 30.030 549.009 30.012 554.113 Q 29.994 559.216 31.123 565.654 Q 32.252 572.091 32.931 577.765 Q 33.610 583.440 32.905 589.547 Q 32.199 595.654 29.197 603.048 "></path>
    <path id="STROKE_806cd8ef-ba6a-4cef-818e-d65255cfdab9" opacity="1.000" fill="none" stroke="#f66640" stroke-width="2.672" stroke-opacity="1.000" stroke-linecap="round" stroke-linejoin="round" d="M -408.288 376.720 Q -408.371 375.574 -408.423 375.790 Q -408.511 375.700 -408.653 374.001 Q -409.183 373.946 -406.170 374.056 Q -403.157 374.166 -396.847 372.539 Q -390.537 370.913 -386.318 369.593 Q -382.099 368.273 -377.511 367.723 Q -372.923 367.174 -370.597 367.100 Q -368.271 367.027 -354.136 371.423 "></path>
    <path id="STROKE_5af43db2-7442-409e-a3e9-1499e2ca66b4" opacity="1.000" fill="none" stroke="#f66640" stroke-width="2.720" stroke-opacity="1.000" stroke-linecap="round" stroke-linejoin="round" d="M -471.464 369.829 Q -471.443 370.001 -471.958 369.703 Q -472.473 369.405 -473.103 368.824 Q -473.733 368.244 -473.618 367.734 Q -473.503 367.225 -473.117 366.878 Q -472.731 366.531 -472.745 366.604 Q -472.758 366.678 -472.824 366.653 Q -472.889 366.629 -471.324 366.634 Q -469.759 366.640 -469.235 366.624 Q -468.711 366.608 -463.177 366.719 Q -457.644 366.830 -453.199 366.901 Q -448.754 366.971 -446.311 367.087 Q -443.869 367.203 -441.292 367.893 Q -438.716 368.583 -437.224 368.797 Q -435.733 369.012 -435.028 369.026 Q -434.323 369.040 -433.688 369.058 Q -433.052 369.075 -431.975 369.019 Q -430.898 368.963 -429.977 368.873 Q -429.055 368.783 -427.279 368.382 Q -425.503 367.980 -422.893 367.911 Q -420.283 367.841 -413.107 367.444 Q -405.930 367.046 -401.118 366.940 Q -396.306 366.834 -394.069 367.161 Q -391.832 367.487 -389.506 367.674 Q -387.180 367.861 -378.357 368.564 "></path>
    <path id="STROKE_cdb2429f-8900-4a6d-a5c3-5376c84afd92" opacity="1.000" fill="none" stroke="#f66640" stroke-width="2.720" stroke-opacity="1.000" stroke-linecap="round" stroke-linejoin="round" d="M -472.131 376.860 Q -471.734 376.882 -469.767 380.966 Q -467.801 385.051 -466.848 387.665 Q -465.895 390.279 -465.386 392.937 Q -464.877 395.595 -465.454 400.579 Q -466.031 405.562 -466.493 409.207 Q -466.955 412.852 -465.748 419.170 Q -464.541 425.489 -463.883 429.337 Q -463.226 433.185 -461.824 435.982 Q -460.422 438.778 -459.982 439.876 Q -459.542 440.975 -457.798 443.865 Q -456.054 446.754 -454.801 448.424 Q -453.548 450.095 -452.625 450.865 Q -451.703 451.635 -451.191 452.087 Q -450.678 452.539 -449.848 453.240 Q -449.018 453.940 -447.848 455.847 Q -446.677 457.753 -445.913 458.797 Q -445.149 459.841 -444.460 460.400 Q -443.771 460.958 -443.024 461.361 Q -442.278 461.765 -442.026 461.898 Q -441.774 462.032 -441.047 462.408 Q -440.319 462.785 -438.490 464.173 "></path>
    <path id="STROKE_f16cde58-0a66-4189-ac66-38b98af4c466" opacity="1.000" fill="none" stroke="#f66640" stroke-width="2.720" stroke-opacity="1.000" stroke-linecap="round" stroke-linejoin="round" d="M -442.721 464.048 Q -443.085 464.281 -442.374 463.986 Q -441.664 463.692 -438.828 465.608 Q -435.993 467.524 -433.866 469.855 Q -431.740 472.187 -430.791 476.770 Q -429.843 481.353 -429.853 484.524 Q -429.862 487.696 -429.300 491.819 Q -428.737 495.941 -428.471 500.352 Q -428.204 504.762 -428.129 507.633 Q -428.054 510.504 -427.342 511.825 Q -426.629 513.146 -426.003 513.808 Q -425.377 514.470 -424.560 514.990 Q -423.743 515.509 -420.669 516.657 "></path>
    <path id="STROKE_cc1392b7-4f4e-4905-8bf4-90862c1be86b" opacity="1.000" fill="none" stroke="#f66640" stroke-width="2.720" stroke-opacity="1.000" stroke-linecap="round" stroke-linejoin="round" d="M -420.210 520.376 Q -419.524 520.376 -419.616 520.376 Q -418.035 520.400 -418.522 520.407 Q -417.720 520.600 -414.430 523.172 Q -411.140 525.743 -408.775 529.499 Q -406.410 533.255 -405.553 535.739 Q -404.696 538.223 -403.266 540.476 Q -401.835 542.729 -400.010 546.931 Q -398.185 551.134 -397.545 553.264 Q -396.906 555.394 -396.352 556.678 Q -395.799 557.962 -393.979 558.627 Q -392.159 559.293 -390.752 560.158 Q -389.345 561.024 -388.299 561.952 Q -387.253 562.880 -386.648 563.489 Q -386.042 564.097 -385.461 564.727 Q -384.880 565.357 -383.475 566.113 Q -382.069 566.870 -380.710 569.355 Q -379.351 571.840 -378.804 573.201 Q -378.258 574.562 -377.696 575.153 Q -377.134 575.744 -376.899 575.941 Q -376.665 576.138 -376.135 576.381 Q -375.605 576.624 -375.197 576.592 Q -374.788 576.560 -374.464 576.649 Q -374.139 576.737 -372.672 576.146 Q -371.205 575.555 -369.290 575.642 "></path>
    <path id="STROKE_092afe9a-0724-4900-b515-a69c5ed5c0e1" opacity="1.000" fill="none" stroke="#f66640" stroke-width="2.720" stroke-opacity="1.000" stroke-linecap="round" stroke-linejoin="round" d="M -377.106 574.454 Q -377.889 574.551 -377.804 574.548 Q -377.924 574.843 -377.943 574.753 Q -377.961 574.662 -378.130 574.882 Q -378.299 575.102 -377.608 575.437 Q -376.916 575.771 -376.284 575.888 Q -375.653 576.005 -372.837 576.205 Q -370.022 576.406 -364.621 576.398 Q -359.220 576.391 -355.710 576.593 Q -352.200 576.795 -348.477 575.440 Q -344.753 574.085 -342.705 573.389 Q -340.658 572.694 -339.350 572.460 Q -338.042 572.226 -337.199 571.966 Q -336.356 571.706 -335.718 571.481 Q -335.079 571.256 -334.628 571.081 Q -334.177 570.905 -333.717 570.742 Q -333.258 570.579 -333.559 570.673 Q -333.860 570.766 -333.259 570.594 Q -332.658 570.422 -331.400 569.833 Q -330.142 569.244 -329.774 568.971 Q -329.406 568.699 -329.117 568.521 Q -328.827 568.343 -328.184 567.873 Q -327.541 567.404 -327.269 567.191 Q -326.996 566.978 -326.371 566.434 Q -325.747 565.889 -325.383 565.525 Q -325.019 565.161 -324.867 565.025 Q -324.715 564.889 -324.814 564.973 Q -324.913 565.057 -324.886 565.029 Q -324.859 565.002 -324.082 564.343 Q -323.306 563.684 -323.371 563.781 Q -323.435 563.879 -323.542 563.891 Q -323.649 563.903 -320.814 562.008 Q -317.979 560.113 -316.101 558.932 Q -314.223 557.752 -312.256 556.482 Q -310.289 555.211 -308.215 554.417 Q -306.141 553.622 -304.404 553.008 Q -302.667 552.393 -300.280 550.984 Q -297.893 549.575 -296.802 548.785 Q -295.711 547.995 -295.112 547.604 Q -294.513 547.212 -294.005 546.877 Q -293.497 546.543 -293.686 546.641 Q -293.875 546.739 -293.422 546.472 Q -292.969 546.206 -292.322 545.882 Q -291.674 545.558 -291.065 545.363 Q -290.457 545.167 -290.566 545.206 Q -290.676 545.245 -290.447 545.127 Q -290.217 545.010 -289.347 544.849 Q -288.477 544.688 -287.462 544.585 Q -286.447 544.481 -285.293 544.338 Q -284.138 544.194 -283.549 544.107 Q -282.960 544.020 -282.256 543.844 Q -281.553 543.667 -279.095 542.739 Q -276.636 541.811 -258.715 541.735 "></path>
    <path id="STROKE_0ac7354e-e5b2-45b8-aa90-24a644b33beb" opacity="1.000" fill="none" stroke="#f66640" stroke-width="2.720" stroke-opacity="1.000" stroke-linecap="round" stroke-linejoin="round" d="M -296.254 554.407 Q -296.819 553.433 -296.587 553.712 Q -296.568 552.381 -296.556 552.759 Q -295.698 551.119 -293.228 549.530 Q -290.759 547.942 -287.927 546.507 Q -285.096 545.072 -283.033 543.961 Q -280.971 542.851 -279.404 541.591 Q -277.836 540.331 -271.831 539.952 Q -265.826 539.573 -262.948 539.640 Q -260.069 539.707 -256.724 539.033 Q -253.379 538.359 -250.886 537.928 Q -248.394 537.497 -247.620 537.463 Q -246.845 537.428 -246.144 537.524 Q -245.444 537.620 -245.618 537.585 Q -245.792 537.550 -244.827 537.969 Q -243.863 538.387 -243.998 538.326 Q -244.132 538.265 -243.854 538.354 Q -243.575 538.442 -243.881 538.449 Q -244.186 538.456 -241.102 538.923 Q -241.102 538.853 -241.039 538.423 "></path>
    <path id="STROKE_6f7ef687-5e3f-4ed4-ad7a-bbbf9ec68302" opacity="1.000" fill="none" stroke="#f66640" stroke-width="2.720" stroke-opacity="1.000" stroke-linecap="round" stroke-linejoin="round" d="M -240.894 539.814 Q -240.890 538.904 -240.862 539.189 Q -241.048 539.152 -240.130 539.088 Q -239.212 539.023 -237.995 539.652 Q -236.778 540.280 -235.375 540.663 Q -233.972 541.045 -233.157 541.227 Q -232.343 541.409 -231.634 541.994 Q -230.925 542.580 -230.778 542.849 Q -230.631 543.119 -229.580 544.182 Q -228.529 545.245 -225.678 546.314 "></path>
    <path id="STROKE_669f7cbe-a3b7-482f-89fe-fbc517f310aa" opacity="1.000" fill="none" stroke="#f66640" stroke-width="2.720" stroke-opacity="1.000" stroke-linecap="round" stroke-linejoin="round" d="M -227.199 546.907 Q -227.231 546.907 -227.595 546.907 Q -227.701 548.337 -227.658 547.876 Q -227.101 549.231 -227.431 548.848 Q -227.761 548.464 -226.730 549.289 Q -225.700 550.115 -224.507 550.833 Q -223.314 551.551 -222.496 552.159 Q -221.679 552.767 -221.128 553.068 Q -220.577 553.369 -220.581 553.283 Q -220.586 553.197 -220.161 553.766 Q -219.735 554.335 -214.229 556.579 Q -208.723 558.823 -195.142 561.376 "></path>
    <path id="STROKE_36a034d9-1318-4602-931a-3eb11118e34b" opacity="1.000" fill="none" stroke="#f66640" stroke-width="2.720" stroke-opacity="1.000" stroke-linecap="round" stroke-linejoin="round" d="M -196.872 560.845 Q -196.872 562.483 -196.872 561.907 Q -196.745 562.057 -196.912 562.005 Q -197.079 561.953 -196.137 562.279 Q -195.195 562.605 -194.925 562.624 Q -194.655 562.642 -192.910 563.064 Q -191.164 563.485 -190.212 563.747 Q -189.260 564.010 -188.560 564.173 Q -187.859 564.336 -187.355 564.459 Q -186.851 564.582 -186.750 564.594 Q -186.649 564.605 -185.973 564.744 Q -185.296 564.882 -184.795 564.949 Q -184.294 565.016 -183.683 565.090 Q -183.072 565.163 -182.640 565.160 Q -182.208 565.156 -181.238 565.157 Q -180.269 565.158 -179.687 565.158 Q -179.105 565.157 -178.714 565.157 Q -178.323 565.157 -178.351 565.156 Q -178.380 565.155 -177.963 565.158 Q -177.547 565.161 -177.520 565.152 Q -177.493 565.142 -177.488 565.210 Q -177.484 565.279 -177.007 565.026 Q -176.530 564.773 -174.189 564.947 Q -171.848 565.121 -167.972 565.870 Q -164.097 566.618 -162.011 566.620 Q -159.926 566.623 -158.939 566.721 Q -157.952 566.818 -153.945 566.435 Q -149.939 566.051 -144.457 566.195 Q -138.975 566.339 -132.993 567.314 Q -127.010 568.288 -122.244 568.949 Q -117.478 569.610 -113.951 570.697 Q -110.425 571.785 -108.828 572.645 Q -107.232 573.506 -103.761 574.452 Q -100.291 575.399 -97.348 575.530 Q -94.404 575.662 -88.860 576.331 Q -83.316 577.001 -79.250 578.134 Q -75.184 579.267 -68.823 581.476 Q -62.463 583.685 -59.669 585.251 Q -56.876 586.816 -45.241 588.602 Q -33.605 590.387 -27.522 591.099 Q -21.438 591.810 -18.507 592.362 Q -15.575 592.914 -14.480 593.316 Q -13.386 593.718 -8.518 595.155 Q -3.650 596.592 -0.577 597.936 Q 2.496 599.279 5.468 599.365 Q 8.439 599.452 11.472 598.886 Q 14.504 598.320 16.919 598.130 Q 19.333 597.940 23.751 597.812 Q 28.170 597.684 32.365 598.798 "></path>
    <path id="STROKE_1cbe4787-3106-4848-98d8-551aaf8a849d" opacity="1.000" fill="none" stroke="#000000" stroke-width="2.720" stroke-opacity="1.000" stroke-linecap="round" stroke-linejoin="round" d="M -369.415 422.704 Q -369.515 422.415 -368.953 423.957 Q -368.392 425.500 -368.245 427.102 Q -368.098 428.704 -369.682 434.585 Q -371.266 440.466 -372.480 445.064 Q -373.694 449.662 -374.777 454.083 Q -375.861 458.504 -377.225 466.531 Q -378.589 474.558 -380.466 481.055 Q -382.343 487.552 -383.700 491.155 Q -385.057 494.757 -385.772 496.811 Q -386.486 498.865 -388.943 505.737 Q -391.399 512.609 -397.491 529.657 "></path>
    <path id="STROKE_ab47ea3f-99f6-472a-84b4-fa89cde300ed" opacity="1.000" fill="none" stroke="#000000" stroke-width="2.663" stroke-opacity="1.000" stroke-linecap="round" stroke-linejoin="round" d="M -386.048 508.501 Q -386.048 508.462 -385.975 507.735 Q -385.795 507.559 -384.316 507.523 Q -382.838 507.487 -379.490 509.016 Q -376.141 510.545 -371.089 514.840 Q -366.038 519.136 -361.140 525.423 "></path>
    <path id="STROKE_760599f6-c1e2-4c29-8125-bbdb677bb9ba" opacity="1.000" fill="none" stroke="#000000" stroke-width="5.440" stroke-opacity="1.000" stroke-linecap="round" stroke-linejoin="round" d="M -347.779 403.798 Q -346.986 403.412 -348.834 404.259 Q -350.682 405.105 -353.279 407.276 Q -355.877 409.447 -360.021 413.959 Q -364.164 418.471 -368.737 422.173 Q -368.894 422.110 -369.019 422.048 "></path>
    <path id="STROKE_082f1713-4b28-4d06-b22b-b3c40dcc614a" opacity="1.000" fill="none" stroke="#000000" stroke-width="5.440" stroke-opacity="1.000" stroke-linecap="round" stroke-linejoin="round" d="M -361.869 417.860 Q -363.103 417.860 -363.099 417.860 Q -364.147 417.968 -363.833 417.850 Q -363.520 417.733 -364.476 417.999 Q -365.432 418.266 -365.486 420.454 Q -363.828 420.454 -364.350 420.454 Q -364.677 420.139 -357.935 419.844 Q -351.192 419.549 -347.447 419.228 Q -343.702 418.906 -341.427 418.508 Q -339.152 418.111 -335.690 417.313 Q -332.227 416.516 -329.895 414.142 "></path>
    <path id="STROKE_b2f8333f-020c-4eaf-9387-aff124b4af2a" opacity="1.000" fill="none" stroke="#000000" stroke-width="5.440" stroke-opacity="1.000" stroke-linecap="round" stroke-linejoin="round" d="M -347.050 397.564 Q -347.812 397.564 -347.769 397.564 Q -349.000 397.968 -348.634 397.860 Q -349.082 398.853 -349.055 398.933 Q -349.028 399.014 -349.018 399.013 Q -349.007 399.013 -349.009 398.922 Q -349.011 398.832 -348.711 399.906 Q -348.411 400.979 -345.684 403.108 Q -342.957 405.238 -340.756 406.366 Q -338.556 407.495 -335.186 408.448 Q -331.815 409.402 -328.374 412.220 "></path>
    <path id="STROKE_a1deb43c-0d82-45c7-8061-6df329b211c4" opacity="1.000" fill="none" stroke="#000000" stroke-width="5.440" stroke-opacity="1.000" stroke-linecap="round" stroke-linejoin="round" d="M -354.470 419.845 Q -354.470 421.368 -354.470 420.946 Q -354.470 422.436 -354.470 421.946 Q -354.469 422.821 -354.501 422.775 Q -354.151 422.114 -354.632 423.444 Q -355.113 424.774 -355.138 426.406 Q -355.163 428.039 -354.585 429.208 Q -354.007 430.376 -353.404 431.393 Q -352.802 432.410 -352.792 432.465 Q -352.783 432.519 -352.448 433.704 Q -352.114 434.889 -351.955 435.983 Q -351.796 437.077 -351.703 437.764 Q -351.610 438.451 -351.637 438.248 Q -351.664 438.044 -351.650 438.031 Q -351.636 438.017 -351.312 440.751 Q -350.920 440.956 -350.520 440.220 Q -349.094 440.220 -349.592 440.220 Q -347.981 440.220 -348.529 440.220 Q -347.150 440.040 -347.539 440.095 Q -346.479 439.905 -346.612 439.954 Q -345.260 439.888 -345.518 439.892 Q -343.872 439.892 -344.298 439.892 Q -344.255 440.177 -340.643 439.532 Q -337.031 438.887 -334.977 438.013 Q -332.923 437.140 -332.153 436.638 Q -331.383 436.137 -331.370 436.145 Q -331.356 436.154 -331.367 436.157 Q -331.379 436.161 -331.356 436.087 Q -331.332 436.014 -331.290 435.751 Q -331.247 435.488 -331.169 435.031 Q -331.090 434.575 -331.146 434.717 Q -331.202 434.860 -331.070 434.520 Q -330.938 434.180 -330.824 432.211 Q -330.710 430.242 -330.885 429.001 Q -331.060 427.759 -331.240 427.108 Q -331.420 426.456 -331.554 426.100 Q -331.689 425.744 -332.417 419.392 "></path>
    <path id="STROKE_eced41fc-68af-40d4-a76b-34d0d872b925" opacity="1.000" fill="none" stroke="#000000" stroke-width="5.440" stroke-opacity="1.000" stroke-linecap="round" stroke-linejoin="round" d="M -379.565 520.439 Q -378.997 520.534 -381.306 520.204 Q -381.681 521.161 -381.608 520.939 Q -382.056 521.700 -382.077 521.634 Q -382.567 522.463 -385.115 524.009 Q -387.664 525.555 -388.650 526.696 Q -389.637 527.836 -390.035 528.546 Q -390.434 529.255 -390.416 529.507 Q -390.397 529.759 -390.488 529.781 Q -390.579 529.803 -390.209 530.370 Q -389.839 530.937 -389.612 531.064 Q -390.147 531.934 -390.018 531.720 Q -390.353 532.285 -390.711 532.635 Q -391.068 532.985 -391.307 533.329 Q -391.546 533.672 -391.535 533.706 Q -391.524 533.740 -391.536 533.668 Q -391.549 533.596 -391.531 533.670 Q -391.514 533.744 -391.538 533.759 Q -391.562 533.774 -391.611 533.814 Q -391.660 533.853 -392.009 535.337 Q -392.672 535.283 -386.486 535.363 Q -380.301 535.443 -376.409 535.676 Q -372.517 535.908 -367.768 533.814 Q -368.993 532.854 -368.633 533.212 Q -368.139 533.688 -369.386 533.200 Q -370.634 532.712 -371.300 532.442 Q -371.966 532.172 -372.621 531.301 Q -373.275 530.430 -373.626 529.838 Q -373.976 529.246 -374.198 528.802 Q -374.420 528.358 -374.488 528.293 Q -374.556 528.227 -374.567 528.130 Q -374.578 528.032 -375.389 526.406 Q -376.200 524.780 -377.010 523.905 Q -377.821 523.029 -378.186 522.880 Q -378.552 522.732 -378.435 522.803 Q -378.318 522.874 -378.596 522.710 Q -378.874 522.546 -379.285 522.254 Q -379.695 521.963 -379.685 521.971 Q -379.674 521.979 -379.759 521.868 Q -379.844 521.757 -379.739 522.014 Q -379.634 522.271 -380.608 520.235 Q -380.721 521.033 -380.754 521.032 "></path>
    <path id="STROKE_3e91be23-3e72-4baa-a010-ac8074d351fd" opacity="1.000" fill="none" stroke="#000000" stroke-width="5.440" stroke-opacity="1.000" stroke-linecap="round" stroke-linejoin="round" d="M -389.487 541.407 Q -389.588 541.295 -390.946 539.689 Q -390.725 539.877 -391.166 545.048 Q -391.607 550.218 -391.373 555.345 Q -390.344 555.274 -390.269 555.278 Q -390.194 555.281 -390.310 555.142 Q -389.468 554.424 -389.654 554.610 Q -388.459 553.843 -388.434 553.985 Q -387.629 553.759 -387.674 553.782 Q -385.507 553.156 -381.343 552.288 Q -377.179 551.420 -371.207 550.767 Q -371.191 549.671 -371.238 550.032 Q -371.113 549.256 -373.792 535.376 Q -373.284 535.224 -373.208 535.110 "></path>
    <path id="STROKE_a6b796f9-27d3-4b35-8263-24d16d8fd832" opacity="1.000" fill="none" stroke="#009ef1" stroke-width="5.440" stroke-opacity="1.000" stroke-linecap="round" stroke-linejoin="round" d="M -399.554 385.017 Q -399.586 385.017 -399.742 385.017 Q -400.490 384.957 -397.397 385.189 Q -396.788 386.533 -397.001 386.079 Q -396.494 387.543 -396.667 387.071 Q -396.290 386.841 -396.329 389.575 Q -396.368 392.308 -396.851 393.790 Q -397.334 395.272 -397.759 396.468 Q -398.183 397.665 -399.106 400.985 Q -400.030 404.305 -400.504 406.444 Q -400.979 408.582 -401.446 410.002 Q -401.913 411.421 -402.287 412.400 Q -402.662 413.379 -402.867 413.870 Q -403.073 414.361 -403.192 414.665 Q -403.310 414.968 -403.354 414.820 Q -403.397 414.672 -406.005 421.243 Q -405.295 421.905 -405.443 421.743 Q -404.727 422.794 -404.757 422.790 Q -404.787 422.787 -404.817 422.743 Q -404.983 421.887 -404.255 424.993 Q -403.147 425.051 -403.397 425.082 Q -403.648 425.112 -401.971 425.145 Q -400.295 425.178 -399.281 424.727 Q -398.266 424.277 -397.696 423.963 Q -397.127 423.650 -396.569 423.290 Q -396.012 422.930 -395.474 422.488 Q -394.936 422.046 -385.839 415.275 Q -386.115 415.863 -386.057 412.952 Q -385.999 410.040 -386.020 408.606 Q -386.041 407.171 -386.413 406.270 Q -386.784 405.368 -386.891 405.152 Q -386.998 404.935 -387.233 404.595 Q -387.469 404.255 -388.887 401.118 Q -390.306 397.980 -391.237 396.180 Q -392.169 394.381 -394.000 392.999 Q -395.832 391.617 -396.658 390.616 Q -397.484 389.615 -397.944 388.503 Q -398.405 387.391 -399.113 386.100 Q -399.821 384.810 -399.449 385.278 Q -399.077 385.746 -401.597 382.564 Q -401.534 382.564 -400.742 382.564 "></path>
    <path id="STROKE_b8674d1c-bb1d-4a10-bc7c-0de470be214f" opacity="1.000" fill="none" stroke="#009ef1" stroke-width="5.440" stroke-opacity="1.000" stroke-linecap="round" stroke-linejoin="round" d="M -312.158 554.282 Q -311.997 554.344 -313.725 552.464 Q -315.452 550.584 -316.295 548.169 Q -317.137 545.754 -317.855 541.608 Q -318.573 537.462 -319.621 533.545 Q -320.669 529.628 -321.339 527.201 Q -322.009 524.773 -322.791 520.819 Q -323.573 516.865 -324.154 510.411 Q -324.735 503.957 -324.306 497.096 Q -323.878 490.235 -323.714 487.159 Q -323.551 484.082 -323.775 480.900 Q -324.000 477.718 -323.389 474.004 Q -322.777 470.290 -321.623 467.761 Q -320.470 465.232 -319.759 464.139 Q -319.048 463.046 -318.771 462.558 Q -318.493 462.070 -318.130 461.349 Q -317.766 460.628 -317.615 460.284 Q -317.464 459.939 -317.377 459.801 Q -317.290 459.662 -317.332 459.802 Q -317.373 459.943 -317.420 459.622 Q -317.466 459.300 -316.321 458.105 Q -315.176 456.909 -314.359 456.230 Q -313.542 455.552 -312.506 454.908 Q -311.470 454.264 -309.427 452.892 "></path>
    <path id="STROKE_4eac7ac2-86a4-4ba9-8bce-30d8c692d6dc" opacity="1.000" fill="none" stroke="#009ef1" stroke-width="5.440" stroke-opacity="1.000" stroke-linecap="round" stroke-linejoin="round" d="M -320.224 467.751 Q -320.518 467.927 -320.808 467.550 Q -321.099 467.174 -321.167 467.060 Q -321.235 466.946 -320.893 466.464 Q -320.551 465.983 -320.357 465.795 Q -320.163 465.606 -319.623 464.950 Q -319.084 464.294 -317.947 462.554 Q -316.810 460.815 -313.993 455.722 Q -311.176 450.629 -309.307 447.827 Q -307.439 445.025 -305.995 443.464 Q -304.551 441.903 -299.858 437.939 Q -295.164 433.975 -290.914 431.029 Q -286.664 428.084 -284.315 426.929 Q -281.966 425.775 -280.112 424.607 Q -278.258 423.438 -269.022 419.871 Q -259.786 416.304 -254.886 414.347 Q -249.986 412.390 -246.283 411.312 Q -242.579 410.235 -238.646 409.369 Q -234.713 408.502 -230.442 406.816 Q -226.170 405.129 -223.936 404.333 Q -221.701 403.538 -218.046 403.014 Q -214.391 402.490 -210.781 401.611 Q -207.172 400.732 -202.412 399.688 Q -197.653 398.645 -194.102 397.965 Q -190.550 397.284 -184.648 396.299 Q -178.746 395.314 -174.274 395.205 Q -169.802 395.095 -167.533 395.191 Q -165.264 395.286 -159.235 393.949 Q -153.206 392.612 -146.094 392.231 Q -138.982 391.850 -135.331 391.595 Q -131.680 391.339 -129.736 390.900 Q -127.792 390.461 -123.241 389.908 Q -118.690 389.355 -110.062 389.170 Q -101.435 388.986 -96.135 389.116 Q -90.835 389.246 -87.539 389.866 Q -84.244 390.486 -79.283 390.784 Q -74.322 391.082 -63.928 391.139 Q -53.534 391.197 -47.951 391.193 Q -42.368 391.188 -39.813 391.108 Q -37.259 391.028 -33.851 391.501 Q -30.443 391.974 -24.836 393.093 Q -19.229 394.213 -14.663 394.955 Q -10.097 395.698 -2.873 395.558 Q 4.351 395.418 11.035 395.760 Q 17.719 396.103 29.259 399.814 "></path>
    <path id="STROKE_c728c327-15a9-4370-80f3-7ed67983e4c5" opacity="1.000" fill="none" stroke="#000000" stroke-width="5.440" stroke-opacity="1.000" stroke-linecap="round" stroke-linejoin="round" d="M -79.398 408.110 Q -78.968 408.171 -79.762 408.151 Q -80.555 408.131 -81.361 408.846 Q -82.167 409.562 -82.544 410.227 Q -82.920 410.893 -83.419 411.362 Q -83.919 411.830 -83.950 411.993 Q -83.982 412.155 -89.275 415.941 Q -94.568 419.727 -102.055 428.610 Q -101.827 428.828 -100.541 428.204 Q -99.255 427.580 -97.896 427.349 Q -96.538 427.117 -95.609 427.131 Q -94.680 427.144 -94.009 427.139 Q -93.337 427.133 -89.607 427.334 Q -85.878 427.536 -82.206 427.553 Q -78.534 427.571 -74.121 426.504 Q -69.709 425.437 -62.515 421.814 Q -63.074 420.179 -62.911 420.743 Q -63.004 420.446 -63.708 419.571 Q -64.413 418.697 -65.144 418.124 Q -65.875 417.551 -66.534 416.929 Q -67.194 416.308 -67.257 416.276 Q -67.321 416.245 -67.998 415.371 Q -68.674 414.497 -69.971 410.925 Q -71.267 407.353 -72.585 405.062 Q -73.904 402.772 -74.605 401.872 Q -75.306 400.972 -76.086 400.539 Q -76.865 400.105 -77.524 400.181 Q -78.183 400.257 -78.752 403.204 "></path>
    <path id="STROKE_5922f6cd-d451-474a-9b67-2f6c70f34aca" opacity="1.000" fill="none" stroke="#000000" stroke-width="5.440" stroke-opacity="1.000" stroke-linecap="round" stroke-linejoin="round" d="M -90.258 430.939 Q -90.309 431.796 -90.362 431.634 Q -90.256 430.699 -91.267 435.989 Q -92.278 441.278 -92.734 444.005 Q -93.190 446.732 -93.459 448.063 Q -93.727 449.394 -93.905 450.314 Q -93.644 450.282 -91.586 449.337 Q -89.529 448.392 -86.393 447.953 Q -83.256 447.513 -80.516 447.355 Q -77.776 447.197 -74.702 446.890 Q -71.628 446.583 -69.984 445.574 Q -68.340 444.566 -67.823 443.950 Q -67.305 443.334 -67.007 442.142 Q -66.708 440.949 -66.737 440.340 Q -66.766 439.731 -66.798 439.324 Q -66.830 438.918 -67.856 435.410 Q -68.882 431.903 -71.519 427.282 "></path>
    <path id="STROKE_d924a9d8-a764-44d8-af30-17a528329b8c" opacity="1.000" fill="none" stroke="#000000" stroke-width="5.440" stroke-opacity="1.000" stroke-linecap="round" stroke-linejoin="round" d="M -93.634 519.439 Q -92.923 519.312 -95.541 519.812 Q -98.160 520.312 -101.078 523.775 Q -103.997 527.239 -112.914 532.907 Q -114.239 533.389 -109.271 532.415 Q -104.303 531.441 -101.381 530.893 Q -98.458 530.346 -96.998 530.238 Q -95.538 530.130 -92.443 530.019 Q -89.349 529.909 -87.215 529.714 Q -85.081 529.519 -83.448 528.883 Q -81.816 528.246 -81.444 527.681 Q -81.072 527.115 -81.159 526.702 Q -81.246 526.289 -81.433 525.967 Q -81.621 525.644 -81.694 525.624 Q -81.766 525.605 -81.734 525.629 Q -81.703 525.654 -82.120 525.257 Q -82.537 524.860 -82.464 524.923 Q -82.391 524.987 -83.089 524.365 Q -83.787 523.744 -83.671 523.853 Q -84.487 523.281 -84.369 523.360 Q -84.432 523.288 -86.141 522.254 Q -87.851 521.220 -89.192 520.626 Q -90.532 520.032 -91.988 519.251 "></path>
    <path id="STROKE_833327c1-23c0-49e0-8255-041d79e7351a" opacity="1.000" fill="none" stroke="#000000" stroke-width="5.440" stroke-opacity="1.000" stroke-linecap="round" stroke-linejoin="round" d="M -103.639 536.564 Q -105.265 536.564 -105.202 536.564 Q -107.979 536.435 -107.443 550.064 Q -106.010 550.323 -106.505 550.283 Q -107.001 550.242 -104.986 550.305 Q -102.971 550.368 -101.315 550.267 Q -99.658 550.166 -99.125 549.984 Q -98.592 549.802 -98.232 549.645 Q -97.872 549.488 -94.892 549.266 Q -91.912 549.043 -90.011 548.979 Q -88.110 548.915 -86.910 548.361 Q -85.710 547.807 -85.044 547.277 Q -84.378 546.748 -84.145 546.221 Q -83.912 545.695 -83.894 545.584 Q -83.876 545.473 -83.816 545.158 Q -83.757 544.844 -83.771 544.865 Q -83.785 544.885 -83.795 544.808 Q -83.804 544.731 -83.692 542.699 Q -83.579 540.668 -85.568 527.876 "></path>
  </g>
</svg>