<?xml version="1.0" encoding="UTF-8" standalone="yes"?>
<svg xmlns="http://www.w3.org/2000/svg" xmlns:xlink="http://www.w3.org/1999/xlink" width="295.597pt" height="520.705pt" version="1.1" viewBox="96.120 332.151 295.597 520.705">
  <!--
	Exported with Concepts: Smarter Sketching
	Version: 3759 on iOS 17.7
	https://concepts.app/
	-->
  <title>0AEDA27D-28BC-4242-88EF-23EDC893A395</title>
  <desc>Drawing exported from Concepts: Smarter Sketching</desc>
  <defs></defs>
  <g id="房子" opacity="1.000">
    <path id="STROKE_0f9b78a5-0b75-496f-bb9b-0ab4599262c5" opacity="1.000" fill="none" stroke="#000000" stroke-width="2.720" stroke-opacity="1.000" stroke-linecap="round" stroke-linejoin="round" d="M 216.439 536.484 Q 216.211 536.485 216.127 536.468 Q 216.044 536.451 215.624 536.517 Q 215.204 536.583 214.901 536.728 Q 214.597 536.874 214.614 536.904 Q 214.630 536.933 214.833 536.945 Q 215.036 536.956 212.070 539.394 Q 209.103 541.832 207.671 543.122 Q 206.238 544.411 205.421 545.448 Q 204.603 546.484 204.850 547.828 Q 203.903 547.931 203.828 547.937 Q 203.754 547.943 203.902 547.953 Q 202.914 548.520 203.172 548.391 Q 203.002 548.487 202.870 548.922 Q 202.326 548.759 206.436 548.890 Q 210.547 549.020 212.939 549.360 Q 215.331 549.700 219.208 549.906 Q 223.086 550.113 226.444 549.016 Q 226.175 548.722 226.474 549.067 Q 226.772 549.413 226.041 548.063 Q 225.311 546.713 223.832 544.940 Q 222.353 543.166 221.771 542.442 Q 221.189 541.718 221.001 541.245 Q 220.813 540.771 215.793 537.906 Q 215.907 536.781 216.022 536.977 Q 216.675 535.827 216.918 535.422 "></path>
    <path id="STROKE_d96d5b58-195e-41c5-886c-de0b6d13415a" opacity="1.000" fill="none" stroke="#000000" stroke-width="2.720" stroke-opacity="1.000" stroke-linecap="round" stroke-linejoin="round" d="M 209.769 553.000 Q 208.609 552.674 208.998 552.797 Q 208.925 552.797 208.737 552.797 Q 208.581 554.115 208.409 555.002 Q 208.238 555.890 208.186 557.669 Q 208.133 559.447 208.109 560.183 Q 208.085 560.919 208.437 561.982 Q 208.789 563.044 209.010 563.639 Q 209.231 564.234 209.187 564.147 Q 209.143 564.060 209.168 563.915 Q 209.193 563.770 209.102 564.750 Q 209.071 564.750 208.956 564.781 L 208.956 564.812 Q 208.925 564.812 208.894 564.812 Q 208.299 564.945 210.441 564.828 Q 212.582 564.711 213.994 564.792 Q 215.407 564.873 216.657 565.256 Q 217.907 565.640 218.478 565.813 Q 219.049 565.985 219.595 566.072 Q 220.140 566.159 220.138 566.153 Q 220.135 566.147 220.051 566.084 Q 219.968 566.021 220.954 566.282 Q 221.940 566.543 222.879 566.294 Q 223.817 566.044 224.442 565.575 Q 225.067 565.106 224.986 565.135 Q 224.906 565.164 225.187 564.739 Q 225.468 564.315 225.602 563.956 Q 225.736 563.598 225.693 563.755 Q 225.650 563.912 225.818 563.728 Q 225.985 563.544 225.475 561.496 Q 224.965 559.447 224.948 558.008 Q 224.930 556.569 224.923 555.237 Q 224.915 553.904 224.914 553.691 Q 224.914 553.478 224.781 553.004 Q 224.648 552.530 224.432 552.051 Q 224.216 551.573 224.260 551.695 Q 224.304 551.818 224.421 551.849 Q 224.538 551.880 223.526 551.203 "></path>
    <path id="STROKE_35349784-f22d-487f-a99e-81b59a47a84d" opacity="1.000" fill="none" stroke="#000000" stroke-width="2.720" stroke-opacity="1.000" stroke-linecap="round" stroke-linejoin="round" d="M 192.865 624.797 Q 192.945 624.739 192.893 625.038 Q 192.841 625.337 192.208 626.177 Q 191.574 627.016 191.102 627.361 Q 190.630 627.705 190.148 628.161 Q 189.667 628.617 185.500 632.089 Q 181.333 635.561 176.128 640.922 Q 177.483 640.922 177.243 640.922 Q 178.025 640.670 180.085 639.873 Q 182.144 639.076 185.077 639.062 Q 188.010 639.048 190.284 639.076 Q 192.557 639.104 193.975 638.808 Q 195.393 638.513 196.002 638.162 Q 196.611 637.812 197.136 637.169 Q 197.661 636.526 197.954 636.006 Q 198.247 635.486 198.358 635.152 Q 198.469 634.818 198.357 634.962 Q 198.244 635.107 198.715 634.554 Q 199.186 634.001 198.327 632.768 Q 197.468 631.535 196.932 631.109 Q 196.395 630.683 196.101 630.364 Q 195.806 630.045 195.475 629.677 Q 195.145 629.308 195.152 629.340 Q 195.160 629.372 195.065 629.271 Q 194.971 629.170 194.718 628.828 Q 194.465 628.487 194.162 628.059 Q 193.859 627.631 193.608 627.263 Q 193.357 626.895 193.063 626.336 Q 192.768 625.777 192.740 625.908 Q 192.713 626.038 191.948 623.391 "></path>
    <path id="STROKE_bf7d133d-bd52-4909-8915-882b711e1e06" opacity="1.000" fill="none" stroke="#000000" stroke-width="2.720" stroke-opacity="1.000" stroke-linecap="round" stroke-linejoin="round" d="M 186.112 641.047 Q 186.281 640.885 184.434 641.383 Q 184.381 642.436 184.402 642.242 Q 184.402 643.309 184.402 643.133 Q 184.390 644.491 184.371 644.266 Q 184.648 644.395 183.506 648.924 Q 182.363 653.453 182.308 658.891 Q 182.943 659.135 183.139 658.903 Q 183.335 658.671 184.402 657.898 Q 185.469 657.126 186.608 656.720 Q 187.748 656.314 188.626 656.252 Q 189.503 656.190 189.988 656.175 Q 190.472 656.160 190.392 656.127 Q 190.311 656.093 190.526 656.134 Q 190.742 656.175 193.251 656.035 Q 195.761 655.895 196.970 655.491 Q 198.179 655.088 198.717 654.614 Q 199.254 654.139 199.402 653.681 Q 199.551 653.223 199.615 653.082 Q 199.679 652.941 199.639 652.867 Q 199.600 652.794 199.623 652.916 Q 199.646 653.039 199.721 652.470 Q 199.795 651.900 198.975 649.798 Q 198.156 647.696 197.661 645.572 Q 197.167 643.449 197.002 642.340 Q 196.837 641.232 196.768 640.894 Q 196.699 640.556 196.658 640.367 Q 196.616 640.178 196.629 639.659 Q 196.641 639.140 196.179 638.062 "></path>
  </g>
  <g id="基底" opacity="1.000">
    <path id="STROKE_68ebeb51-4a40-448f-be12-bfbaddb6abdd" opacity="1.000" fill="none" stroke="#f66640" stroke-width="2.720" stroke-opacity="1.000" stroke-linecap="round" stroke-linejoin="round" d="M 178.108 394.281 Q 177.962 395.517 176.395 397.017 Q 174.828 398.517 173.929 399.740 Q 173.031 400.962 172.615 401.787 Q 172.199 402.612 172.184 402.772 Q 172.169 402.933 172.150 402.827 Q 172.130 402.721 171.901 403.580 Q 171.673 404.439 171.541 407.416 Q 171.409 410.393 171.181 412.920 Q 170.953 415.448 170.857 416.632 Q 170.760 417.815 170.700 418.452 Q 170.640 419.090 170.550 419.787 Q 170.460 420.484 170.405 420.917 Q 170.350 421.349 170.223 421.809 Q 170.097 422.269 170.213 422.547 Q 170.329 422.825 168.411 429.111 Q 166.494 435.397 165.035 439.581 Q 163.577 443.765 162.755 448.272 Q 161.932 452.779 160.746 456.030 Q 159.559 459.280 158.787 462.230 Q 158.014 465.179 157.017 468.717 Q 156.020 472.254 155.984 475.956 Q 155.948 479.658 155.373 482.903 Q 154.797 486.148 154.288 487.637 Q 153.778 489.126 153.148 490.376 Q 152.517 491.626 151.320 495.426 Q 150.123 499.225 149.040 501.994 Q 147.956 504.763 147.238 505.575 Q 146.521 506.387 146.355 506.732 Q 146.190 507.077 145.195 508.835 Q 144.201 510.594 143.642 511.591 Q 143.084 512.589 142.794 513.019 Q 142.505 513.448 142.413 513.571 Q 142.322 513.694 141.776 514.456 Q 141.229 515.218 140.948 515.524 Q 140.667 515.830 138.589 518.819 Q 136.510 521.809 134.019 524.861 Q 131.529 527.912 129.915 529.635 Q 128.301 531.357 127.621 532.137 Q 126.941 532.917 126.056 534.042 Q 125.172 535.167 123.496 536.796 Q 121.820 538.424 120.761 539.263 Q 119.701 540.101 116.956 542.489 Q 114.212 544.877 113.113 546.062 Q 112.014 547.247 110.981 548.233 Q 109.949 549.219 109.439 549.720 Q 108.930 550.220 108.496 550.641 Q 108.062 551.063 107.983 551.145 Q 107.903 551.227 107.553 551.627 Q 107.203 552.026 106.665 552.675 Q 106.128 553.323 105.564 554.076 Q 105.001 554.830 104.553 555.875 Q 104.105 556.921 103.918 557.855 Q 103.731 558.788 103.648 559.360 Q 103.565 559.931 103.509 560.444 Q 103.453 560.956 103.440 561.088 Q 103.427 561.219 103.200 563.711 Q 102.973 566.202 103.189 569.701 Q 103.404 573.200 103.903 576.139 Q 104.403 579.078 104.616 582.414 Q 104.830 585.751 105.047 587.591 Q 105.263 589.431 105.331 591.343 Q 105.398 593.255 106.917 599.051 Q 108.437 604.848 109.698 608.037 Q 110.958 611.225 110.901 611.998 Q 110.844 612.770 111.301 615.133 Q 111.757 617.496 112.393 619.635 Q 113.029 621.775 113.271 622.229 Q 113.512 622.683 114.309 626.187 Q 115.106 629.691 115.567 632.546 Q 116.029 635.401 115.933 638.196 Q 115.837 640.991 115.915 642.265 Q 115.994 643.540 115.693 644.885 Q 115.391 646.230 115.203 646.976 Q 115.015 647.722 115.057 647.884 Q 115.099 648.047 115.085 647.937 Q 115.071 647.827 115.098 647.868 Q 115.124 647.908 115.057 648.150 Q 114.990 648.391 115.022 649.620 Q 115.054 650.848 115.218 651.416 Q 115.382 651.984 115.430 652.559 Q 115.479 653.134 115.476 653.094 Q 115.473 653.055 115.473 653.139 Q 115.474 653.224 115.464 653.066 Q 115.454 652.908 115.536 655.188 "></path>
    <path id="STROKE_36890d77-31be-487a-b217-da91d9a24e7d" opacity="1.000" fill="none" stroke="#f66640" stroke-width="2.720" stroke-opacity="1.000" stroke-linecap="round" stroke-linejoin="round" d="M 117.057 654.250 Q 115.567 654.503 115.869 654.484 Q 115.734 653.960 115.147 655.438 Q 114.559 656.916 115.154 662.609 Q 115.748 668.301 115.826 673.887 Q 115.903 679.473 115.903 682.451 Q 115.903 685.429 115.787 688.424 Q 115.672 691.419 115.343 699.934 Q 115.014 708.449 114.859 713.061 Q 114.703 717.672 114.747 721.570 Q 114.790 725.469 114.695 728.504 Q 114.600 731.538 114.282 735.887 Q 113.964 740.235 113.185 743.259 Q 112.407 746.282 111.483 747.333 Q 110.560 748.383 110.189 750.899 Q 109.817 753.414 110.015 755.770 Q 110.213 758.125 109.962 760.816 Q 109.711 763.506 109.550 765.964 Q 109.389 768.423 110.375 771.248 Q 111.362 774.074 112.492 778.391 "></path>
    <path id="STROKE_5ae73628-586b-46b7-926b-78d912b63df9" opacity="1.000" fill="none" stroke="#f66640" stroke-width="2.720" stroke-opacity="1.000" stroke-linecap="round" stroke-linejoin="round" d="M 113.618 779.922 Q 113.142 779.360 114.364 781.209 Q 115.585 783.059 119.941 784.378 Q 124.297 785.698 127.766 787.017 Q 131.235 788.335 137.711 792.233 Q 144.187 796.130 148.474 798.564 Q 152.760 800.999 161.034 804.140 Q 169.308 807.280 176.661 809.716 Q 184.014 812.152 190.682 813.325 Q 197.351 814.498 201.117 815.011 Q 204.882 815.524 206.597 816.115 Q 208.312 816.705 211.487 817.914 Q 214.661 819.123 218.834 819.628 Q 223.006 820.134 228.267 822.362 Q 233.527 824.590 236.352 826.176 Q 239.178 827.762 241.411 828.621 Q 243.643 829.479 245.738 830.648 Q 247.832 831.816 251.866 834.344 Q 255.899 836.871 258.911 838.508 Q 261.923 840.144 267.054 841.924 Q 272.185 843.704 275.506 845.097 Q 278.827 846.490 286.828 845.469 "></path>
    <path id="STROKE_51c7c452-2745-4ee0-b65f-b442da6fcf6c" opacity="1.000" fill="none" stroke="#f66640" stroke-width="2.720" stroke-opacity="1.000" stroke-linecap="round" stroke-linejoin="round" d="M 177.774 384.797 Q 178.065 383.721 178.108 383.773 Q 178.568 382.456 178.441 382.773 Q 178.734 381.589 178.671 381.820 Q 178.741 380.477 178.712 380.852 Q 178.712 379.451 178.712 379.852 Q 178.589 379.440 179.066 377.474 Q 179.543 375.509 180.152 374.335 Q 180.761 373.160 181.150 372.591 Q 181.539 372.022 181.605 371.947 Q 181.670 371.872 181.838 371.732 Q 182.005 371.591 182.943 370.469 "></path>
    <path id="STROKE_7a6f0a64-ff7a-476f-a160-917fa9b01d33" opacity="1.000" fill="none" stroke="#f66640" stroke-width="2.661" stroke-opacity="1.000" stroke-linecap="round" stroke-linejoin="round" d="M 183.214 375.578 Q 183.574 375.536 182.249 375.806 Q 180.923 376.075 179.777 380.093 Q 178.631 384.110 177.346 389.646 Q 176.061 395.182 175.179 398.687 Q 174.296 402.192 172.688 404.906 "></path>
    <path id="STROKE_d4d911be-a18f-449f-adde-860b77046780" opacity="1.000" fill="none" stroke="#f66640" stroke-width="2.460" stroke-opacity="1.000" stroke-linecap="round" stroke-linejoin="round" d="M 178.504 344.391 Q 179.049 344.461 179.900 342.328 Q 180.046 343.044 181.273 349.161 Q 182.501 355.277 183.185 359.611 Q 183.868 363.944 183.927 367.624 Q 183.985 371.304 181.874 378.029 Q 179.762 384.754 178.441 392.500 "></path>
    <path id="STROKE_0a4f9df0-ad7a-4200-a79f-41152080f4eb" opacity="1.000" fill="none" stroke="#f66640" stroke-width="2.678" stroke-opacity="1.000" stroke-linecap="round" stroke-linejoin="round" d="M 180.692 341.078 Q 180.579 341.462 181.067 340.560 Q 181.556 339.657 182.775 339.290 Q 183.994 338.924 185.692 339.280 Q 187.389 339.636 189.748 340.613 Q 192.106 341.589 197.714 342.189 Q 203.322 342.789 208.478 343.825 Q 213.633 344.860 216.487 345.764 Q 219.340 346.669 223.528 348.494 Q 227.717 350.320 231.536 352.435 Q 235.356 354.551 240.849 355.667 Q 246.341 356.782 249.892 357.094 Q 253.443 357.405 257.054 359.606 Q 260.665 361.807 263.053 363.701 Q 265.441 365.595 266.939 366.339 Q 268.436 367.083 269.501 367.593 Q 270.566 368.103 274.975 369.642 Q 279.383 371.180 283.373 373.944 Q 287.362 376.708 289.891 379.122 Q 292.419 381.535 303.252 387.516 "></path>
    <path id="STROKE_7e15d4c7-85e6-490d-b0fe-f10f4665b78b" opacity="1.000" fill="none" stroke="#f66640" stroke-width="2.359" stroke-opacity="1.000" stroke-linecap="round" stroke-linejoin="round" d="M 308.421 397.078 Q 309.284 397.326 311.988 397.313 Q 314.693 397.300 318.573 402.055 Q 322.454 406.810 324.473 409.695 Q 326.493 412.581 328.527 414.315 Q 330.560 416.049 332.440 421.476 Q 334.320 426.904 334.837 431.171 Q 335.355 435.438 337.024 439.467 Q 338.692 443.495 339.870 445.473 Q 341.049 447.451 342.619 450.422 Q 344.190 453.393 345.748 457.022 Q 347.305 460.650 348.553 464.252 Q 349.802 467.854 350.542 470.218 Q 351.283 472.582 351.790 474.438 Q 352.297 476.293 353.976 483.015 Q 355.655 489.736 357.540 494.900 Q 359.425 500.064 361.688 503.795 Q 363.950 507.525 365.931 512.114 Q 367.912 516.703 368.013 525.203 "></path>
    <path id="STROKE_887aa0d9-9254-44ca-a4a4-e84a523ab8a7" opacity="1.000" fill="none" stroke="#f66640" stroke-width="2.190" stroke-opacity="1.000" stroke-linecap="round" stroke-linejoin="round" d="M 368.680 525.000 Q 368.233 525.093 370.328 526.773 Q 372.422 528.452 375.093 532.628 Q 377.764 536.803 379.692 541.937 Q 381.619 547.072 383.015 552.644 Q 384.411 558.217 384.753 565.393 Q 385.095 572.568 384.537 578.959 Q 383.979 585.351 382.133 593.994 Q 380.288 602.638 379.147 607.190 Q 378.006 611.743 376.999 614.816 Q 375.992 617.889 372.244 620.406 "></path>
    <path id="STROKE_60596857-12ae-42ef-a965-0ac87a2e7563" opacity="1.000" fill="none" stroke="#f66640" stroke-width="2.681" stroke-opacity="1.000" stroke-linecap="round" stroke-linejoin="round" d="M 344.251 667.781 Q 344.605 667.511 345.855 664.214 Q 347.105 660.918 348.777 658.094 Q 350.449 655.270 351.418 653.262 Q 352.387 651.254 354.148 647.128 Q 355.909 643.002 358.506 638.914 Q 361.103 634.825 363.353 632.387 Q 365.603 629.950 369.201 626.312 "></path>
    <path id="STROKE_4e29c094-3e68-47d9-9f07-53d0286ee443" opacity="1.000" fill="none" stroke="#f66640" stroke-width="2.691" stroke-opacity="1.000" stroke-linecap="round" stroke-linejoin="round" d="M 369.138 626.656 Q 369.448 626.500 367.281 628.725 Q 365.114 630.949 362.381 634.420 Q 359.647 637.892 358.171 640.145 Q 356.695 642.399 353.948 648.566 Q 351.202 654.732 348.667 660.880 Q 346.133 667.028 344.575 671.835 Q 343.016 676.642 339.686 681.771 Q 336.356 686.899 332.850 692.875 "></path>
    <path id="STROKE_8931b8a8-6365-4c02-9372-f1badabe0ecc" opacity="1.000" fill="none" stroke="#f66640" stroke-width="2.595" stroke-opacity="1.000" stroke-linecap="round" stroke-linejoin="round" d="M 328.077 698.172 Q 326.656 698.691 324.239 709.549 Q 321.823 720.408 320.476 725.957 Q 319.129 731.506 318.731 734.557 Q 318.332 737.608 317.961 741.035 Q 317.589 744.462 317.129 748.764 Q 316.670 753.066 314.901 758.224 Q 313.133 763.382 312.040 768.088 Q 310.946 772.794 310.751 775.368 Q 310.556 777.943 309.808 784.594 Q 309.060 791.245 308.389 795.046 Q 307.718 798.846 306.328 803.511 Q 304.937 808.176 304.127 812.053 Q 303.317 815.929 302.499 818.955 Q 301.681 821.981 300.905 823.816 Q 300.128 825.651 298.355 832.144 Q 296.582 838.637 294.977 845.938 "></path>
    <path id="STROKE_7da2b9f7-becd-4ad1-a7cb-64178e8c7a44" opacity="1.000" fill="none" stroke="#f66640" stroke-width="2.720" stroke-opacity="1.000" stroke-linecap="round" stroke-linejoin="round" d="M 304.190 390.500 Q 304.190 390.539 304.075 391.438 Q 305.542 391.438 305.045 391.438 Q 306.566 391.438 306.035 391.438 Q 305.145 391.963 308.213 390.375 "></path>
    <path id="STROKE_978db334-1773-445f-97d5-f03b5caab1a6" opacity="1.000" fill="none" stroke="#f66640" stroke-width="2.145" stroke-opacity="1.000" stroke-linecap="round" stroke-linejoin="round" d="M 302.919 392.031 Q 303.273 391.828 303.172 392.702 Q 303.070 393.577 301.954 396.044 Q 300.838 398.511 300.845 400.536 Q 300.852 402.561 298.726 411.850 Q 296.601 421.138 295.140 426.228 Q 293.680 431.317 292.934 434.942 Q 292.188 438.568 290.508 443.639 Q 288.829 448.711 287.836 451.004 Q 286.843 453.298 285.612 456.009 Q 284.382 458.720 281.910 468.135 Q 279.439 477.550 276.667 485.978 Q 273.895 494.406 272.192 498.610 Q 270.488 502.814 269.717 506.912 Q 268.946 511.009 266.445 521.629 Q 263.943 532.248 262.476 538.246 Q 261.009 544.244 260.369 549.187 Q 259.728 554.131 259.437 556.764 Q 259.146 559.398 258.660 561.526 Q 258.174 563.654 256.175 572.410 Q 254.175 581.166 253.257 587.435 Q 252.339 593.705 252.182 597.102 Q 252.024 600.500 251.440 605.299 Q 250.856 610.099 250.428 612.320 Q 250.000 614.541 247.002 626.665 Q 244.005 638.789 242.377 646.752 Q 240.748 654.715 239.938 659.500 Q 239.128 664.285 237.715 675.416 Q 236.302 686.547 234.433 699.857 Q 232.564 713.167 231.973 719.433 Q 231.381 725.699 230.337 733.409 Q 229.293 741.120 228.097 747.314 Q 226.900 753.509 225.350 764.520 Q 223.801 775.532 223.247 781.579 Q 222.693 787.627 222.405 790.823 Q 222.117 794.018 221.364 799.914 Q 220.612 805.810 220.385 816.489 Q 220.159 827.167 218.961 838.781 "></path>
    <path id="STROKE_a2306e15-d9c0-4312-adb6-148d10456d61" opacity="1.000" fill="none" stroke="#bb3e45" stroke-width="2.720" stroke-opacity="1.000" stroke-linecap="round" stroke-linejoin="round" d="M 151.887 498.984 Q 151.887 498.788 151.887 499.064 Q 151.887 499.340 151.887 500.125 Q 151.990 500.142 151.878 500.064 Q 151.766 499.987 152.476 500.356 Q 153.186 500.725 153.760 501.172 Q 154.334 501.619 154.847 501.970 Q 155.360 502.320 155.129 502.161 Q 154.899 502.001 155.759 502.539 Q 156.619 503.077 156.811 503.167 Q 157.002 503.256 157.408 503.384 Q 157.813 503.513 161.162 504.625 "></path>
    <path id="STROKE_9ed5de0a-363e-4e1f-9db2-5c2909e3e372" opacity="1.000" fill="none" stroke="#bb3e45" stroke-width="2.720" stroke-opacity="1.000" stroke-linecap="round" stroke-linejoin="round" d="M 165.518 509.141 Q 165.491 509.327 165.560 508.375 Q 166.355 508.172 172.480 507.156 "></path>
    <path id="STROKE_e7d6bf66-c90f-4727-a029-e341d3533b24" opacity="1.000" fill="none" stroke="#bb3e45" stroke-width="2.720" stroke-opacity="1.000" stroke-linecap="round" stroke-linejoin="round" d="M 175.586 509.734 Q 175.246 509.495 175.252 509.406 Q 176.558 509.406 176.190 509.406 Q 177.302 509.810 177.302 509.848 Q 177.301 509.887 177.491 509.993 Q 177.681 510.099 177.854 510.187 Q 178.027 510.276 177.967 510.239 Q 177.907 510.201 178.572 510.549 Q 179.238 510.896 183.465 512.859 "></path>
    <path id="STROKE_c7e101f3-ab54-4514-ac92-b6e897b3077f" opacity="1.000" fill="none" stroke="#bb3e45" stroke-width="2.720" stroke-opacity="1.000" stroke-linecap="round" stroke-linejoin="round" d="M 182.339 515.969 Q 182.770 516.592 187.237 516.438 "></path>
    <path id="STROKE_7e10aca5-f42b-45dc-a023-ec1ca4057c66" opacity="1.000" fill="none" stroke="#bb3e45" stroke-width="2.720" stroke-opacity="1.000" stroke-linecap="round" stroke-linejoin="round" d="M 192.677 515.438 Q 192.709 515.438 192.740 515.578 Q 192.771 515.578 192.802 515.641 Q 192.647 515.643 193.338 515.664 Q 194.030 515.685 194.923 515.527 Q 195.816 515.369 196.057 515.287 Q 196.299 515.206 196.322 515.210 Q 196.345 515.214 196.327 515.191 Q 196.309 515.168 196.951 515.021 Q 197.594 514.874 198.252 514.798 Q 198.910 514.722 199.473 514.584 Q 200.035 514.446 200.061 514.432 Q 200.086 514.419 200.104 514.420 Q 200.122 514.422 200.012 514.469 Q 199.903 514.516 200.422 514.248 Q 200.941 513.980 201.582 513.723 Q 202.222 513.467 202.663 513.367 Q 203.103 513.267 203.056 513.271 Q 203.009 513.274 203.116 513.268 Q 203.224 513.262 204.537 512.531 "></path>
    <circle id="STROKE_6b0a797b-d1a1-43b7-990b-2c8a1447eb36" opacity="1.000" fill="#bb3e45" stroke="#bb3e45" stroke-width="0.1" stroke-opacity="1.000" fill-opacity="1.000" cx="207.435" cy="512.062" r="1.360"></circle>
    <path id="STROKE_925dd380-510a-408e-a68f-bd4081aaf889" opacity="1.000" fill="none" stroke="#bb3e45" stroke-width="2.720" stroke-opacity="1.000" stroke-linecap="round" stroke-linejoin="round" d="M 208.769 516.047 Q 208.737 516.047 208.435 515.516 Q 209.426 515.516 209.196 515.516 Q 210.412 515.516 210.061 515.516 Q 211.012 515.512 211.050 515.535 Q 211.087 515.559 211.110 515.562 Q 211.133 515.565 211.478 515.703 "></path>
    <path id="STROKE_843da6d4-c9cc-4d51-833b-556ff69c0bab" opacity="1.000" fill="none" stroke="#bb3e45" stroke-width="2.720" stroke-opacity="1.000" stroke-linecap="round" stroke-linejoin="round" d="M 214.188 517.438 Q 213.528 517.180 213.698 517.203 L 213.667 517.172 Q 213.859 517.064 214.792 517.336 Q 213.083 517.211 213.698 517.203 L 213.667 517.172 Q 213.859 517.064 214.326 517.200 Q 214.792 517.336 215.063 517.500 "></path>
    <path id="STROKE_b93e2792-4af5-452d-814f-65e2cf8bc6f6" opacity="1.000" fill="none" stroke="#bb3e45" stroke-width="2.720" stroke-opacity="1.000" stroke-linecap="round" stroke-linejoin="round" d="M 219.899 523.406 Q 219.880 523.825 219.784 523.844 Q 219.985 524.026 219.612 523.684 Q 219.239 523.342 220.879 527.594 "></path>
    <path id="STROKE_44733f8c-8aae-4037-bb2d-4f59999d8827" opacity="1.000" fill="none" stroke="#bb3e45" stroke-width="2.720" stroke-opacity="1.000" stroke-linecap="round" stroke-linejoin="round" d="M 223.401 530.906 Q 223.425 530.727 223.387 531.285 Q 223.348 531.843 223.373 532.443 Q 223.398 533.043 223.458 533.593 Q 223.517 534.143 223.614 534.224 Q 223.711 534.306 223.563 534.097 Q 223.414 533.888 224.714 536.750 "></path>
    <circle id="STROKE_4b947395-5585-4efd-9e3c-b78ec44cb0f6" opacity="1.000" fill="#bb3e45" stroke="#bb3e45" stroke-width="0.1" stroke-opacity="1.000" fill-opacity="1.000" cx="226.256" cy="539.797" r="1.360"></circle>
    <circle id="STROKE_4f85f13d-c031-4d73-a538-8f0383c3deaf" opacity="1.000" fill="#bb3e45" stroke="#bb3e45" stroke-width="0.1" stroke-opacity="1.000" fill-opacity="1.000" cx="225.256" cy="534.812" r="1.360"></circle>
    <circle id="STROKE_e6da01a1-3956-41d2-b616-495f07f91796" opacity="1.000" fill="#bb3e45" stroke="#bb3e45" stroke-width="0.1" stroke-opacity="1.000" fill-opacity="1.000" cx="233.010" cy="530.500" r="1.360"></circle>
    <circle id="STROKE_1d7b3bd3-c4d9-4e8e-8414-5016341f6ba0" opacity="1.000" fill="#bb3e45" stroke="#bb3e45" stroke-width="0.1" stroke-opacity="1.000" fill-opacity="1.000" cx="238.887" cy="526.328" r="1.360"></circle>
    <path id="STROKE_8d56ed58-4d75-463d-bb20-7f06bc779126" opacity="1.000" fill="none" stroke="#bb3e45" stroke-width="2.720" stroke-opacity="1.000" stroke-linecap="round" stroke-linejoin="round" d="M 227.111 533.891 Q 227.078 534.007 227.089 533.946 Q 227.100 533.885 226.110 534.922 Q 227.396 534.975 227.038 534.953 Q 228.034 534.819 227.945 534.719 Q 228.311 534.464 229.550 533.422 "></path>
    <path id="STROKE_b84a0683-04b2-4654-82ee-fc276ec18cbb" opacity="1.000" fill="none" stroke="#bb3e45" stroke-width="2.720" stroke-opacity="1.000" stroke-linecap="round" stroke-linejoin="round" d="M 236.178 528.453 Q 236.146 528.453 235.719 528.453 Q 235.685 528.154 235.813 528.079 Q 235.942 528.004 235.850 528.100 Q 235.758 528.197 236.160 527.846 Q 236.563 527.496 236.931 527.157 Q 237.298 526.818 237.277 526.880 Q 237.256 526.942 237.282 526.766 Q 237.308 526.591 238.502 525.572 Q 239.696 524.553 240.050 524.327 Q 240.405 524.101 241.634 523.767 Q 242.864 523.433 243.564 523.262 Q 244.263 523.091 244.601 523.034 Q 244.939 522.976 245.540 522.480 Q 246.141 521.985 246.121 521.952 Q 246.102 521.919 246.579 521.281 "></path>
    <path id="STROKE_2d59e18e-6e40-491d-81c7-4623f041ab35" opacity="1.000" fill="none" stroke="#bb3e45" stroke-width="2.720" stroke-opacity="1.000" stroke-linecap="round" stroke-linejoin="round" d="M 246.641 519.688 Q 246.600 519.547 246.739 520.391 Q 246.878 521.234 247.465 521.435 Q 248.051 521.636 248.539 521.584 Q 249.026 521.531 248.983 521.672 Q 248.941 521.814 249.369 521.278 Q 249.797 520.742 250.843 519.017 Q 251.889 517.292 252.301 516.499 Q 252.714 515.707 253.069 515.618 Q 253.424 515.530 253.729 515.428 Q 254.033 515.325 254.046 515.369 Q 254.058 515.413 254.063 515.383 Q 254.068 515.354 253.931 515.394 Q 253.794 515.435 257.073 515.977 Q 257.271 515.711 257.772 514.984 "></path>
    <path id="STROKE_0f4bb109-5c1a-4d03-b69f-2ad8794bf513" opacity="1.000" fill="none" stroke="#bb3e45" stroke-width="2.720" stroke-opacity="1.000" stroke-linecap="round" stroke-linejoin="round" d="M 171.750 521.219 Q 170.441 521.219 170.729 521.219 Q 170.152 521.173 169.494 521.283 Q 168.836 521.393 167.904 523.315 Q 166.972 525.237 165.852 529.906 "></path>
    <path id="STROKE_8cee19de-7921-454f-8c09-ff69bbd96431" opacity="1.000" fill="none" stroke="#bb3e45" stroke-width="2.720" stroke-opacity="1.000" stroke-linecap="round" stroke-linejoin="round" d="M 163.267 535.953 Q 163.494 535.312 162.377 537.219 Q 161.260 539.126 160.986 541.753 Q 160.711 544.380 159.584 546.428 Q 158.458 548.475 157.355 549.871 Q 156.253 551.267 155.776 552.609 Q 155.299 553.951 155.100 554.935 Q 154.902 555.919 154.728 557.120 Q 154.554 558.321 154.205 559.188 Q 153.856 560.056 153.753 560.235 Q 153.651 560.414 153.318 560.953 Q 152.985 561.493 153.172 561.211 Q 153.359 560.929 153.026 561.444 Q 152.694 561.959 151.824 562.750 "></path>
    <path id="STROKE_53b6b31a-ea51-4e46-8243-62614daa3888" opacity="1.000" fill="none" stroke="#bb3e45" stroke-width="2.720" stroke-opacity="1.000" stroke-linecap="round" stroke-linejoin="round" d="M 150.428 572.500 Q 150.404 572.541 148.239 572.734 Q 147.974 572.915 148.635 575.156 "></path>
    <path id="STROKE_d0fa2995-67ea-4d43-a2a7-536761b3f953" opacity="1.000" fill="none" stroke="#bb3e45" stroke-width="2.720" stroke-opacity="1.000" stroke-linecap="round" stroke-linejoin="round" d="M 148.906 583.125 Q 147.566 583.550 147.916 583.422 Q 147.884 583.054 147.308 583.698 Q 146.732 584.342 146.732 584.731 Q 146.733 585.121 146.988 589.891 "></path>
    <path id="STROKE_4c75862c-b6a5-4533-bab6-7fd3d63588c8" opacity="1.000" fill="none" stroke="#bb3e45" stroke-width="2.720" stroke-opacity="1.000" stroke-linecap="round" stroke-linejoin="round" d="M 147.510 596.000 Q 147.864 595.610 147.137 596.525 Q 146.409 597.441 146.244 599.029 Q 146.080 600.617 146.242 602.348 Q 146.405 604.079 147.051 605.484 "></path>
    <circle id="STROKE_c7fd9be2-eff2-4305-80b6-188ae7ca2f55" opacity="1.000" fill="#bb3e45" stroke="#bb3e45" stroke-width="0.1" stroke-opacity="1.000" fill-opacity="1.000" cx="146.467" cy="614.766" r="1.360"></circle>
    <path id="STROKE_4a10e6d2-12a6-402c-9209-73af3b360259" opacity="1.000" fill="none" stroke="#bb3e45" stroke-width="2.720" stroke-opacity="1.000" stroke-linecap="round" stroke-linejoin="round" d="M 148.051 621.812 Q 148.277 621.740 147.720 622.408 Q 147.164 623.075 149.302 626.047 "></path>
    <path id="STROKE_a71db69b-38a9-43d1-be99-02a4894eeae2" opacity="1.000" fill="none" stroke="#bb3e45" stroke-width="2.720" stroke-opacity="1.000" stroke-linecap="round" stroke-linejoin="round" d="M 150.302 634.547 Q 150.343 634.559 150.331 634.684 Q 150.320 634.810 150.252 634.690 Q 150.185 634.569 150.081 635.949 Q 149.978 637.329 149.990 637.586 Q 150.003 637.843 150.232 638.259 Q 150.461 638.675 150.732 639.064 Q 151.003 639.453 151.428 639.859 "></path>
    <path id="STROKE_b21a0639-e60b-4a3d-a2a3-f8d2a9393a71" opacity="1.000" fill="none" stroke="#bb3e45" stroke-width="2.720" stroke-opacity="1.000" stroke-linecap="round" stroke-linejoin="round" d="M 156.326 647.609 Q 156.483 647.412 156.064 648.631 Q 155.645 649.849 158.973 654.516 "></path>
    <path id="STROKE_df995eb9-54c8-4aa0-bd33-f221a75f7d15" opacity="1.000" fill="none" stroke="#bb3e45" stroke-width="2.720" stroke-opacity="1.000" stroke-linecap="round" stroke-linejoin="round" d="M 163.413 667.719 Q 162.994 668.619 164.726 673.891 "></path>
    <path id="STROKE_a2e2c0cb-510a-421e-8d4f-8cadf3f7d70a" opacity="1.000" fill="none" stroke="#bb3e45" stroke-width="2.720" stroke-opacity="1.000" stroke-linecap="round" stroke-linejoin="round" d="M 168.770 686.297 Q 167.703 685.518 171.229 697.250 "></path>
    <path id="STROKE_33727e6f-e268-47e2-94de-dca1da64eb18" opacity="1.000" fill="none" stroke="#bb3e45" stroke-width="2.720" stroke-opacity="1.000" stroke-linecap="round" stroke-linejoin="round" d="M 172.813 705.141 Q 172.174 705.312 175.002 723.250 "></path>
    <path id="STROKE_f2f0eb6b-abd7-4110-9925-eea46d62a96f" opacity="1.000" fill="none" stroke="#bb3e45" stroke-width="2.720" stroke-opacity="1.000" stroke-linecap="round" stroke-linejoin="round" d="M 164.601 658.297 Q 163.584 658.297 163.903 658.297 L 163.872 658.297 Q 164.794 658.014 168.582 655.250 "></path>
    <path id="STROKE_b66d6f70-5d78-4039-a19b-579afb6fdb29" opacity="1.000" fill="none" stroke="#bb3e45" stroke-width="2.720" stroke-opacity="1.000" stroke-linecap="round" stroke-linejoin="round" d="M 173.480 653.188 Q 174.086 653.188 174.002 653.188 Q 175.107 653.102 174.762 653.094 Q 174.894 653.081 175.627 652.727 Q 174.669 652.891 173.512 653.188 Q 174.018 653.188 174.002 653.188 Q 175.107 653.102 174.762 653.094 Q 174.894 653.081 175.261 652.904 Q 175.627 652.727 175.857 652.594 "></path>
    <path id="STROKE_14741e97-1151-44e9-9060-fa056263c401" opacity="1.000" fill="none" stroke="#bb3e45" stroke-width="2.720" stroke-opacity="1.000" stroke-linecap="round" stroke-linejoin="round" d="M 180.963 650.203 Q 180.051 650.713 181.910 650.307 Q 183.768 649.902 184.612 649.442 Q 185.455 648.982 186.439 648.438 Q 187.424 647.895 187.120 648.073 Q 186.816 648.252 189.759 646.031 "></path>
    <path id="STROKE_f86abe28-447a-42a8-b56d-475187146a1a" opacity="1.000" fill="none" stroke="#bb3e45" stroke-width="2.720" stroke-opacity="1.000" stroke-linecap="round" stroke-linejoin="round" d="M 191.218 646.031 Q 191.305 646.287 191.745 646.891 Q 192.185 647.495 192.093 647.308 Q 192.000 647.120 191.911 647.191 Q 191.821 647.261 192.542 647.219 Q 191.979 646.625 191.250 646.094 Q 191.325 646.244 191.665 646.804 Q 192.006 647.364 192.014 647.269 Q 192.022 647.174 191.971 647.202 Q 191.920 647.230 192.231 647.225 Q 192.542 647.219 192.740 647.219 "></path>
    <path id="STROKE_888f47f0-3625-4c2d-a3aa-60590d0011c8" opacity="1.000" fill="none" stroke="#33ace3" stroke-width="2.720" stroke-opacity="1.000" stroke-linecap="round" stroke-linejoin="round" d="M 249.497 489.375 Q 249.497 489.406 249.351 489.469 Q 249.202 490.270 249.226 490.102 Q 249.202 491.786 249.195 491.258 Q 248.825 490.756 249.355 497.393 Q 249.885 504.029 250.076 509.965 Q 250.267 515.902 250.250 519.100 Q 250.232 522.298 250.395 525.874 Q 250.557 529.451 248.655 533.962 Q 246.753 538.474 245.783 540.935 Q 244.813 543.396 244.031 545.694 Q 243.249 547.993 242.030 549.276 Q 240.812 550.560 238.827 554.266 Q 236.842 557.972 236.716 558.766 Q 236.590 559.560 234.543 562.409 Q 232.496 565.259 230.504 567.112 Q 228.512 568.966 227.513 569.576 Q 226.515 570.186 225.546 570.713 Q 224.578 571.239 224.763 571.161 Q 224.948 571.083 221.817 572.969 Q 221.732 573.083 222.463 572.766 "></path>
    <path id="STROKE_004617dd-1061-419c-8c34-e43cab4f5d0d" opacity="1.000" fill="none" stroke="#33ace3" stroke-width="2.720" stroke-opacity="1.000" stroke-linecap="round" stroke-linejoin="round" d="M 222.150 574.094 Q 223.022 574.061 220.786 574.145 Q 218.550 574.228 216.537 573.887 Q 214.524 573.545 213.623 573.257 Q 212.723 572.969 212.423 572.861 Q 212.124 572.752 211.426 572.534 Q 210.728 572.315 209.069 571.818 Q 207.410 571.320 205.832 570.491 Q 204.254 569.661 202.728 568.193 Q 201.202 566.726 200.517 565.756 Q 199.833 564.786 199.674 564.405 Q 199.515 564.024 197.752 562.642 Q 195.988 561.261 194.535 560.680 Q 193.081 560.099 192.559 559.036 Q 192.038 557.972 191.452 557.245 Q 190.867 556.518 190.408 556.021 Q 189.949 555.523 189.698 555.259 Q 189.447 554.995 189.250 554.717 Q 189.054 554.439 188.997 554.365 Q 188.939 554.292 188.762 553.982 Q 188.584 553.672 187.601 550.399 Q 186.618 547.126 186.001 545.448 Q 185.384 543.769 185.169 543.043 Q 184.954 542.317 183.006 540.797 Q 183.006 540.828 183.006 540.984 Q 183.256 540.984 182.485 540.984 Q 182.383 540.814 181.609 540.625 L 181.609 540.594 Q 180.750 540.501 180.995 540.531 Q 179.401 540.400 179.994 540.453 Q 178.244 540.861 178.528 540.820 Q 178.813 540.779 178.295 541.152 Q 177.777 541.525 178.169 541.195 Q 178.562 540.866 177.315 541.994 Q 176.068 543.122 174.957 544.214 Q 173.846 545.306 173.555 545.653 Q 173.265 545.999 173.100 546.226 Q 172.935 546.453 172.775 546.697 Q 172.615 546.941 172.601 546.986 Q 172.588 547.031 172.646 546.869 Q 172.704 546.706 172.248 548.061 Q 171.791 549.415 171.315 550.502 Q 170.839 551.588 170.543 552.359 Q 170.246 553.129 170.093 553.467 Q 169.940 553.805 169.808 554.073 Q 169.676 554.340 169.432 554.825 Q 169.187 555.310 169.199 555.398 Q 169.210 555.486 168.609 556.326 Q 168.009 557.167 166.716 560.104 Q 165.423 563.042 164.842 564.667 Q 164.262 566.293 164.042 566.964 Q 163.821 567.635 163.666 568.044 Q 163.510 568.452 163.403 568.773 Q 163.296 569.094 163.297 569.085 Q 163.299 569.075 163.288 569.033 Q 163.277 568.992 162.735 570.439 Q 162.192 571.887 161.892 572.894 Q 161.591 573.901 161.434 574.474 Q 161.276 575.047 161.261 575.065 Q 161.246 575.084 161.220 575.443 Q 161.193 575.803 160.788 577.226 Q 160.383 578.650 160.086 579.554 Q 159.788 580.458 159.537 581.424 Q 159.287 582.389 159.243 582.929 Q 159.200 583.469 159.187 583.775 Q 159.175 584.080 159.171 584.027 Q 159.167 583.975 159.256 584.456 Q 159.345 584.937 158.722 588.081 Q 158.100 591.226 157.968 594.507 Q 157.836 597.788 157.925 599.445 Q 158.015 601.103 158.070 601.966 Q 158.124 602.829 158.148 603.779 Q 158.172 604.730 158.263 605.237 Q 158.354 605.745 158.367 605.773 Q 158.380 605.801 158.579 606.537 Q 158.778 607.274 158.807 607.211 Q 159.399 608.121 159.276 607.875 Q 159.857 608.765 159.933 608.874 Q 160.009 608.983 159.990 608.931 Q 159.970 608.879 159.927 608.861 Q 159.884 608.843 160.290 609.423 Q 160.696 610.003 161.058 610.250 Q 161.420 610.497 161.827 610.755 Q 162.233 611.013 162.048 610.859 Q 163.640 610.859 163.017 610.859 Q 163.048 610.859 163.142 610.859 Q 163.080 610.961 163.017 611.062 "></path>
    <path id="STROKE_3f44654b-843e-4fc6-b0d3-a28e25ce21b1" opacity="1.000" fill="none" stroke="#33ace3" stroke-width="2.699" stroke-opacity="1.000" stroke-linecap="round" stroke-linejoin="round" d="M 161.350 610.922 Q 161.500 610.922 159.099 610.922 Q 158.437 610.557 160.394 611.834 Q 162.352 613.112 163.477 613.720 Q 164.603 614.327 168.573 614.739 Q 172.542 615.151 177.520 614.103 Q 182.497 613.055 185.746 611.392 Q 188.995 609.729 191.790 608.202 Q 194.586 606.676 198.529 606.635 Q 202.472 606.594 204.416 606.626 Q 206.359 606.657 207.203 606.474 Q 208.047 606.291 207.974 606.302 Q 207.901 606.312 207.979 606.303 Q 208.058 606.294 208.579 606.285 Q 209.101 606.276 208.848 606.280 Q 208.595 606.284 210.415 606.281 Q 210.415 607.477 210.415 607.016 Q 210.415 607.047 210.415 607.773 Q 210.415 607.742 210.415 607.672 Q 210.461 607.782 210.393 608.362 Q 210.325 608.942 210.455 609.598 Q 210.585 610.253 210.798 610.674 Q 211.010 611.096 210.999 611.086 Q 210.987 611.076 211.018 611.103 Q 211.049 611.130 211.222 611.422 Q 211.395 611.715 211.399 611.714 Q 211.403 611.714 211.407 611.733 Q 211.412 611.752 211.391 611.694 Q 211.371 611.637 211.694 612.437 Q 212.017 613.237 211.974 613.147 Q 211.931 613.057 211.975 613.185 Q 212.018 613.313 212.106 613.618 Q 212.195 613.923 212.265 614.208 Q 212.335 614.492 212.394 614.941 Q 212.452 615.390 212.401 615.285 Q 212.349 615.180 212.363 615.167 Q 212.377 615.155 212.426 617.876 Q 212.475 620.598 212.451 622.165 Q 212.428 623.731 212.296 624.481 Q 212.165 625.230 211.985 625.370 Q 211.805 625.509 211.646 626.097 Q 211.488 626.685 211.426 627.104 Q 211.364 627.524 211.265 627.982 Q 211.165 628.440 211.264 628.068 Q 211.362 627.696 211.077 629.149 Q 210.791 630.602 210.481 631.382 Q 210.171 632.163 210.030 632.665 Q 209.888 633.167 209.665 633.892 Q 209.443 634.616 209.335 634.951 Q 209.227 635.286 209.022 635.948 Q 208.816 636.611 208.911 636.327 Q 209.005 636.043 208.551 637.243 Q 208.096 638.442 207.230 643.405 Q 206.363 648.368 205.719 651.204 Q 205.076 654.041 205.088 654.933 Q 205.100 655.826 204.694 659.944 Q 204.288 664.062 204.106 666.918 Q 203.924 669.774 203.800 671.924 Q 203.677 674.074 203.528 677.478 Q 203.379 680.882 202.250 685.291 Q 201.121 689.700 200.010 694.640 Q 198.898 699.580 198.531 707.062 Q 198.164 714.545 198.576 724.453 "></path>
  </g>
</svg>