<?xml version="1.0" encoding="UTF-8" standalone="yes"?>
<svg xmlns="http://www.w3.org/2000/svg" xmlns:xlink="http://www.w3.org/1999/xlink" width="759.140pt" height="415.503pt" version="1.1" viewBox="-597.450 829.481 759.140 415.503">
  <!--
	Exported with Concepts: Smarter Sketching
	Version: 3759 on iOS 17.7
	https://concepts.app/
	-->
  <title>4469BBA0-8E30-4DE5-97E3-06A439F62D17</title>
  <desc>Drawing exported from Concepts: Smarter Sketching</desc>
  <defs></defs>
  <g id="钢笔" opacity="1.000">
    <path id="STROKE_c16ce8a1-6afc-4c7a-a0bd-ed9a6069581a" opacity="1.000" fill="none" stroke="#f66640" stroke-width="2.360" stroke-opacity="1.000" stroke-linecap="round" stroke-linejoin="round" d="M -579.116 857.625 Q -579.076 857.716 -579.008 858.791 Q -578.939 859.866 -580.150 862.809 Q -581.361 865.752 -581.777 867.782 Q -582.192 869.812 -582.718 875.089 Q -583.244 880.366 -583.228 885.477 Q -583.212 890.588 -583.123 896.827 Q -583.034 903.066 -583.271 915.022 Q -583.508 926.977 -583.852 933.126 Q -584.196 939.274 -584.393 942.042 Q -584.591 944.809 -584.713 946.315 Q -584.835 947.821 -584.909 949.317 Q -584.983 950.813 -585.610 962.146 Q -586.237 973.480 -586.791 983.627 Q -587.345 993.775 -587.673 1001.203 Q -588.001 1008.632 -588.176 1014.827 Q -588.352 1021.021 -588.487 1025.796 Q -588.622 1030.570 -586.758 1043.847 Q -584.894 1057.125 -584.039 1064.148 Q -583.183 1071.172 -582.673 1075.851 Q -582.162 1080.531 -582.012 1086.217 Q -581.862 1091.903 -581.173 1102.587 Q -580.484 1113.271 -579.761 1119.868 Q -579.038 1126.465 -578.922 1130.960 Q -578.806 1135.455 -577.807 1153.150 Q -576.808 1170.845 -575.982 1181.813 Q -575.156 1192.781 -574.535 1199.167 Q -573.915 1205.554 -573.604 1210.344 Q -573.292 1215.135 -572.871 1218.329 Q -572.450 1221.524 -570.445 1224.469 "></path>
    <path id="STROKE_28fec3c4-eb1c-4c7d-9e7f-d3ddb444ac37" opacity="1.000" fill="none" stroke="#f66640" stroke-width="2.379" stroke-opacity="1.000" stroke-linecap="round" stroke-linejoin="round" d="M -574.614 853.172 Q -574.371 854.044 -574.406 855.513 Q -574.442 856.981 -574.161 857.206 Q -573.880 857.431 -573.693 857.500 Q -573.506 857.568 -572.516 857.839 Q -571.525 858.111 -567.599 858.475 Q -563.673 858.839 -557.256 856.868 Q -550.839 854.898 -547.543 853.719 Q -544.246 852.540 -541.186 851.609 Q -538.126 850.677 -532.894 849.512 Q -527.663 848.347 -523.345 847.864 Q -519.027 847.382 -513.145 847.558 Q -507.263 847.735 -502.618 848.534 Q -497.973 849.333 -493.679 849.674 Q -489.384 850.015 -484.360 849.448 Q -479.336 848.881 -474.503 847.571 Q -469.671 846.260 -466.276 845.722 Q -462.882 845.184 -459.511 845.021 Q -456.141 844.858 -453.075 844.852 Q -450.009 844.847 -445.154 845.885 Q -440.299 846.924 -436.810 847.453 Q -433.320 847.982 -429.807 847.719 Q -426.295 847.456 -423.304 846.306 Q -420.313 845.155 -416.658 843.742 Q -413.003 842.328 -407.965 841.722 Q -402.927 841.115 -396.722 841.972 Q -390.517 842.828 -383.083 842.521 Q -375.649 842.214 -372.098 841.545 Q -368.547 840.876 -363.027 841.663 Q -357.507 842.449 -353.295 842.781 Q -349.084 843.113 -345.131 842.775 Q -341.177 842.437 -336.714 843.355 Q -332.251 844.273 -328.313 845.211 Q -324.375 846.150 -321.449 846.219 Q -318.524 846.287 -316.916 846.314 Q -315.307 846.340 -310.858 846.576 Q -306.409 846.813 -302.710 846.506 Q -299.011 846.200 -296.280 846.469 Q -296.175 846.663 -296.374 849.188 "></path>
    <path id="STROKE_72d52460-e68c-4d24-b573-2e6229d5e23c" opacity="1.000" fill="none" stroke="#f66640" stroke-width="2.559" stroke-opacity="1.000" stroke-linecap="round" stroke-linejoin="round" d="M -316.259 841.359 Q -316.097 841.154 -317.843 838.781 Q -318.076 838.488 -317.326 844.579 Q -316.577 850.670 -315.009 855.789 Q -313.441 860.909 -312.605 864.415 Q -311.769 867.921 -309.519 873.994 Q -307.269 880.067 -305.646 884.468 Q -304.023 888.870 -303.102 893.502 Q -302.182 898.134 -301.574 905.341 Q -300.966 912.547 -298.771 926.156 "></path>
    <path id="STROKE_fecb2933-a60f-4f58-9ee7-ac86664848c3" opacity="1.000" fill="none" stroke="#f66640" stroke-width="2.524" stroke-opacity="1.000" stroke-linecap="round" stroke-linejoin="round" d="M -300.480 921.781 Q -299.984 921.794 -299.990 921.750 Q -299.551 921.482 -299.563 921.484 Q -298.576 920.767 -298.927 921.016 Q -298.896 920.953 -298.833 920.844 Q -298.612 920.465 -299.727 921.407 Q -300.842 922.349 -304.145 926.607 Q -307.448 930.864 -309.567 933.775 Q -311.686 936.685 -312.898 938.248 Q -314.110 939.810 -314.822 940.762 Q -315.534 941.715 -316.620 943.047 Q -317.705 944.378 -320.045 947.209 Q -322.386 950.039 -324.350 952.391 Q -326.314 954.744 -329.768 959.771 Q -333.222 964.797 -338.720 971.357 Q -344.219 977.916 -348.531 982.406 Q -352.844 986.895 -355.702 988.963 Q -358.559 991.031 -361.531 996.219 "></path>
    <path id="STROKE_fe03d785-58e9-44fc-a6f4-b44fc9d68def" opacity="1.000" fill="none" stroke="#f66640" stroke-width="2.308" stroke-opacity="1.000" stroke-linecap="round" stroke-linejoin="round" d="M -371.077 986.531 Q -372.462 986.531 -372.067 986.531 Q -372.234 986.531 -372.390 986.570 Q -372.932 986.538 -370.118 995.115 Q -367.304 1003.692 -364.843 1010.601 Q -362.381 1017.511 -361.434 1020.418 Q -360.487 1023.325 -358.342 1031.581 Q -356.198 1039.836 -354.869 1044.335 Q -353.541 1048.834 -351.649 1055.054 Q -349.757 1061.274 -348.587 1064.408 Q -347.416 1067.542 -345.365 1073.073 Q -343.313 1078.603 -341.994 1086.055 Q -340.675 1093.508 -338.611 1101.012 Q -336.547 1108.516 -334.009 1115.174 Q -331.472 1121.832 -329.772 1130.604 Q -328.071 1139.377 -325.772 1148.462 Q -323.473 1157.548 -322.367 1161.859 Q -321.260 1166.170 -318.596 1173.599 Q -315.932 1181.029 -314.567 1185.568 Q -313.201 1190.108 -308.838 1196.000 "></path>
    <path id="STROKE_8e9ca7a2-f2b9-44c1-ad26-cc101725f937" opacity="1.000" fill="none" stroke="#f66640" stroke-width="2.548" stroke-opacity="1.000" stroke-linecap="round" stroke-linejoin="round" d="M -567.339 1230.312 Q -568.201 1231.518 -567.996 1231.109 Q -569.334 1231.659 -568.861 1231.469 Q -567.696 1232.880 -567.860 1232.430 Q -567.866 1233.004 -561.766 1234.403 Q -555.666 1235.802 -549.994 1235.817 Q -544.323 1235.832 -540.323 1234.999 Q -536.323 1234.167 -531.196 1232.849 Q -526.069 1231.532 -520.589 1231.085 Q -515.110 1230.637 -509.675 1229.322 Q -504.241 1228.006 -498.004 1226.626 Q -491.767 1225.246 -488.271 1225.041 Q -484.775 1224.837 -477.470 1223.845 Q -470.164 1222.854 -464.539 1222.074 Q -458.914 1221.294 -452.206 1221.865 Q -445.499 1222.436 -440.602 1223.135 Q -435.705 1223.833 -429.761 1222.626 Q -423.816 1221.418 -420.044 1220.623 Q -416.271 1219.828 -413.317 1219.545 Q -410.364 1219.262 -403.793 1218.891 Q -397.223 1218.521 -392.158 1218.918 Q -387.093 1219.315 -383.232 1219.528 Q -379.370 1219.741 -377.113 1219.977 Q -374.855 1220.213 -370.893 1218.708 Q -366.931 1217.203 -362.486 1216.161 Q -358.042 1215.120 -353.394 1214.867 Q -348.747 1214.613 -345.472 1214.644 Q -342.197 1214.674 -340.417 1214.281 Q -338.637 1213.889 -335.648 1212.817 Q -332.660 1211.745 -329.344 1211.760 Q -326.028 1211.776 -322.730 1211.700 Q -319.432 1211.624 -315.132 1210.438 Q -310.832 1209.252 -307.318 1208.846 Q -303.804 1208.440 -299.834 1206.359 "></path>
    <path id="STROKE_6e051950-1868-45d5-9336-e5eede7916d2" opacity="1.000" fill="none" stroke="#f66640" stroke-width="2.482" stroke-opacity="1.000" stroke-linecap="round" stroke-linejoin="round" d="M -580.116 1114.391 Q -580.679 1114.958 -582.305 1116.648 Q -582.195 1116.801 -581.802 1116.944 Q -581.408 1117.087 -581.278 1117.035 Q -581.148 1116.983 -580.997 1117.367 Q -580.847 1117.752 -568.258 1116.320 Q -555.669 1114.888 -548.399 1114.141 Q -541.129 1113.395 -537.205 1113.111 Q -533.280 1112.827 -529.433 1112.180 Q -525.587 1111.533 -522.890 1111.044 Q -520.193 1110.555 -514.171 1109.040 Q -508.148 1107.524 -503.120 1106.600 Q -498.091 1105.675 -494.666 1105.384 Q -491.241 1105.094 -483.961 1103.637 Q -476.681 1102.181 -467.808 1100.189 Q -458.934 1098.197 -454.536 1097.191 Q -450.138 1096.184 -447.929 1096.108 Q -445.720 1096.031 -439.371 1095.207 Q -433.022 1094.383 -426.470 1092.967 Q -419.918 1091.552 -412.118 1091.034 Q -404.319 1090.516 -396.746 1088.812 Q -389.172 1087.109 -384.991 1086.016 Q -380.809 1084.924 -378.991 1084.670 Q -377.173 1084.416 -373.944 1084.317 Q -370.714 1084.217 -364.965 1083.888 Q -359.215 1083.558 -354.647 1082.473 Q -350.078 1081.389 -343.522 1080.828 "></path>
    <path id="STROKE_cd8d6439-7716-4dd2-849e-4017fcd40a15" opacity="1.000" fill="none" stroke="#000000" stroke-width="2.720" stroke-opacity="1.000" stroke-linecap="round" stroke-linejoin="round" d="M -354.131 1120.562 Q -354.233 1119.690 -354.194 1119.906 Q -354.173 1118.419 -354.121 1118.875 Q -353.686 1118.313 -353.631 1118.344 Q -352.769 1117.608 -352.901 1117.711 Q -351.972 1116.654 -346.009 1112.570 Q -340.047 1108.487 -336.699 1106.324 Q -333.352 1104.161 -331.512 1103.348 Q -329.671 1102.535 -326.752 1100.747 Q -323.832 1098.960 -320.384 1096.541 Q -316.937 1094.122 -314.325 1092.847 Q -311.714 1091.573 -309.171 1090.038 Q -306.628 1088.502 -303.579 1086.125 Q -300.529 1083.747 -297.309 1081.932 Q -294.089 1080.116 -292.543 1079.353 Q -290.997 1078.590 -289.456 1077.903 Q -287.914 1077.216 -285.399 1075.885 Q -282.883 1074.553 -281.643 1074.040 Q -280.404 1073.526 -279.448 1073.272 Q -278.493 1073.018 -278.729 1073.106 Q -278.964 1073.194 -278.677 1073.021 Q -278.389 1072.849 -276.927 1072.728 Q -275.466 1072.607 -274.310 1072.634 Q -273.154 1072.660 -272.450 1072.686 Q -271.746 1072.713 -271.422 1072.800 Q -271.097 1072.888 -271.263 1072.866 Q -271.430 1072.844 -268.529 1073.842 Q -265.628 1074.839 -262.462 1075.085 Q -259.296 1075.331 -257.464 1075.462 Q -255.633 1075.594 -255.006 1075.846 Q -254.379 1076.099 -253.434 1076.387 Q -252.489 1076.676 -252.126 1076.816 Q -251.762 1076.956 -251.431 1077.094 Q -251.101 1077.233 -251.325 1077.208 Q -251.549 1077.184 -250.537 1077.492 Q -249.526 1077.801 -245.142 1079.468 Q -240.758 1081.134 -237.942 1082.750 Q -235.125 1084.365 -232.042 1085.752 Q -228.958 1087.140 -226.351 1089.133 Q -223.744 1091.126 -222.311 1092.033 Q -220.878 1092.941 -219.681 1093.512 Q -218.484 1094.084 -213.848 1094.866 Q -209.211 1095.648 -198.972 1101.453 "></path>
    <path id="STROKE_36b4a965-fec4-4df4-8ca3-04971c675478" opacity="1.000" fill="none" stroke="#000000" stroke-width="2.720" stroke-opacity="1.000" stroke-linecap="round" stroke-linejoin="round" d="M -198.785 1099.938 Q -198.816 1099.938 -199.118 1099.938 Q -199.772 1099.958 -198.433 1099.858 Q -197.094 1099.757 -195.598 1100.230 Q -194.102 1100.704 -192.407 1101.448 Q -190.713 1102.192 -188.897 1102.608 Q -187.080 1103.025 -184.226 1103.759 Q -181.372 1104.494 -177.982 1106.653 Q -174.592 1108.812 -167.603 1111.875 "></path>
    <path id="STROKE_1a6cafbd-f503-40e8-85c3-bbf625c35865" opacity="1.000" fill="none" stroke="#000000" stroke-width="2.720" stroke-opacity="1.000" stroke-linecap="round" stroke-linejoin="round" d="M -148.927 1121.953 Q -147.970 1122.471 -148.260 1122.359 Q -148.176 1122.454 -146.575 1124.055 Q -144.974 1125.656 -143.580 1126.419 Q -142.187 1127.182 -140.521 1127.987 Q -138.855 1128.792 -136.018 1129.441 Q -133.182 1130.090 -131.542 1130.638 Q -129.903 1131.186 -127.353 1132.753 Q -124.803 1134.320 -122.178 1135.483 Q -119.553 1136.646 -118.160 1137.000 Q -116.766 1137.353 -116.334 1137.633 Q -115.902 1137.913 -115.700 1138.037 Q -115.498 1138.162 -115.265 1138.284 Q -115.031 1138.406 -114.366 1138.634 Q -113.701 1138.861 -113.903 1138.804 Q -114.105 1138.748 -113.586 1138.893 Q -113.066 1139.039 -112.507 1139.243 Q -111.947 1139.447 -111.364 1139.760 Q -110.781 1140.073 -110.950 1139.938 Q -109.635 1140.478 -109.844 1140.397 Q -110.052 1140.315 -110.026 1140.327 Q -110.000 1140.338 -109.995 1140.341 Q -109.991 1140.343 -109.960 1140.406 Q -108.443 1140.506 -108.959 1140.469 Q -107.942 1140.625 -107.859 1140.640 Q -107.776 1140.654 -107.969 1140.609 Q -107.928 1140.609 -107.469 1140.672 Q -107.500 1140.672 -107.532 1140.672 Q -107.532 1140.703 -107.500 1140.875 Q -106.925 1141.141 -107.042 1141.102 Q -105.477 1142.213 -105.752 1142.016 Q -106.028 1141.819 -105.841 1141.944 Q -105.653 1142.070 -105.584 1142.111 Q -105.515 1142.152 -105.161 1142.425 Q -104.806 1142.697 -104.793 1142.670 Q -104.780 1142.643 -104.739 1142.715 Q -104.699 1142.787 -103.763 1143.771 Q -102.826 1144.755 -100.577 1146.067 Q -98.328 1147.379 -95.223 1148.647 Q -92.119 1149.914 -90.459 1150.473 Q -88.800 1151.033 -88.542 1151.179 Q -88.284 1151.326 -87.283 1151.740 Q -86.282 1152.154 -85.643 1152.373 Q -85.004 1152.592 -84.455 1152.716 Q -83.906 1152.840 -83.818 1152.893 Q -83.729 1152.945 -83.549 1152.977 Q -83.368 1153.009 -81.019 1152.999 Q -78.670 1152.990 -77.239 1153.196 Q -75.807 1153.402 -75.021 1153.662 Q -74.234 1153.922 -74.156 1153.958 Q -74.079 1153.995 -74.038 1153.998 Q -73.997 1154.001 -74.131 1153.961 Q -74.264 1153.920 -73.306 1154.269 Q -72.347 1154.617 -70.341 1155.116 Q -68.336 1155.616 -66.748 1155.937 Q -65.159 1156.259 -64.449 1156.393 Q -63.739 1156.527 -63.041 1156.526 Q -62.344 1156.526 -58.216 1157.266 "></path>
    <path id="STROKE_80ba943c-0dc0-44e2-b4b8-03050db5a0bb" opacity="1.000" fill="none" stroke="#000000" stroke-width="2.720" stroke-opacity="1.000" stroke-linecap="round" stroke-linejoin="round" d="M -60.008 1159.984 Q -60.303 1159.989 -59.949 1160.104 Q -59.595 1160.220 -57.521 1159.636 Q -55.447 1159.052 -54.020 1158.982 Q -52.594 1158.912 -52.053 1159.022 Q -51.512 1159.132 -50.781 1159.270 Q -50.049 1159.409 -49.401 1159.554 Q -48.754 1159.698 -48.511 1159.668 Q -48.269 1159.638 -44.993 1160.318 Q -41.718 1160.998 -38.779 1161.991 Q -35.841 1162.983 -34.136 1163.533 Q -32.431 1164.082 -27.443 1165.261 Q -22.455 1166.441 -17.054 1167.683 Q -11.653 1168.926 -8.134 1168.827 Q -4.614 1168.729 -3.064 1168.375 Q -1.514 1168.021 -0.622 1167.890 Q 0.271 1167.759 0.775 1167.689 Q 1.279 1167.619 1.314 1167.608 Q 1.348 1167.598 1.363 1167.603 Q 1.377 1167.607 1.789 1167.565 Q 2.200 1167.523 2.099 1167.530 Q 1.998 1167.537 2.021 1167.510 Q 2.044 1167.484 2.253 1167.484 Q 2.463 1167.484 3.654 1167.167 Q 4.846 1166.849 5.445 1166.665 Q 6.045 1166.480 6.549 1166.341 Q 7.054 1166.203 7.161 1166.175 Q 7.267 1166.147 7.295 1166.095 Q 7.323 1166.043 8.257 1165.901 Q 9.191 1165.759 11.751 1165.082 Q 14.312 1164.405 15.276 1163.816 Q 16.241 1163.227 18.204 1162.525 Q 20.167 1161.823 22.397 1161.151 Q 24.627 1160.479 25.852 1160.257 Q 27.077 1160.034 27.700 1159.967 Q 28.324 1159.900 29.179 1159.904 Q 30.034 1159.907 30.361 1159.889 Q 30.687 1159.870 30.357 1159.977 Q 30.026 1160.083 32.973 1159.859 Q 35.921 1159.635 39.595 1159.373 Q 43.270 1159.111 48.424 1159.691 Q 53.578 1160.271 56.569 1161.020 Q 59.560 1161.768 61.337 1162.159 Q 63.114 1162.551 66.413 1162.993 Q 69.712 1163.436 72.168 1164.133 Q 74.624 1164.831 77.868 1167.089 Q 81.112 1169.348 82.579 1170.680 Q 84.047 1172.013 85.331 1172.763 Q 86.615 1173.513 88.018 1174.125 Q 89.420 1174.737 91.050 1175.438 Q 92.679 1176.139 93.876 1176.759 Q 95.073 1177.379 96.010 1178.158 Q 96.947 1178.937 97.969 1179.945 Q 98.992 1180.952 100.092 1182.332 Q 101.191 1183.713 102.939 1184.450 Q 104.686 1185.188 105.884 1185.330 Q 107.082 1185.472 107.876 1185.754 Q 108.670 1186.035 110.149 1186.690 Q 111.628 1187.346 115.039 1189.109 Q 118.450 1190.872 120.846 1192.310 Q 123.242 1193.747 126.911 1194.128 Q 130.580 1194.509 133.644 1194.737 Q 136.708 1194.965 141.136 1197.136 Q 145.563 1199.306 152.408 1201.906 "></path>
  </g>
  <g id="湖" opacity="1.000">
    <path id="STROKE_28548371-c0a0-4896-86e7-a82c6cadb1e2" opacity="1.000" fill="none" stroke="#009ef1" stroke-width="2.720" stroke-opacity="1.000" stroke-linecap="round" stroke-linejoin="round" d="M -104.822 995.891 Q -105.035 996.481 -105.395 994.768 Q -105.754 993.055 -103.084 988.762 Q -100.413 984.469 -99.016 982.080 Q -97.620 979.691 -95.034 975.504 Q -92.448 971.316 -91.147 969.040 Q -89.846 966.763 -87.625 963.444 Q -85.404 960.124 -81.342 955.360 Q -77.279 950.596 -71.723 946.203 "></path>
    <path id="STROKE_0291a0e9-31db-44ce-9c7c-defeb39da183" opacity="1.000" fill="none" stroke="#009ef1" stroke-width="2.720" stroke-opacity="1.000" stroke-linecap="round" stroke-linejoin="round" d="M -73.578 949.578 Q -74.091 949.535 -73.850 949.556 Q -73.609 949.577 -74.526 949.578 Q -75.444 949.579 -76.005 948.885 Q -76.566 948.191 -76.794 947.885 Q -77.021 947.578 -77.334 947.186 Q -77.648 946.795 -79.180 945.361 Q -80.712 943.927 -81.711 943.047 Q -82.709 942.167 -85.250 940.936 Q -87.791 939.705 -91.844 939.264 Q -95.896 938.822 -98.071 938.924 Q -100.246 939.026 -101.662 939.370 Q -103.078 939.715 -104.638 940.475 Q -106.198 941.236 -107.305 941.788 Q -108.412 942.341 -108.949 942.523 Q -109.486 942.705 -109.780 942.787 Q -110.074 942.870 -110.060 942.856 Q -110.045 942.842 -110.558 942.909 Q -111.071 942.976 -112.335 943.088 Q -113.598 943.199 -114.655 943.022 Q -115.712 942.844 -115.985 942.264 Q -116.259 941.684 -116.410 940.673 Q -116.560 939.662 -116.488 937.867 Q -116.416 936.073 -116.784 933.176 Q -117.152 930.280 -119.159 926.517 Q -121.165 922.755 -123.945 919.090 Q -126.725 915.425 -128.736 913.505 Q -130.746 911.585 -131.591 910.509 Q -132.437 909.433 -132.847 908.877 Q -133.257 908.322 -133.397 908.175 Q -133.537 908.028 -134.095 907.759 Q -134.653 907.490 -135.819 907.901 Q -136.985 908.310 -137.361 908.584 Q -137.738 908.858 -138.902 909.517 Q -140.066 910.176 -141.162 911.470 Q -142.258 912.764 -142.886 913.561 Q -143.514 914.359 -144.299 915.473 Q -145.083 916.587 -145.160 920.453 Q -145.236 924.319 -145.417 926.265 Q -145.599 928.210 -145.696 930.383 Q -145.793 932.555 -145.525 933.722 Q -145.256 934.888 -145.237 935.419 Q -145.217 935.949 -143.801 937.950 Q -142.385 939.951 -140.736 941.199 Q -139.087 942.447 -138.427 943.656 Q -137.767 944.865 -137.482 945.439 Q -137.196 946.013 -137.049 946.406 Q -136.902 946.800 -136.921 946.771 Q -136.940 946.743 -136.772 947.176 Q -136.605 947.610 -136.575 947.713 Q -136.546 947.816 -136.572 947.833 Q -136.598 947.851 -136.587 947.855 Q -136.575 947.859 -136.597 947.762 Q -136.619 947.665 -136.337 949.516 "></path>
    <path id="STROKE_83d45612-5714-42c3-b2bf-bba05120b7a9" opacity="1.000" fill="none" stroke="#009ef1" stroke-width="2.720" stroke-opacity="1.000" stroke-linecap="round" stroke-linejoin="round" d="M -136.733 951.109 Q -136.723 950.905 -136.909 950.837 Q -137.095 950.769 -136.959 950.821 Q -136.823 950.873 -136.825 950.876 Q -136.826 950.878 -137.560 950.616 Q -138.293 950.355 -138.078 950.461 Q -137.863 950.567 -138.373 950.366 Q -138.883 950.166 -141.826 951.795 Q -144.770 953.425 -147.920 956.030 Q -151.070 958.636 -152.377 960.551 Q -153.683 962.467 -154.754 964.403 Q -155.824 966.340 -156.142 968.496 Q -156.460 970.652 -155.628 973.603 Q -154.795 976.554 -154.166 977.775 Q -153.536 978.996 -153.287 979.368 Q -153.037 979.740 -152.949 980.024 Q -152.862 980.307 -151.460 981.727 Q -150.059 983.146 -148.926 984.165 Q -147.794 985.185 -147.308 985.600 Q -146.821 986.015 -146.706 986.080 Q -146.591 986.144 -146.528 986.167 Q -146.466 986.190 -146.596 986.192 Q -146.726 986.194 -145.760 986.558 Q -144.794 986.921 -142.549 987.517 Q -140.305 988.112 -138.770 988.681 Q -137.236 989.250 -136.622 989.267 Q -136.008 989.284 -135.596 989.372 Q -135.183 989.460 -135.109 989.466 Q -135.035 989.471 -134.471 989.713 Q -133.907 989.955 -133.589 990.208 Q -133.272 990.461 -131.515 991.085 Q -129.758 991.710 -128.676 992.716 Q -127.594 993.722 -127.471 993.844 Q -127.348 993.967 -126.808 995.418 Q -126.269 996.869 -125.969 998.505 Q -125.668 1000.142 -125.055 1001.794 Q -124.442 1003.447 -123.164 1004.462 Q -121.886 1005.477 -121.902 1005.525 Q -121.919 1005.573 -119.135 1005.812 Q -116.351 1006.052 -114.212 1005.694 Q -112.073 1005.335 -111.207 1004.853 Q -110.342 1004.370 -109.229 1003.418 Q -108.117 1002.466 -107.259 1001.353 Q -106.400 1000.239 -105.507 998.675 Q -104.613 997.111 -104.226 996.442 Q -103.839 995.772 -101.716 993.047 "></path>
    <path id="STROKE_b6b8ef71-f011-42f1-9c47-15232b10b7f4" opacity="1.000" fill="none" stroke="#009ef1" stroke-width="2.720" stroke-opacity="1.000" stroke-linecap="round" stroke-linejoin="round" d="M -93.108 943.141 Q -93.139 943.141 -93.692 943.141 Q -92.668 943.432 -90.827 943.009 Q -88.986 942.586 -85.098 944.437 Q -81.210 946.289 -78.757 947.628 Q -76.304 948.968 -74.963 950.275 Q -73.621 951.583 -73.008 953.076 Q -72.395 954.569 -72.276 955.544 Q -72.157 956.519 -72.857 957.322 Q -73.557 958.124 -80.852 961.391 "></path>
    <path id="STROKE_66fce931-f658-4eec-bf1b-3a51030ff1b7" opacity="1.000" fill="none" stroke="#009ef1" stroke-width="2.720" stroke-opacity="1.000" stroke-linecap="round" stroke-linejoin="round" d="M -78.476 945.203 Q -78.476 946.499 -78.476 946.102 Q -77.901 947.553 -78.038 947.156 Q -77.325 948.320 -76.868 950.458 Q -76.411 952.596 -76.472 954.314 Q -76.532 956.032 -80.151 959.720 Q -83.770 963.408 -89.794 968.031 "></path>
    <path id="STROKE_514dc093-6f82-4b6a-9540-cf02ee29b798" opacity="1.000" fill="none" stroke="#009ef1" stroke-width="2.720" stroke-opacity="1.000" stroke-linecap="round" stroke-linejoin="round" d="M -74.557 951.562 Q -75.835 951.301 -78.969 955.436 Q -82.103 959.570 -85.379 963.639 Q -88.656 967.707 -90.734 970.324 Q -92.811 972.940 -94.461 976.310 Q -96.112 979.679 -96.754 982.211 Q -97.397 984.743 -97.539 988.333 Q -97.682 991.923 -97.650 994.030 Q -97.619 996.136 -95.943 999.281 "></path>
    <path id="STROKE_f42cfeb2-2fd2-46e3-87ef-1840f996c018" opacity="1.000" fill="none" stroke="#009ef1" stroke-width="2.720" stroke-opacity="1.000" stroke-linecap="round" stroke-linejoin="round" d="M -102.050 996.094 Q -103.622 996.635 -104.697 996.984 L -104.697 997.016 Q -104.648 997.367 -102.858 996.165 Q -101.069 994.962 -98.073 993.352 Q -95.076 991.742 -93.494 990.754 Q -91.913 989.766 -87.219 986.604 Q -82.526 983.443 -77.491 981.540 Q -72.456 979.637 -69.717 978.789 Q -66.978 977.940 -64.624 977.897 Q -62.271 977.854 -60.443 977.593 Q -58.616 977.332 -43.313 981.328 Q -43.313 982.602 -43.313 982.195 Q -43.475 982.727 -43.685 982.989 Q -43.895 983.251 -43.996 983.292 Q -44.097 983.333 -44.127 983.500 Q -44.158 983.667 -45.901 985.463 Q -47.644 987.258 -52.028 988.856 Q -56.413 990.454 -59.553 991.961 Q -62.694 993.467 -64.588 994.755 Q -66.482 996.042 -67.538 997.727 Q -68.594 999.412 -68.106 1001.562 Q -69.126 1001.835 -66.191 1001.702 Q -63.256 1001.570 -61.130 1001.866 Q -59.005 1002.163 -58.008 1002.762 Q -57.010 1003.360 -56.125 1003.853 Q -55.241 1004.346 -54.029 1005.633 Q -52.817 1006.921 -52.491 1007.703 Q -52.165 1008.486 -51.961 1008.878 Q -51.757 1009.270 -51.801 1010.433 Q -51.845 1011.596 -52.243 1012.265 Q -52.640 1012.934 -52.957 1013.262 Q -53.275 1013.591 -53.624 1013.853 Q -53.973 1014.116 -54.101 1014.295 Q -54.230 1014.475 -56.439 1016.427 Q -58.648 1018.378 -60.997 1019.438 Q -63.346 1020.498 -64.169 1020.688 Q -64.993 1020.878 -67.499 1020.825 Q -70.005 1020.773 -73.086 1019.566 Q -76.167 1018.359 -79.007 1017.722 Q -81.847 1017.084 -83.336 1016.931 Q -84.826 1016.777 -85.524 1016.876 Q -86.222 1016.976 -88.732 1016.818 Q -91.243 1016.660 -94.768 1013.107 Q -98.293 1009.554 -99.784 1007.466 Q -101.274 1005.377 -103.767 1002.855 Q -106.260 1000.333 -110.721 997.688 "></path>
    <path id="STROKE_076d83ae-89fa-45e6-8e27-a79b894efde3" opacity="1.000" fill="none" stroke="#009ef1" stroke-width="2.720" stroke-opacity="1.000" stroke-linecap="round" stroke-linejoin="round" d="M -98.611 1019.641 Q -98.759 1020.288 -96.917 1026.619 Q -95.074 1032.951 -93.623 1037.423 Q -92.172 1041.896 -92.127 1048.282 Q -92.083 1054.668 -92.190 1058.352 Q -92.297 1062.036 -92.425 1063.053 Q -92.553 1064.069 -92.919 1066.917 Q -93.284 1069.765 -93.593 1071.455 Q -93.902 1073.146 -94.578 1074.379 Q -95.254 1075.612 -96.311 1076.373 Q -97.369 1077.133 -99.560 1077.248 Q -101.751 1077.363 -103.400 1077.310 Q -105.048 1077.257 -108.907 1075.868 Q -112.767 1074.478 -114.623 1073.428 Q -116.478 1072.377 -118.473 1070.729 Q -120.468 1069.082 -122.458 1067.977 Q -124.448 1066.873 -127.410 1066.588 Q -130.371 1066.303 -131.797 1066.166 Q -133.223 1066.028 -133.876 1065.771 Q -134.528 1065.515 -134.742 1065.303 Q -134.957 1065.091 -134.947 1064.971 Q -134.938 1064.850 -134.939 1065.058 Q -134.940 1065.267 -135.239 1064.304 Q -135.537 1063.341 -135.143 1060.414 Q -134.749 1057.487 -134.259 1055.795 Q -133.770 1054.102 -132.672 1050.401 Q -131.575 1046.701 -130.367 1043.822 Q -129.159 1040.943 -127.806 1038.558 Q -126.453 1036.173 -124.042 1033.200 Q -121.632 1030.226 -118.352 1023.890 Q -115.071 1017.553 -113.307 1013.911 Q -111.542 1010.270 -110.468 1008.003 Q -109.394 1005.736 -109.078 1003.397 Q -108.762 1001.059 -109.003 999.763 Q -109.243 998.467 -109.557 998.108 Q -109.870 997.748 -110.325 997.651 Q -110.779 997.553 -111.513 997.625 "></path>
    <path id="STROKE_63072872-ce02-4b5e-90ae-0dcb827dfd00" opacity="1.000" fill="none" stroke="#009ef1" stroke-width="2.720" stroke-opacity="1.000" stroke-linecap="round" stroke-linejoin="round" d="M -135.691 1012.219 Q -134.703 1012.157 -134.764 1012.055 Q -132.661 1011.051 -130.082 1007.904 Q -127.504 1004.756 -127.771 998.680 Q -127.480 998.857 -128.382 998.515 Q -129.285 998.173 -129.950 998.306 Q -130.614 998.439 -131.777 999.350 Q -132.939 1000.262 -133.516 1000.915 Q -134.093 1001.568 -135.100 1002.206 Q -136.107 1002.845 -136.752 1003.601 Q -137.397 1004.357 -137.511 1004.961 Q -137.625 1005.564 -137.620 1005.912 Q -137.614 1006.259 -137.202 1006.559 Q -136.789 1006.858 -136.676 1007.302 Q -136.564 1007.747 -135.556 1008.408 Q -134.547 1009.070 -133.477 1009.460 Q -132.406 1009.850 -130.856 1008.562 "></path>
    <path id="STROKE_81d1b482-ba00-4330-ad23-ea57d0e70266" opacity="1.000" fill="none" stroke="#009ef1" stroke-width="2.527" stroke-opacity="1.000" stroke-linecap="round" stroke-linejoin="round" d="M -105.614 1001.328 Q -106.055 1001.328 -106.490 1001.328 Q -104.656 1002.714 -101.659 1006.744 Q -98.661 1010.775 -95.151 1018.922 "></path>
  </g>
  <g id="前哨站" opacity="1.000">
    <path id="STROKE_523680c6-0c91-4519-b03f-550da634de39" opacity="1.000" fill="none" stroke="#000000" stroke-width="5.440" stroke-opacity="1.000" stroke-linecap="round" stroke-linejoin="round" d="M -102.300 1083.547 Q -102.178 1083.221 -103.209 1083.637 Q -104.241 1084.052 -104.722 1084.363 Q -105.204 1084.675 -105.633 1085.206 Q -106.062 1085.738 -106.628 1086.461 Q -107.195 1087.183 -108.068 1088.242 Q -108.940 1089.301 -111.343 1091.808 Q -113.745 1094.315 -118.141 1101.719 Q -118.264 1101.305 -114.989 1101.714 Q -111.715 1102.124 -110.339 1102.562 Q -108.962 1102.999 -106.379 1104.396 Q -103.795 1105.793 -101.102 1106.342 Q -98.409 1106.891 -97.043 1106.903 Q -95.677 1106.914 -94.369 1106.417 Q -93.061 1105.921 -92.386 1104.960 Q -91.711 1103.998 -92.259 1103.049 Q -92.807 1102.099 -93.500 1101.552 Q -94.193 1101.005 -94.664 1100.324 Q -95.135 1099.642 -95.271 1099.509 Q -95.407 1099.376 -96.631 1097.611 Q -97.856 1095.847 -99.592 1093.176 Q -101.328 1090.505 -102.077 1089.142 Q -102.825 1087.780 -103.093 1087.144 Q -103.360 1086.508 -103.530 1086.005 Q -103.700 1085.501 -103.821 1085.104 Q -103.942 1084.707 -103.886 1084.952 Q -103.829 1085.197 -103.905 1084.531 Q -103.874 1084.531 -102.904 1085.594 "></path>
    <path id="STROKE_0fc6baa1-10c6-4286-aae3-4f825b0575a4" opacity="1.000" fill="none" stroke="#000000" stroke-width="5.440" stroke-opacity="1.000" stroke-linecap="round" stroke-linejoin="round" d="M -112.180 1102.312 Q -111.760 1102.306 -112.806 1102.426 Q -113.851 1102.545 -113.965 1103.303 Q -114.079 1104.060 -114.110 1107.599 Q -114.141 1111.137 -114.479 1113.419 Q -114.817 1115.701 -114.739 1116.859 Q -114.662 1118.017 -114.614 1118.224 Q -114.567 1118.430 -113.952 1118.534 Q -113.337 1118.639 -112.627 1118.552 Q -111.916 1118.466 -111.758 1118.401 Q -111.599 1118.337 -111.397 1118.255 Q -111.194 1118.174 -111.119 1118.184 Q -111.043 1118.195 -111.182 1118.224 Q -111.322 1118.254 -110.010 1117.530 Q -108.698 1116.805 -105.450 1117.482 Q -102.201 1118.160 -100.875 1118.757 Q -99.549 1119.354 -98.665 1119.357 Q -97.780 1119.359 -96.544 1119.313 Q -95.309 1119.268 -94.631 1118.146 Q -93.953 1117.024 -93.921 1116.099 Q -93.889 1115.175 -94.356 1114.572 Q -94.823 1113.969 -95.014 1113.520 Q -95.205 1113.072 -95.422 1109.094 "></path>
    <path id="STROKE_6f4afd64-3290-4478-b3ca-559e7e7289c9" opacity="1.000" fill="none" stroke="#000000" stroke-width="5.440" stroke-opacity="1.000" stroke-linecap="round" stroke-linejoin="round" d="M -30.723 997.484 Q -30.707 997.256 -30.765 995.656 Q -30.905 995.804 -31.181 995.525 Q -31.457 995.245 -32.898 996.663 Q -34.339 998.080 -35.823 999.746 Q -37.307 1001.412 -38.455 1002.602 Q -39.604 1003.792 -45.960 1008.930 Q -46.576 1008.880 -43.015 1009.799 Q -39.453 1010.718 -19.437 1009.992 Q -19.972 1007.900 -19.843 1008.633 Q -20.592 1008.378 -22.716 1004.122 Q -24.841 999.865 -25.652 997.634 Q -26.463 995.403 -27.003 994.333 Q -27.543 993.263 -28.649 992.906 Q -28.688 992.596 -28.743 994.562 "></path>
    <path id="STROKE_78612d29-b491-4030-8828-c16e70e527f0" opacity="1.000" fill="none" stroke="#000000" stroke-width="5.440" stroke-opacity="1.000" stroke-linecap="round" stroke-linejoin="round" d="M -40.728 1013.812 Q -40.577 1013.867 -41.916 1013.078 Q -41.916 1014.408 -41.916 1014.266 Q -41.744 1015.584 -42.375 1028.531 Q -41.761 1028.755 -39.290 1026.745 Q -36.820 1024.734 -33.307 1024.373 Q -29.794 1024.011 -27.168 1024.041 Q -24.542 1024.071 -23.462 1024.088 Q -22.383 1024.105 -21.810 1024.094 Q -21.238 1024.082 -20.988 1023.666 Q -20.738 1023.251 -20.581 1022.478 Q -20.423 1021.705 -21.207 1019.865 Q -21.991 1018.025 -23.845 1012.484 "></path>
    <path id="STROKE_f8dac87e-b456-4371-b594-dbb277a342d9" opacity="1.000" fill="none" stroke="#000000" stroke-width="5.440" stroke-opacity="1.000" stroke-linecap="round" stroke-linejoin="round" d="M -368.888 1102.984 Q -367.886 1103.133 -371.442 1102.680 Q -371.588 1102.628 -371.930 1104.008 Q -372.272 1105.388 -373.471 1107.283 Q -374.671 1109.179 -376.131 1110.633 Q -377.592 1112.088 -379.361 1113.121 Q -381.131 1114.153 -382.116 1115.247 Q -383.102 1116.340 -383.159 1117.032 Q -383.216 1117.724 -383.306 1119.032 Q -383.396 1120.339 -383.551 1120.818 Q -383.706 1121.297 -383.689 1121.177 Q -383.672 1121.057 -383.728 1121.207 Q -383.784 1121.358 -383.745 1121.206 Q -383.707 1121.055 -384.042 1122.156 Q -385.821 1122.217 -379.392 1121.796 Q -372.963 1121.375 -369.298 1121.397 Q -365.632 1121.420 -363.822 1121.513 Q -362.011 1121.606 -360.510 1121.545 Q -359.009 1121.484 -358.834 1121.368 Q -358.658 1121.253 -357.751 1121.001 Q -356.843 1120.750 -354.194 1119.109 "></path>
    <path id="STROKE_b7083269-4cfc-4779-9fa8-8182e49dfaff" opacity="1.000" fill="none" stroke="#000000" stroke-width="5.440" stroke-opacity="1.000" stroke-linecap="round" stroke-linejoin="round" d="M -366.908 1100.859 Q -366.282 1100.721 -367.603 1101.013 Q -368.924 1101.306 -369.497 1102.653 Q -370.070 1103.999 -367.489 1107.776 Q -364.908 1111.553 -361.875 1115.372 Q -358.841 1119.192 -354.131 1125.203 "></path>
    <path id="STROKE_22ebcac9-4ed3-4859-8d83-47e7c0ed16c9" opacity="1.000" fill="none" stroke="#000000" stroke-width="5.440" stroke-opacity="1.000" stroke-linecap="round" stroke-linejoin="round" d="M -377.893 1124.484 Q -378.218 1124.556 -378.788 1125.060 Q -379.358 1125.563 -379.565 1127.135 Q -379.772 1128.707 -379.784 1129.585 Q -379.796 1130.463 -379.896 1132.204 Q -379.997 1133.946 -379.581 1140.078 Q -378.710 1140.175 -378.924 1140.141 Q -377.375 1140.141 -377.893 1140.141 Q -376.509 1140.141 -376.903 1140.141 Q -375.929 1140.049 -376.038 1140.039 Q -376.599 1139.465 -363.625 1139.844 Q -363.436 1139.366 -363.328 1138.382 Q -363.221 1137.398 -363.273 1137.604 Q -363.325 1137.810 -363.195 1137.723 Q -363.065 1137.637 -363.268 1131.977 Q -363.471 1126.317 -363.525 1122.667 Q -363.579 1119.017 -362.594 1116.312 "></path>
  </g>
</svg>