<?xml version="1.0" encoding="UTF-8" standalone="yes"?>
<svg xmlns="http://www.w3.org/2000/svg" xmlns:xlink="http://www.w3.org/1999/xlink" width="600.944pt" height="552.055pt" version="1.1" viewBox="-43.739 683.587 600.944 552.055">
  <!--
	Exported with Concepts: Smarter Sketching
	Version: 3759 on iOS 17.7
	https://concepts.app/
	-->
  <title>A4F51E51-83EF-4508-A2D2-EE081F0E407B</title>
  <desc>Drawing exported from Concepts: Smarter Sketching</desc>
  <defs></defs>
  <g id="钢笔" opacity="1.000">
    <path id="STROKE_34110573-4730-4f9e-9292-4be4ee16f175" opacity="1.000" fill="none" stroke="#fc6932" stroke-width="2.402" stroke-opacity="1.000" stroke-linecap="round" stroke-linejoin="round" d="M 135.337 906.391 Q 135.138 906.391 134.336 906.391 Q 134.423 906.585 134.730 908.239 Q 135.037 909.893 133.986 913.707 Q 132.935 917.520 131.708 920.538 Q 130.482 923.557 128.582 931.840 Q 126.682 940.123 125.885 945.674 Q 125.089 951.225 123.667 956.937 Q 122.246 962.648 121.298 969.218 Q 120.350 975.788 119.815 984.414 Q 119.281 993.040 118.268 999.591 Q 117.255 1006.142 116.403 1017.514 Q 115.551 1028.887 114.895 1034.687 Q 114.238 1040.487 113.903 1043.728 Q 113.569 1046.968 113.362 1048.480 Q 113.155 1049.991 112.868 1057.842 Q 112.582 1065.692 112.973 1074.811 Q 113.364 1083.930 114.054 1089.407 Q 114.745 1094.883 115.932 1098.713 Q 117.119 1102.543 119.209 1110.317 Q 121.300 1118.090 124.381 1125.561 Q 127.463 1133.032 129.902 1138.818 Q 132.342 1144.603 133.436 1147.219 Q 134.530 1149.835 138.622 1155.441 Q 142.713 1161.046 144.973 1164.665 Q 147.233 1168.284 149.442 1170.302 Q 151.651 1172.319 154.679 1175.535 Q 157.707 1178.750 162.739 1182.184 Q 167.771 1185.617 170.327 1187.498 Q 172.884 1189.379 174.184 1190.411 Q 175.483 1191.444 176.872 1192.292 Q 178.262 1193.141 178.892 1193.393 Q 179.522 1193.645 181.554 1194.179 Q 183.585 1194.713 186.668 1195.376 Q 189.751 1196.040 191.532 1196.410 Q 193.313 1196.780 196.117 1197.672 Q 195.925 1197.436 197.900 1199.138 Q 199.874 1200.840 205.325 1202.765 Q 210.776 1204.690 214.999 1205.628 Q 219.221 1206.566 222.016 1206.803 Q 224.812 1207.040 226.102 1207.283 Q 227.392 1207.527 228.958 1208.297 Q 230.524 1209.068 236.425 1210.660 Q 242.327 1212.253 248.553 1213.658 Q 254.779 1215.063 258.346 1216.270 Q 261.912 1217.477 266.462 1217.466 Q 271.012 1217.456 275.664 1216.677 Q 280.316 1215.899 286.250 1215.358 Q 292.184 1214.817 297.378 1215.025 Q 302.571 1215.233 311.107 1216.729 Q 319.643 1218.225 325.328 1218.796 Q 331.014 1219.368 335.467 1220.166 Q 339.921 1220.964 347.468 1223.091 Q 355.016 1225.218 359.366 1226.235 Q 363.716 1227.251 369.713 1228.199 Q 375.711 1229.147 395.631 1227.391 "></path>
    <path id="STROKE_5bb68e2f-c9b8-43e8-a2fa-075364112d48" opacity="1.000" fill="none" stroke="#fc6932" stroke-width="2.638" stroke-opacity="1.000" stroke-linecap="round" stroke-linejoin="round" d="M 374.829 1220.625 Q 374.779 1220.674 372.244 1221.953 Q 373.333 1221.953 373.172 1221.953 Q 374.617 1221.953 374.329 1221.953 Q 374.883 1222.591 382.674 1222.121 Q 390.465 1221.650 394.711 1221.040 Q 398.957 1220.429 401.724 1220.699 Q 404.490 1220.970 408.537 1221.300 Q 412.583 1221.630 421.123 1220.941 Q 429.662 1220.251 435.102 1219.885 Q 440.541 1219.519 444.043 1219.196 Q 447.545 1218.873 449.733 1218.756 Q 451.922 1218.639 457.351 1217.731 Q 462.781 1216.824 466.304 1215.914 Q 469.827 1215.004 473.039 1214.349 Q 476.251 1213.695 480.542 1212.649 Q 484.833 1211.604 487.229 1210.742 Q 489.624 1209.880 490.094 1209.723 Q 490.563 1209.566 494.500 1207.578 Q 498.436 1205.590 500.694 1204.663 Q 502.951 1203.736 506.128 1201.837 Q 509.306 1199.938 512.861 1197.370 Q 516.417 1194.802 518.989 1193.295 Q 521.561 1191.788 523.471 1190.471 Q 525.381 1189.155 527.389 1186.077 Q 529.397 1182.998 531.416 1178.676 Q 533.435 1174.354 534.660 1171.108 Q 535.884 1167.862 550.039 1139.734 "></path>
    <path id="STROKE_4af9cea0-7491-4a66-b98b-19905d532bfb" opacity="1.000" fill="none" stroke="#fc6932" stroke-width="2.719" stroke-opacity="1.000" stroke-linecap="round" stroke-linejoin="round" d="M 546.600 1133.234 Q 547.086 1133.323 547.457 1124.899 Q 547.829 1116.475 548.113 1111.245 Q 548.397 1106.015 547.880 1102.260 Q 547.363 1098.506 546.887 1096.562 Q 546.411 1094.617 546.118 1092.391 Q 545.824 1090.164 545.174 1086.100 Q 544.524 1082.035 543.829 1079.260 Q 543.134 1076.484 541.142 1073.315 Q 539.151 1070.145 537.804 1069.068 Q 536.458 1067.991 534.136 1064.446 Q 531.814 1060.901 530.631 1059.085 Q 529.448 1057.270 528.973 1055.209 Q 528.497 1053.148 529.384 1049.409 Q 530.271 1045.670 531.505 1043.043 Q 532.739 1040.417 533.818 1035.454 Q 534.897 1030.492 535.586 1025.228 Q 536.275 1019.964 536.500 1017.131 Q 536.725 1014.299 536.120 1011.695 Q 535.515 1009.092 533.717 1006.623 Q 531.919 1004.155 530.406 1000.905 Q 528.894 997.656 526.590 990.516 Q 526.559 990.516 526.528 990.453 Q 526.497 990.453 526.465 990.453 Q 526.380 989.657 526.342 989.906 Q 526.304 990.155 526.194 983.812 "></path>
    <path id="STROKE_aa6d9ffa-028a-49bc-81ae-09d24f216734" opacity="1.000" fill="none" stroke="#fc6932" stroke-width="2.551" stroke-opacity="1.000" stroke-linecap="round" stroke-linejoin="round" d="M 525.944 985.344 Q 525.618 986.237 526.284 981.487 Q 526.950 976.736 527.110 973.906 Q 527.269 971.076 526.759 968.955 Q 526.250 966.833 523.033 960.754 Q 519.817 954.676 515.982 946.626 Q 512.147 938.577 510.184 934.394 Q 508.221 930.210 506.722 925.845 Q 505.223 921.480 503.136 917.235 Q 501.048 912.990 499.459 910.760 Q 497.870 908.530 495.833 906.472 Q 493.795 904.415 490.717 902.991 Q 487.640 901.566 484.904 901.608 Q 482.168 901.651 480.979 902.059 Q 479.790 902.467 478.975 902.659 Q 478.161 902.852 477.444 903.001 Q 476.728 903.151 475.553 903.523 Q 474.377 903.894 467.270 903.859 "></path>
    <path id="STROKE_53839d7f-7414-4a53-b579-eef5d839a057" opacity="1.000" fill="none" stroke="#fc6932" stroke-width="1.938" stroke-opacity="1.000" stroke-linecap="round" stroke-linejoin="round" d="M 114.744 864.922 Q 114.211 864.102 112.680 860.875 Q 112.849 860.196 115.700 863.455 Q 118.550 866.715 121.331 869.212 Q 124.112 871.710 126.614 873.539 Q 129.115 875.368 134.729 878.299 Q 140.342 881.230 145.097 883.267 Q 149.851 885.304 156.827 888.939 Q 163.803 892.573 168.021 894.779 Q 172.239 896.985 178.648 898.473 Q 185.057 899.960 191.244 900.439 Q 197.430 900.917 202.922 902.034 Q 208.414 903.152 212.291 904.704 Q 216.167 906.256 221.987 907.811 Q 227.807 909.365 237.609 910.024 Q 247.411 910.683 255.038 911.695 Q 262.664 912.707 271.254 913.007 Q 279.844 913.306 284.321 913.159 Q 288.797 913.011 290.976 912.912 Q 293.155 912.814 296.204 912.745 Q 299.253 912.677 307.553 912.801 Q 315.852 912.925 322.161 912.635 Q 328.471 912.346 334.584 911.410 Q 340.697 910.474 350.452 909.891 Q 360.208 909.307 369.379 909.505 Q 378.550 909.703 384.740 909.563 Q 390.930 909.423 393.985 908.937 Q 397.040 908.451 399.063 908.101 Q 401.087 907.750 404.332 906.974 Q 407.576 906.197 419.499 903.987 Q 431.423 901.776 440.486 900.053 Q 449.549 898.329 456.691 897.616 Q 463.833 896.904 468.399 897.093 Q 472.966 897.282 487.405 896.703 "></path>
    <circle id="STROKE_7f67c392-4ff8-426b-8d44-b79009e33b97" opacity="1.000" fill="#fc6932" stroke="#fc6932" stroke-width="0.1" stroke-opacity="1.000" fill-opacity="1.000" cx="150.969" cy="884.750" r="1.360"></circle>
    <path id="STROKE_4c95d3be-484e-4a85-a7ba-cadacb861cf2" opacity="1.000" fill="none" stroke="#fc6932" stroke-width="1.741" stroke-opacity="1.000" stroke-linecap="round" stroke-linejoin="round" d="M 152.345 884.156 Q 153.060 884.245 150.365 882.234 Q 149.472 882.150 143.909 896.040 Q 138.345 909.930 134.571 921.545 Q 130.798 933.160 124.477 957.734 "></path>
    <path id="STROKE_6cc2706d-f402-4899-9eb1-50236f46a861" opacity="1.000" fill="none" stroke="#000000" stroke-width="2.511" stroke-opacity="1.000" stroke-linecap="round" stroke-linejoin="round" d="M 96.735 963.188 Q 95.685 963.151 95.838 963.047 Q 95.264 962.666 95.276 962.648 Q 94.834 961.610 95.005 961.953 Q 96.025 961.916 96.084 961.920 Q 96.143 961.924 96.149 961.973 Q 96.154 962.022 96.262 961.720 Q 96.369 961.418 98.616 963.474 Q 100.863 965.531 104.841 967.476 Q 108.818 969.421 112.221 971.241 Q 115.623 973.061 117.153 974.066 Q 118.683 975.071 119.486 975.558 Q 120.288 976.045 121.945 976.505 Q 123.602 976.964 124.640 977.143 Q 125.679 977.322 126.310 977.442 Q 126.941 977.562 127.522 977.624 Q 128.102 977.686 130.667 978.048 Q 133.231 978.410 136.430 979.416 Q 139.629 980.423 142.053 980.736 Q 144.476 981.050 148.692 981.692 Q 152.908 982.334 159.990 982.812 Q 167.072 983.289 170.778 983.213 Q 174.484 983.137 177.764 983.072 Q 181.043 983.008 197.576 984.156 "></path>
    <path id="STROKE_f3a1c772-b6e9-43ae-ae53-c473ce05a301" opacity="1.000" fill="none" stroke="#000000" stroke-width="2.720" stroke-opacity="1.000" stroke-linecap="round" stroke-linejoin="round" d="M 225.193 987.594 Q 225.162 987.594 224.922 987.500 Q 224.922 986.770 224.922 987.000 Q 224.090 987.100 226.488 986.695 Q 228.886 986.291 231.937 986.843 Q 234.987 987.395 236.906 987.768 Q 238.824 988.141 242.330 988.429 Q 245.836 988.717 253.492 987.389 Q 261.148 986.061 264.655 985.393 Q 268.161 984.725 270.260 984.310 Q 272.359 983.894 275.047 983.050 Q 277.735 982.206 279.196 981.449 Q 280.657 980.692 286.713 978.359 Q 292.769 976.026 295.696 974.825 Q 298.624 973.624 301.540 971.743 Q 304.457 969.862 307.552 968.721 Q 310.647 967.580 312.487 966.782 Q 314.327 965.985 316.809 964.984 Q 319.291 963.984 323.870 962.705 Q 328.450 961.426 332.565 961.002 Q 336.681 960.577 349.337 957.281 "></path>
    <path id="STROKE_474ebbc0-11f3-46c9-bdb5-c57d1c8cc7f5" opacity="1.000" fill="none" stroke="#000000" stroke-width="2.720" stroke-opacity="1.000" stroke-linecap="round" stroke-linejoin="round" d="M 361.593 956.672 L 361.624 956.672 Q 361.676 955.901 361.656 955.984 Q 361.602 955.634 362.267 955.442 Q 362.933 955.250 369.774 955.079 Q 376.616 954.908 380.533 954.734 Q 384.449 954.560 389.321 955.513 Q 394.193 956.467 402.111 957.332 Q 410.028 958.197 413.867 958.352 Q 417.707 958.508 420.215 959.233 Q 422.722 959.958 423.809 960.683 Q 424.895 961.408 428.565 963.347 Q 432.235 965.287 437.422 967.186 Q 442.608 969.084 446.582 970.574 Q 450.555 972.064 454.233 972.457 Q 457.912 972.850 461.517 974.000 "></path>
    <path id="STROKE_708f8ec9-4787-45ed-8e75-5cdb5aad3456" opacity="1.000" fill="none" stroke="#000000" stroke-width="2.720" stroke-opacity="1.000" stroke-linecap="round" stroke-linejoin="round" d="M 348.754 957.672 Q 348.902 957.813 347.149 955.586 Q 346.948 955.470 358.071 955.625 "></path>
    <path id="STROKE_9bf8eb4a-8e5e-4944-a8a8-b5e4cff18947" opacity="1.000" fill="none" stroke="#000000" stroke-width="2.720" stroke-opacity="1.000" stroke-linecap="round" stroke-linejoin="round" d="M 91.232 962.391 Q 91.054 962.809 88.458 960.219 Q 85.863 957.629 84.270 955.420 Q 82.677 953.210 82.189 952.552 Q 81.701 951.895 80.664 950.426 Q 79.626 948.958 77.048 946.234 Q 74.471 943.510 71.464 939.695 Q 68.458 935.880 66.292 932.342 Q 64.126 928.805 61.605 924.205 Q 59.084 919.606 57.396 917.013 Q 55.707 914.421 54.904 913.210 Q 54.100 911.999 53.882 911.613 Q 53.663 911.228 52.248 910.559 Q 50.832 909.890 50.252 909.839 Q 49.672 909.788 49.195 909.732 Q 48.719 909.676 48.981 909.696 Q 49.242 909.716 48.461 909.703 Q 48.399 909.570 48.336 909.438 "></path>
    <path id="STROKE_10e890b0-a11e-4a87-9c10-27391395d7e6" opacity="1.000" fill="none" stroke="#000000" stroke-width="2.720" stroke-opacity="1.000" stroke-linecap="round" stroke-linejoin="round" d="M 54.756 914.078 Q 54.214 913.115 54.069 912.938 Q 53.924 912.762 53.995 912.820 Q 53.385 911.762 53.599 912.125 Q 52.956 911.853 52.995 911.953 Q 51.335 911.953 51.838 911.953 Q 50.077 911.953 50.514 911.953 Q 50.781 911.832 46.693 911.967 Q 42.604 912.101 39.362 912.509 Q 36.120 912.916 30.787 913.250 Q 25.454 913.583 22.024 913.715 Q 18.594 913.846 14.990 912.778 Q 11.385 911.710 7.672 909.929 Q 3.958 908.149 2.120 907.402 Q 0.282 906.655 -0.954 906.135 Q -2.191 905.616 -2.847 905.277 Q -3.503 904.939 -3.582 904.790 Q -3.661 904.641 -3.687 904.841 Q -3.714 905.041 -5.127 903.360 Q -6.540 901.679 -6.990 899.555 Q -7.440 897.432 -7.716 895.548 Q -7.991 893.663 -10.769 888.567 Q -13.548 883.470 -15.076 880.857 Q -16.604 878.243 -17.347 875.828 Q -18.091 873.412 -22.719 861.266 "></path>
    <path id="STROKE_b91826e6-f079-43d2-8abf-94efa1ed5f39" opacity="1.000" fill="none" stroke="#000000" stroke-width="1.622" stroke-opacity="1.000" stroke-linecap="round" stroke-linejoin="round" d="M -22.782 784.172 Q -23.450 785.658 -23.209 785.266 Q -23.084 786.251 -24.407 796.349 Q -25.730 806.448 -26.964 816.821 Q -28.198 827.194 -28.188 836.420 Q -28.177 845.646 -28.238 850.167 Q -28.298 854.688 -27.135 861.271 Q -25.972 867.854 -23.511 876.859 "></path>
    <path id="STROKE_33b195d4-b39a-4fbe-b63c-dc8c2a1b710e" opacity="1.000" fill="none" stroke="#000000" stroke-width="2.720" stroke-opacity="1.000" stroke-linecap="round" stroke-linejoin="round" d="M -21.531 786.750 Q -21.289 786.802 -22.571 785.955 Q -23.853 785.109 -24.380 783.791 Q -24.907 782.474 -24.841 780.736 Q -24.775 778.998 -25.193 776.792 Q -25.610 774.586 -26.274 772.460 Q -26.938 770.335 -27.357 769.589 Q -27.775 768.843 -28.605 765.862 Q -29.435 762.881 -29.523 759.377 Q -29.610 755.873 -29.631 754.352 Q -29.652 752.831 -31.367 749.059 Q -33.083 745.287 -34.145 742.272 Q -35.207 739.256 -35.607 737.575 Q -36.006 735.895 -35.989 733.584 Q -35.971 731.274 -34.563 724.980 Q -33.156 718.686 -32.304 715.205 Q -31.453 711.723 -30.893 709.837 Q -30.333 707.951 -24.637 704.750 "></path>
    <path id="STROKE_a9d803ab-5ca1-4420-b780-d8bafce7f321" opacity="1.000" fill="none" stroke="#000000" stroke-width="2.704" stroke-opacity="1.000" stroke-linecap="round" stroke-linejoin="round" d="M -23.053 708.328 Q -23.420 708.874 -22.741 706.799 Q -22.061 704.724 -21.488 703.589 Q -20.915 702.454 -20.582 702.096 Q -20.249 701.738 -18.834 700.599 Q -17.420 699.459 -12.246 697.477 Q -7.073 695.495 -4.017 694.042 Q -0.961 692.588 2.032 692.041 Q 5.024 691.493 6.671 691.322 Q 8.318 691.151 11.808 692.831 Q 15.298 694.510 18.143 696.058 Q 20.988 697.606 25.207 698.510 Q 29.426 699.414 33.417 699.734 Q 37.409 700.054 42.562 700.828 "></path>
    <path id="STROKE_25984238-5c37-4a74-bcee-7819162e4b69" opacity="1.000" fill="none" stroke="#000000" stroke-width="2.222" stroke-opacity="1.000" stroke-linecap="round" stroke-linejoin="round" d="M 44.959 702.156 Q 45.826 702.578 47.603 703.425 Q 49.379 704.273 50.493 704.810 Q 51.607 705.346 53.277 706.214 Q 54.948 707.082 56.086 707.537 Q 57.224 707.992 62.413 711.103 Q 67.602 714.213 70.563 716.958 Q 73.524 719.702 80.107 721.754 Q 86.689 723.805 90.602 724.641 Q 94.514 725.476 98.105 726.201 Q 101.696 726.925 111.370 727.098 Q 121.043 727.271 129.896 727.651 Q 138.750 728.031 148.116 729.296 Q 157.481 730.560 166.790 732.609 "></path>
    <path id="STROKE_96e9ccb5-8513-4356-9847-9922f5618b5b" opacity="1.000" fill="none" stroke="#000000" stroke-width="2.720" stroke-opacity="1.000" stroke-linecap="round" stroke-linejoin="round" d="M 146.467 731.484 Q 147.752 730.994 147.426 731.086 Q 147.871 730.566 157.026 729.955 Q 166.181 729.343 186.716 729.234 "></path>
    <path id="STROKE_f96cb7c4-dcdd-4e4c-b6d5-329bf0b84250" opacity="1.000" fill="none" stroke="#000000" stroke-width="5.440" stroke-opacity="1.000" stroke-linecap="round" stroke-linejoin="round" d="M 3.627 749.141 Q 2.838 748.614 3.074 748.766 Q 2.099 748.420 1.947 748.362 Q 1.795 748.305 1.845 748.406 Q 1.189 748.861 -2.097 752.151 Q -5.383 755.442 -7.288 757.271 Q -9.193 759.099 -10.231 759.991 Q -11.268 760.884 -12.134 761.666 Q -13.000 762.449 -19.947 768.250 Q -20.060 767.667 -13.865 768.054 Q -7.670 768.440 -3.559 768.182 Q 0.552 767.924 2.178 767.517 Q 3.803 767.110 18.405 760.938 Q 18.574 762.340 16.560 758.937 Q 14.547 755.533 13.218 753.577 Q 11.890 751.621 10.782 750.720 Q 9.674 749.820 2.710 744.891 "></path>
    <path id="STROKE_68dbc01d-74c9-4081-b637-e58b6cddc31e" opacity="1.000" fill="none" stroke="#000000" stroke-width="5.440" stroke-opacity="1.000" stroke-linecap="round" stroke-linejoin="round" d="M -10.338 772.953 Q -10.338 772.891 -10.609 771.688 Q -10.481 771.545 -10.782 778.787 Q -11.082 786.030 -11.922 794.391 Q -11.156 794.337 -11.266 794.281 Q -11.694 794.241 -8.099 793.108 Q -4.504 791.975 -1.406 791.766 Q 1.693 791.558 3.397 791.522 Q 5.101 791.487 15.028 788.781 Q 14.857 788.132 14.726 788.180 Q 14.156 787.432 14.194 787.477 Q 14.179 787.312 12.779 784.158 Q 11.378 781.004 10.948 777.176 Q 10.518 773.349 10.670 770.047 Q 10.821 766.745 12.840 758.094 "></path>
    <path id="STROKE_e391c6f4-feef-48d5-b2ec-72e04a228f83" opacity="1.000" fill="none" stroke="#000000" stroke-width="5.440" stroke-opacity="1.000" stroke-linecap="round" stroke-linejoin="round" d="M 472.689 976.578 Q 471.553 976.024 471.866 976.250 Q 471.265 976.251 465.804 980.195 Q 460.343 984.139 455.720 987.954 Q 451.096 991.769 445.280 995.500 Q 446.353 995.500 446.114 995.500 Q 447.410 995.456 449.719 995.471 Q 452.028 995.486 457.158 995.631 Q 462.289 995.777 466.238 995.511 Q 470.187 995.246 472.911 994.894 Q 475.634 994.541 480.047 993.078 Q 480.220 993.046 480.178 992.923 Q 480.136 992.799 477.596 990.251 Q 475.056 987.703 471.313 977.984 "></path>
    <path id="STROKE_e4ace332-f05d-465e-b3a6-e24f0a0079cb" opacity="1.000" fill="none" stroke="#000000" stroke-width="5.440" stroke-opacity="1.000" stroke-linecap="round" stroke-linejoin="round" d="M 451.366 996.750 Q 451.332 996.225 450.546 1001.412 Q 449.760 1006.598 449.427 1009.767 Q 449.093 1012.936 448.992 1014.305 Q 448.890 1015.675 449.260 1016.209 Q 449.629 1016.743 449.928 1016.791 Q 450.227 1016.839 450.169 1016.780 Q 450.111 1016.721 450.077 1016.813 Q 450.043 1016.905 450.535 1016.853 Q 451.027 1016.801 451.644 1016.457 Q 452.260 1016.113 452.235 1016.131 Q 452.209 1016.149 452.255 1016.122 Q 452.302 1016.095 452.619 1015.963 Q 452.935 1015.831 453.098 1015.816 Q 453.260 1015.801 453.383 1015.804 Q 453.505 1015.807 453.340 1015.696 Q 453.176 1015.586 455.487 1015.579 Q 457.798 1015.571 460.783 1015.417 Q 463.768 1015.262 465.356 1014.849 Q 466.945 1014.436 467.172 1014.501 Q 467.399 1014.565 472.626 1012.844 Q 472.626 1011.317 472.626 1011.820 Q 472.520 1010.858 472.533 1010.922 Q 472.480 1009.377 472.501 1009.688 Q 472.221 1009.241 472.418 1004.630 Q 472.615 1000.018 472.646 997.568 Q 472.677 995.119 473.006 993.749 Q 473.335 992.380 474.023 991.312 "></path>
  </g>
</svg>