<?xml version="1.0" encoding="UTF-8" standalone="yes"?>
<svg xmlns="http://www.w3.org/2000/svg" xmlns:xlink="http://www.w3.org/1999/xlink" width="517.969pt" height="570.424pt" version="1.1" viewBox="19.974 373.649 517.969 570.424">
  <!--
	Exported with Concepts: Smarter Sketching
	Version: 3759 on iOS 17.7
	https://concepts.app/
	-->
  <title>E98DF80E-6439-4781-AA7D-E02493484D48</title>
  <desc>Drawing exported from Concepts: Smarter Sketching</desc>
  <defs></defs>
  <g id="房子" opacity="1.000">
    <path id="STROKE_ae4e4098-6759-4872-814b-80b046d76f6c" opacity="1.000" fill="none" stroke="#000000" stroke-width="5.440" stroke-opacity="1.000" stroke-linecap="round" stroke-linejoin="round" d="M 175.857 681.859 Q 176.207 681.375 176.159 681.320 Q 176.150 681.324 176.169 681.269 Q 176.189 681.214 176.536 680.425 Q 176.882 679.637 176.826 679.797 Q 176.857 679.695 176.920 679.391 Q 175.790 680.533 173.767 682.370 Q 171.744 684.207 166.778 687.440 Q 161.813 690.673 157.723 694.594 Q 157.134 694.855 158.600 694.540 Q 160.065 694.225 161.742 693.592 Q 163.418 692.960 164.475 692.746 Q 165.533 692.533 171.650 692.606 Q 177.768 692.680 191.583 693.234 Q 191.847 693.391 191.428 691.868 Q 191.009 690.344 188.857 688.131 Q 186.704 685.919 185.603 684.833 Q 184.501 683.747 183.346 682.972 Q 182.190 682.196 175.669 680.859 Q 175.798 680.848 176.128 680.797 "></path>
    <path id="STROKE_df33724a-400a-492b-bbbe-27e23e11744e" opacity="1.000" fill="none" stroke="#000000" stroke-width="5.440" stroke-opacity="1.000" stroke-linecap="round" stroke-linejoin="round" d="M 165.122 696.719 Q 165.171 696.688 163.569 696.852 Q 163.220 696.342 163.731 700.634 Q 164.243 704.925 163.538 713.234 Q 163.588 713.244 164.105 713.606 Q 164.622 713.968 166.910 712.897 Q 169.197 711.825 170.301 711.282 Q 171.406 710.739 172.732 710.537 Q 174.058 710.334 175.551 710.231 Q 177.044 710.128 178.097 710.136 Q 179.150 710.144 181.533 709.786 Q 183.917 709.429 184.961 709.134 Q 186.005 708.839 186.059 708.774 Q 186.113 708.709 186.254 708.603 Q 186.396 708.496 186.534 707.944 Q 186.671 707.392 186.673 707.162 Q 186.675 706.933 186.460 706.453 Q 186.245 705.974 186.243 705.838 Q 186.241 705.702 185.678 701.193 Q 185.114 696.685 182.422 686.766 "></path>
    <path id="STROKE_dc9764b8-6042-4631-a490-3c49b7e73ea1" opacity="1.000" fill="none" stroke="#000000" stroke-width="5.440" stroke-opacity="1.000" stroke-linecap="round" stroke-linejoin="round" d="M 137.859 857.156 Q 137.592 857.122 136.465 857.417 Q 135.337 857.712 134.874 858.675 Q 134.411 859.639 133.943 860.448 Q 133.475 861.257 131.873 863.304 Q 130.270 865.352 128.796 867.139 Q 127.322 868.926 126.124 870.195 Q 124.926 871.464 124.269 873.344 Q 125.076 873.344 125.009 873.344 Q 126.386 873.344 126.072 873.344 Q 127.120 873.156 126.927 873.172 Q 126.489 872.832 132.520 872.274 Q 138.551 871.717 142.125 871.259 Q 145.700 870.802 147.439 870.153 Q 149.178 869.504 150.452 868.595 Q 151.725 867.687 152.314 865.812 Q 152.501 866.421 151.212 864.911 Q 149.923 863.401 149.488 861.860 Q 149.053 860.318 147.641 858.562 Q 146.229 856.807 145.526 855.993 Q 144.822 855.180 144.145 854.652 Q 143.469 854.124 142.486 853.234 "></path>
    <path id="STROKE_0d5f40dd-5944-4126-bd04-d0a17e876f20" opacity="1.000" fill="none" stroke="#000000" stroke-width="5.440" stroke-opacity="1.000" stroke-linecap="round" stroke-linejoin="round" d="M 134.086 875.141 Q 134.086 875.070 134.086 874.797 Q 134.609 874.833 133.417 880.351 Q 132.224 885.868 131.418 892.281 Q 132.324 892.343 132.315 892.250 Q 131.911 892.360 134.819 890.788 Q 137.727 889.216 139.603 888.880 Q 141.478 888.544 142.841 888.386 Q 144.203 888.229 145.986 888.009 Q 147.768 887.789 149.232 887.172 Q 150.696 886.554 151.477 886.175 Q 152.257 885.796 153.543 884.747 Q 154.828 883.699 155.184 882.245 Q 155.540 880.791 155.754 879.484 Q 155.969 878.177 154.932 874.484 Q 153.895 870.791 151.762 866.047 "></path>
  </g>
  <g id="基底" opacity="1.000">
    <path id="STROKE_377209d9-cea0-4089-8496-823e1425f988" opacity="1.000" fill="none" stroke="#f66640" stroke-width="2.637" stroke-opacity="1.000" stroke-linecap="round" stroke-linejoin="round" d="M 136.400 387.328 Q 136.100 388.017 141.047 387.058 Q 145.993 386.099 153.994 385.913 Q 161.995 385.728 165.829 385.598 Q 169.664 385.468 172.369 385.575 Q 175.075 385.681 181.163 385.613 Q 187.251 385.545 194.334 384.051 Q 201.417 382.557 207.854 381.765 Q 214.291 380.972 218.550 381.101 Q 222.810 381.230 226.497 381.209 Q 230.184 381.187 239.157 381.122 Q 248.130 381.057 255.969 381.386 Q 263.808 381.716 267.949 382.083 Q 272.090 382.450 276.872 382.183 Q 281.653 381.916 285.053 381.872 Q 288.452 381.827 291.550 382.339 Q 294.648 382.850 302.192 385.509 Q 309.735 388.168 313.945 389.283 Q 318.155 390.397 322.708 393.236 Q 327.260 396.075 331.347 397.915 Q 335.435 399.756 337.559 400.648 Q 339.683 401.541 344.297 402.046 Q 348.911 402.551 353.703 403.946 Q 358.495 405.342 361.157 406.549 Q 363.819 407.756 367.423 408.956 Q 371.027 410.157 374.965 410.705 Q 378.903 411.253 383.363 412.138 Q 387.823 413.023 391.708 414.173 Q 395.594 415.323 398.610 416.784 Q 401.627 418.244 405.571 420.694 Q 409.515 423.145 423.894 425.406 "></path>
    <path id="STROKE_b8b4af0a-d8ad-4d89-8185-69b227554ba9" opacity="1.000" fill="none" stroke="#f66640" stroke-width="2.409" stroke-opacity="1.000" stroke-linecap="round" stroke-linejoin="round" d="M 419.330 422.547 Q 419.194 422.547 418.475 421.750 Q 418.843 422.095 421.947 423.904 Q 425.052 425.713 432.187 426.443 Q 439.322 427.174 443.204 427.443 Q 447.086 427.711 449.131 427.731 Q 451.176 427.752 458.310 429.387 Q 465.444 431.022 470.506 432.496 Q 475.568 433.970 479.310 434.543 Q 483.052 435.116 484.861 435.119 Q 486.671 435.121 492.982 435.901 Q 499.293 436.681 503.388 437.813 Q 507.483 438.945 516.919 437.422 "></path>
    <path id="STROKE_0d35a6b2-800e-4fd2-807d-4f2b0e6ea4fd" opacity="1.000" fill="none" stroke="#f66640" stroke-width="2.575" stroke-opacity="1.000" stroke-linecap="round" stroke-linejoin="round" d="M 507.268 444.391 Q 506.031 443.998 504.872 448.668 Q 503.712 453.338 501.615 458.931 Q 499.519 464.524 498.089 469.553 Q 496.659 474.582 495.488 485.444 Q 494.317 496.306 493.515 503.273 Q 492.713 510.239 492.186 514.007 Q 491.659 517.774 490.197 523.675 Q 488.735 529.576 488.221 535.156 Q 487.707 540.737 487.752 543.707 Q 487.796 546.677 487.151 553.088 Q 486.505 559.500 484.999 568.497 Q 483.492 577.494 482.538 583.314 Q 481.583 589.134 479.546 596.891 Q 477.509 604.648 476.194 608.605 Q 474.879 612.562 474.253 620.807 Q 473.628 629.052 472.890 636.172 Q 472.153 643.292 471.946 646.606 Q 471.739 649.921 471.706 651.190 Q 471.674 652.459 472.077 653.483 Q 472.481 654.508 473.231 656.375 "></path>
    <path id="STROKE_dd2c72ca-424f-430c-a0d7-910c96a6d4d2" opacity="1.000" fill="none" stroke="#f66640" stroke-width="2.720" stroke-opacity="1.000" stroke-linecap="round" stroke-linejoin="round" d="M 475.941 648.078 Q 475.972 648.078 476.003 648.078 Q 476.003 648.083 476.003 646.891 Q 476.110 646.818 476.074 648.169 Q 476.037 649.519 476.210 653.882 Q 476.382 658.244 477.284 662.014 Q 478.186 665.783 479.161 668.150 Q 480.136 670.517 480.998 673.202 Q 481.860 675.887 483.703 678.667 Q 485.547 681.446 487.098 683.690 Q 488.648 685.934 489.319 687.218 Q 489.990 688.502 491.050 692.539 Q 492.109 696.577 494.908 701.279 Q 497.707 705.982 499.774 708.522 Q 501.841 711.063 504.843 714.034 Q 507.845 717.005 509.718 719.463 Q 511.592 721.921 513.047 724.819 Q 514.503 727.717 515.004 729.469 Q 515.505 731.221 516.777 734.410 Q 518.049 737.600 519.205 739.299 Q 520.362 740.999 521.840 742.340 Q 523.319 743.680 524.595 748.466 Q 525.871 753.252 526.599 756.533 Q 527.328 759.815 530.363 766.047 "></path>
    <path id="STROKE_06b9b3b6-707c-40a5-a801-bf8b8d188b10" opacity="1.000" fill="none" stroke="#f66640" stroke-width="2.624" stroke-opacity="1.000" stroke-linecap="round" stroke-linejoin="round" d="M 77.058 398.469 Q 76.695 399.208 69.513 395.648 L 69.513 395.609 Q 70.557 395.751 74.902 396.106 Q 79.248 396.462 88.792 394.362 Q 98.336 392.262 103.781 391.463 Q 109.226 390.664 116.839 388.808 Q 124.452 386.952 128.419 385.334 Q 132.385 383.716 136.619 383.062 Q 140.853 382.408 146.492 383.727 Q 152.132 385.046 160.891 388.641 "></path>
    <path id="STROKE_54dca16d-f028-4c17-8f6e-ff3f0e551341" opacity="1.000" fill="none" stroke="#f66640" stroke-width="2.701" stroke-opacity="1.000" stroke-linecap="round" stroke-linejoin="round" d="M 84.145 400.922 Q 84.165 400.847 84.110 400.777 Q 84.056 400.708 84.152 401.282 Q 84.248 401.857 84.550 402.435 Q 84.852 403.013 85.565 404.079 Q 86.278 405.144 88.110 406.790 Q 89.942 408.435 92.503 409.453 Q 95.065 410.471 99.667 411.043 Q 104.270 411.616 107.526 411.846 Q 110.783 412.076 115.537 415.686 Q 120.291 419.297 123.839 422.445 Q 127.386 425.594 129.554 429.564 Q 131.722 433.533 133.564 439.045 Q 135.406 444.557 135.921 452.547 "></path>
    <path id="STROKE_2c04fc97-9fb7-4bcf-bf59-e17e45f3dfb0" opacity="1.000" fill="none" stroke="#f66640" stroke-width="2.240" stroke-opacity="1.000" stroke-linecap="round" stroke-linejoin="round" d="M 129.501 459.578 Q 127.619 458.868 126.615 460.840 Q 125.612 462.812 122.500 469.237 Q 119.389 475.661 116.586 480.366 Q 113.784 485.071 112.578 487.481 Q 111.372 489.890 109.059 494.805 Q 106.747 499.721 105.581 502.055 Q 104.416 504.390 101.479 512.181 Q 98.542 519.972 96.366 525.578 Q 94.190 531.184 92.145 534.816 Q 90.099 538.448 87.219 545.791 Q 84.338 553.133 82.852 557.750 Q 81.365 562.366 79.180 567.276 Q 76.995 572.186 74.789 576.932 Q 72.582 581.678 70.454 586.780 Q 68.325 591.881 66.283 603.604 Q 64.240 615.328 62.825 622.134 Q 61.410 628.940 60.604 632.390 Q 59.798 635.841 57.210 642.793 Q 54.622 649.746 51.633 656.252 Q 48.644 662.758 47.256 666.659 Q 45.869 670.560 45.452 672.167 Q 45.035 673.775 44.408 676.871 Q 43.781 679.967 42.335 687.663 Q 40.890 695.358 39.827 700.394 Q 38.765 705.429 33.370 742.234 "></path>
    <path id="STROKE_52f88408-c21c-4e8d-9f2c-e286005587ac" opacity="1.000" fill="none" stroke="#f66640" stroke-width="2.315" stroke-opacity="1.000" stroke-linecap="round" stroke-linejoin="round" d="M 27.680 747.672 Q 27.680 747.703 27.680 747.734 Q 27.638 747.734 27.409 747.844 Q 27.409 747.906 27.472 748.172 Q 28.432 748.607 35.077 748.365 Q 41.721 748.124 46.720 748.469 Q 51.718 748.813 56.519 749.956 Q 61.321 751.099 79.193 751.057 Q 97.066 751.015 106.380 750.726 Q 115.695 750.438 128.654 750.847 Q 141.613 751.256 149.314 751.650 Q 157.014 752.043 159.819 752.147 Q 162.625 752.251 173.743 752.323 Q 184.861 752.395 190.956 752.454 Q 197.051 752.514 204.793 753.420 Q 212.534 754.326 216.449 755.118 Q 220.364 755.909 228.178 755.859 Q 235.992 755.810 242.690 755.310 Q 249.388 754.810 253.894 755.035 Q 258.401 755.260 263.233 755.748 Q 268.066 756.236 270.725 756.183 Q 273.384 756.130 282.769 755.896 Q 292.153 755.662 298.003 755.624 Q 303.853 755.587 306.945 755.684 Q 310.037 755.781 314.598 755.684 Q 319.158 755.587 321.944 755.164 Q 324.730 754.741 334.245 754.432 Q 343.760 754.122 350.122 754.372 Q 356.484 754.621 362.484 754.826 Q 368.484 755.032 372.166 755.045 Q 375.848 755.057 379.224 755.068 Q 382.600 755.078 392.863 754.979 Q 403.126 754.881 410.519 755.066 Q 417.911 755.252 425.432 755.954 Q 432.953 756.657 439.281 756.679 Q 445.610 756.701 450.745 756.467 Q 455.880 756.233 467.464 757.525 Q 479.047 758.816 485.818 759.984 Q 492.588 761.152 495.516 761.805 Q 498.444 762.459 500.335 762.902 Q 502.226 763.345 508.702 765.097 Q 515.177 766.849 519.518 767.761 Q 523.858 768.674 530.968 770.359 "></path>
    <path id="STROKE_c9468b89-6446-42f3-a9cf-403842a9a899" opacity="1.000" fill="none" stroke="#f66640" stroke-width="2.297" stroke-opacity="1.000" stroke-linecap="round" stroke-linejoin="round" d="M 361.385 409.219 Q 360.578 409.489 356.807 412.162 Q 353.036 414.836 351.392 416.105 Q 349.749 417.375 346.955 419.574 Q 344.161 421.773 342.496 423.366 Q 340.832 424.960 337.659 428.370 Q 334.487 431.780 331.600 435.158 Q 328.714 438.536 326.961 441.585 Q 325.208 444.633 324.262 446.516 Q 323.315 448.398 319.658 455.589 Q 316.001 462.779 313.825 467.315 Q 311.649 471.851 309.282 478.667 Q 306.915 485.484 305.930 489.036 Q 304.945 492.589 304.517 494.575 Q 304.090 496.562 300.479 508.768 Q 296.868 520.975 294.574 528.685 Q 292.280 536.395 290.267 546.562 "></path>
    <path id="STROKE_ef512be3-895b-4046-8235-06a349af0959" opacity="1.000" fill="none" stroke="#f66640" stroke-width="2.659" stroke-opacity="1.000" stroke-linecap="round" stroke-linejoin="round" d="M 290.600 546.969 Q 290.811 547.266 291.209 547.897 Q 291.607 548.528 291.778 548.850 Q 291.950 549.172 291.871 549.190 Q 291.792 549.208 291.982 549.243 Q 292.173 549.278 292.642 551.604 Q 293.112 553.930 292.663 555.390 Q 292.215 556.850 291.714 557.847 Q 291.214 558.844 290.967 559.621 Q 290.720 560.398 290.534 561.092 Q 290.347 561.785 290.278 562.178 Q 290.209 562.571 290.208 563.730 Q 290.208 564.889 290.026 566.478 Q 289.844 568.067 290.474 570.057 Q 291.103 572.048 292.034 573.931 Q 292.964 575.814 294.327 578.965 Q 295.689 582.115 296.821 583.587 Q 297.953 585.059 299.968 588.611 Q 301.983 592.162 305.099 600.025 Q 308.214 607.888 309.942 613.158 Q 311.669 618.428 322.720 636.797 "></path>
    <path id="STROKE_076d8098-3604-47c3-a0be-1fb2448a8287" opacity="1.000" fill="none" stroke="#f66640" stroke-width="2.637" stroke-opacity="1.000" stroke-linecap="round" stroke-linejoin="round" d="M 307.754 613.578 Q 307.405 614.192 308.070 616.561 Q 308.736 618.929 311.159 620.786 Q 313.582 622.644 315.182 623.926 Q 316.782 625.207 317.253 626.093 Q 317.724 626.979 317.791 628.298 Q 317.858 629.616 317.894 635.676 Q 317.930 641.736 318.255 645.720 Q 318.580 649.704 317.953 653.855 Q 317.327 658.005 316.990 660.357 Q 316.653 662.709 315.286 663.693 Q 313.919 664.676 308.781 670.621 Q 303.644 676.566 301.191 679.766 Q 298.737 682.966 297.280 684.833 Q 295.822 686.700 293.138 690.941 Q 290.454 695.181 287.409 699.596 Q 284.364 704.011 280.175 710.105 Q 275.987 716.199 272.568 720.895 Q 269.149 725.590 267.381 728.233 Q 265.612 730.875 262.237 737.150 Q 258.862 743.425 256.296 749.339 Q 253.730 755.253 251.924 761.344 Q 250.118 767.436 249.065 771.177 Q 248.011 774.917 248.038 784.031 "></path>
    <path id="STROKE_a75865d2-fced-45aa-985c-85eef8cdf521" opacity="1.000" fill="none" stroke="#000000" stroke-width="2.710" stroke-opacity="1.000" stroke-linecap="round" stroke-linejoin="round" d="M 77.996 559.234 Q 77.965 559.234 77.392 559.234 Q 78.662 560.634 78.142 560.212 Q 77.622 559.789 78.839 560.585 Q 80.056 561.381 82.600 562.490 Q 85.143 563.599 91.344 565.818 Q 97.544 568.036 101.484 569.403 Q 105.424 570.771 111.062 571.956 Q 116.700 573.140 122.879 573.320 Q 129.058 573.500 135.314 574.615 Q 141.569 575.731 145.219 576.638 Q 148.869 577.546 150.980 577.565 Q 153.091 577.585 162.201 577.754 Q 171.311 577.923 176.848 578.280 Q 182.385 578.636 185.079 579.078 Q 187.772 579.520 194.233 580.318 Q 200.693 581.117 210.322 580.900 Q 219.951 580.683 224.777 580.370 Q 229.603 580.057 236.373 579.155 Q 243.144 578.253 248.432 576.829 Q 253.719 575.406 258.008 575.231 Q 262.297 575.057 265.892 574.415 Q 269.487 573.772 270.762 573.201 Q 272.037 572.629 273.399 572.659 Q 274.761 572.688 280.360 571.148 Q 285.959 569.607 295.040 564.281 "></path>
    <path id="STROKE_e6724264-9363-4c1f-bf49-cd5c728967d1" opacity="1.000" fill="none" stroke="#000000" stroke-width="2.661" stroke-opacity="1.000" stroke-linecap="round" stroke-linejoin="round" d="M 41.103 654.188 Q 41.127 654.275 40.885 652.359 Q 41.061 652.212 41.217 652.149 Q 41.373 652.087 42.956 651.395 Q 44.539 650.703 46.402 649.745 Q 48.264 648.787 50.028 647.841 Q 51.791 646.894 56.954 645.016 Q 62.117 643.137 66.815 641.963 Q 71.512 640.790 74.924 640.296 Q 78.336 639.802 81.619 639.620 Q 84.901 639.438 93.382 639.055 Q 101.862 638.672 106.356 638.259 Q 110.850 637.845 114.340 637.976 Q 117.831 638.106 122.455 639.787 Q 127.080 641.467 135.208 642.496 Q 143.337 643.526 148.698 644.236 Q 154.059 644.946 161.087 645.693 Q 168.115 646.440 175.896 648.288 Q 183.677 650.137 187.776 651.253 Q 191.875 652.369 195.590 652.770 Q 199.304 653.172 203.829 654.235 Q 208.353 655.298 211.682 656.635 Q 215.012 657.972 218.418 660.011 Q 221.824 662.051 229.864 664.763 Q 237.905 667.476 242.842 668.472 Q 247.780 669.469 254.876 672.886 Q 261.972 676.303 265.608 678.107 Q 269.243 679.910 272.607 681.192 Q 275.971 682.475 282.305 686.589 Q 288.638 690.704 291.981 692.723 Q 295.324 694.741 297.619 696.878 Q 299.914 699.014 303.190 702.029 Q 306.465 705.044 312.522 708.522 Q 318.580 711.999 324.416 714.761 Q 330.252 717.523 337.811 721.734 "></path>
    <path id="STROKE_a88a8902-65c2-43f3-812d-d06593a6b63b" opacity="1.000" fill="none" stroke="#000000" stroke-width="2.659" stroke-opacity="1.000" stroke-linecap="round" stroke-linejoin="round" d="M 125.999 574.766 Q 124.564 574.766 124.801 574.766 Q 123.510 574.766 123.946 574.766 Q 123.842 574.766 123.623 574.766 Q 123.849 574.776 124.290 575.216 Q 124.732 575.655 125.262 576.256 Q 125.791 576.858 126.131 577.425 Q 126.471 577.993 126.751 578.252 Q 127.032 578.510 129.153 581.525 Q 131.274 584.539 132.631 588.605 Q 133.987 592.671 134.271 596.571 Q 134.555 600.471 134.723 603.192 Q 134.890 605.912 134.520 609.491 Q 134.149 613.069 131.565 620.830 Q 128.981 628.591 125.874 640.188 "></path>
    <path id="STROKE_f1099305-5c31-487c-a384-ffc4875363b5" opacity="1.000" fill="none" stroke="#000000" stroke-width="2.362" stroke-opacity="1.000" stroke-linecap="round" stroke-linejoin="round" d="M 146.592 645.953 Q 146.947 645.543 142.847 648.739 Q 138.747 651.934 135.521 656.262 Q 132.296 660.589 130.348 664.492 Q 128.400 668.395 125.137 674.676 Q 121.874 680.958 118.129 688.356 Q 114.384 695.754 112.529 700.262 Q 110.674 704.770 109.187 709.083 Q 107.701 713.396 106.685 715.690 Q 105.670 717.984 103.493 725.343 Q 101.316 732.701 100.333 737.319 Q 99.349 741.936 98.701 745.917 Q 98.053 749.898 97.690 752.095 Q 97.326 754.292 96.674 760.765 Q 96.021 767.238 96.802 775.683 Q 97.582 784.127 98.585 792.917 Q 99.588 801.706 100.036 807.171 Q 100.485 812.637 101.550 820.288 Q 102.615 827.939 103.050 832.973 Q 103.485 838.006 112.492 854.703 "></path>
    <path id="STROKE_6321de68-5bc7-47a1-9242-9a0a00c78fe0" opacity="1.000" fill="none" stroke="#000000" stroke-width="2.508" stroke-opacity="1.000" stroke-linecap="round" stroke-linejoin="round" d="M 109.178 846.469 Q 109.219 847.444 109.153 847.083 Q 109.087 846.721 109.244 847.522 Q 109.402 848.324 111.991 851.689 Q 114.581 855.055 115.935 857.091 Q 117.289 859.127 117.936 860.171 Q 118.584 861.215 119.178 862.287 Q 119.771 863.359 120.317 864.259 Q 120.863 865.159 122.321 867.917 Q 123.779 870.675 125.512 872.501 Q 127.245 874.327 128.524 875.314 Q 129.803 876.301 134.670 877.516 "></path>
    <path id="STROKE_1548ed7a-b86f-457e-9aa1-696f1673f901" opacity="1.000" fill="none" stroke="#000000" stroke-width="2.062" stroke-opacity="1.000" stroke-linecap="round" stroke-linejoin="round" d="M 107.261 839.297 Q 107.261 840.130 107.261 840.000 Q 106.741 839.616 108.008 845.413 Q 109.275 851.209 107.897 861.717 Q 106.518 872.224 104.864 879.223 Q 103.211 886.222 102.267 890.366 Q 101.323 894.510 98.194 899.547 "></path>
    <path id="STROKE_4b8c2660-9c3b-4c76-9847-df2f195fc2c4" opacity="1.000" fill="none" stroke="#000000" stroke-width="2.108" stroke-opacity="1.000" stroke-linecap="round" stroke-linejoin="round" d="M 120.767 863.781 Q 119.771 866.040 122.406 872.674 Q 125.040 879.308 127.168 883.840 Q 129.296 888.373 132.344 894.987 Q 135.392 901.601 138.505 911.031 "></path>
    <path id="STROKE_3be06d1c-1df5-4583-b44a-69e8aee47257" opacity="1.000" fill="none" stroke="#000000" stroke-width="2.614" stroke-opacity="1.000" stroke-linecap="round" stroke-linejoin="round" d="M 132.148 897.766 Q 131.776 897.349 131.808 898.675 Q 131.840 900.002 132.724 901.431 Q 133.608 902.860 135.603 906.477 Q 137.598 910.094 139.255 918.408 Q 140.912 926.722 141.569 936.703 "></path>
    <path id="STROKE_cd32f3d9-6cf0-44f0-9fa6-44a5729ff91b" opacity="1.000" fill="none" stroke="#000000" stroke-width="2.372" stroke-opacity="1.000" stroke-linecap="round" stroke-linejoin="round" d="M 199.097 657.641 Q 199.181 657.745 198.568 657.598 Q 197.955 657.451 197.726 657.703 Q 197.498 657.955 197.088 658.497 Q 196.679 659.039 196.392 659.523 Q 196.106 660.007 194.609 662.435 Q 193.112 664.862 190.587 668.239 Q 188.063 671.616 186.658 673.292 Q 185.253 674.969 181.381 679.406 Q 177.508 683.843 171.083 691.141 "></path>
  </g>
</svg>